<?xml version="1.0" standalone="no"?>
<!DOCTYPE svg PUBLIC "-//W3C//DTD SVG 1.1//EN" "http://www.w3.org/Graphics/SVG/1.1/DTD/svg11.dtd" >
<svg>
<metadata>
Created by FontForge 20090914 at Wed Dec 28 02:28:11 2016
 By www-data
Created by Sergey Slyusarev with FontForge 2.0 (http://fontforge.sf.net)
</metadata>
<defs>
<font id="Certege" horiz-adv-x="806" >
  <font-face 
    font-family="Certege"
    font-weight="400"
    font-style="italic"
    font-stretch="normal"
    units-per-em="2048"
    panose-1="2 0 5 3 0 0 0 0 0 0"
    ascent="1631"
    descent="-417"
    x-height="1011"
    cap-height="1352"
    bbox="-165.999 -566.001 1695 1631"
    underline-thickness="50"
    underline-position="-100"
    slope="-20.3"
    unicode-range="U+0020-U+2642"
  />
<missing-glyph horiz-adv-x="748" 
d="M68 0v1365h544v-1365h-544zM136 68h408v1229h-408v-1229z" />
    <glyph glyph-name=".notdef" horiz-adv-x="748" 
d="M68 0v1365h544v-1365h-544zM136 68h408v1229h-408v-1229z" />
    <glyph glyph-name="space" unicode=" " horiz-adv-x="796" 
 />
    <glyph glyph-name="exclam" unicode="!" horiz-adv-x="442" 
d="M200 172l3 0.000976562c17.333 0 32.5 -3 45.5 -9s22.667 -14.167 29 -24.5s10.833 -20.666 13.5 -30.999s4 -20.833 4 -31.5v-11c-2.66699 -36 -13.167 -62.333 -31.5 -79s-46.833 -25 -85.5 -25c-33.333 0 -57.333 9.66699 -72 29s-22 42.333 -22 69
c0 37.333 10.667 65.166 32 83.499s49.333 28.166 84 29.499zM703 1216l-86 -226.998c-15.333 -42.667 -62.666 -162.834 -141.999 -360.501s-124.333 -302.5 -135 -314.5c-10.667 -13.333 -19.834 -21.833 -27.501 -25.5s-21.5 -5.5 -41.5 -5.5c-20.667 0 -31 14 -31 42
c0 29.333 10.667 70.333 32 123l129 345c86.667 230 136.667 365.333 150 406c2.66699 11.333 4.5 22.333 5.5 33s2.33301 19.667 4 27s5.5 17.666 11.5 30.999c8 17.333 21.333 32 40 44s37.334 18 56.001 18c19.333 0 34.666 -7.33301 45.999 -22c6 -8 9 -18.333 9 -31
c0 -8 -1.16699 -16.5 -3.5 -25.5s-5.33301 -19.333 -9 -31s-6.16699 -20.5 -7.5 -26.5z" />
    <glyph glyph-name="quotedbl" unicode="&#x22;" horiz-adv-x="728" 
d="M614 1216l-22.998 -66.998v1c-7.33301 -22 -18.833 -46.333 -34.5 -73s-29.834 -47.334 -42.501 -62.001c-10.667 -13.333 -19.834 -21.833 -27.501 -25.5s-21.167 -5.5 -40.5 -5.5c-22 0 -33 14 -33 42s10.333 67.667 31 119l18 54c2.66699 11.333 4.5 22.333 5.5 33
s2.5 19.667 4.5 27s6 17.666 12 30.999c7.33301 17.333 20.333 32 39 44s37.334 18 56.001 18c20 0 35.333 -7.33301 46 -22c6.66699 -8 10 -18.333 10 -31c0 -10 -3.33301 -25.5 -10 -46.5s-10.334 -33.167 -11.001 -36.5zM912.002 1216l-22.998 -66.998v1
c-7.33301 -22 -18.833 -46.333 -34.5 -73s-29.834 -47.334 -42.501 -62.001c-10.667 -13.333 -19.834 -21.833 -27.501 -25.5s-21.167 -5.5 -40.5 -5.5c-21.333 0 -32 14 -32 42c0 29.333 10 69 30 119l18 54c2.66699 11.333 4.5 22.333 5.5 33s2.5 19.667 4.5 27
s6 17.666 12 30.999c7.33301 17.333 20.333 32 39 44s37.334 18 56.001 18c20 0 35.333 -7.33301 46 -22c6.66699 -8 10 -18.333 10 -31c0 -10 -3.33301 -25.5 -10 -46.5s-10.334 -33.167 -11.001 -36.5zM591.004 1150l1 3zM889.004 1150l1 3z" />
    <glyph glyph-name="numbersign" unicode="#" horiz-adv-x="1263" 
d="M766 792l-180 -260h198l183 260h-201zM690 920c170 240.667 254.669 361.658 254.002 362.991c16.667 22 33.834 40 51.501 54s32.834 21 45.501 21c47.333 0 71 -10.333 71 -31c0 -7.33301 -1.66699 -16 -5 -26c-5.33301 -16.667 -9 -27.167 -11 -31.5
s-12.333 -19.833 -31 -46.5l-209 -302h203c168.667 238 253 358.333 253 361c16.667 21.333 33.834 39.166 51.501 53.499s32.5 21.5 44.5 21.5c27.333 0 46.166 -2.66699 56.499 -8s15.5 -13.333 15.5 -24c0 -6.66699 -1.66699 -15.334 -5 -26.001
c-6 -16.667 -10 -27 -12 -31s-12.333 -19.333 -31 -46l-208 -301l96 1c44.667 0 67 -19.667 67 -59c0 -16.667 -4 -35 -12 -55c-6.66699 -18 -21.667 -27 -45 -27c-10 0 -23.167 1.83301 -39.5 5.5s-26.5 5.5 -30.5 5.5h-126l-179 -260h127c44.667 0 67 -19.333 67 -58
c0 -16.667 -4 -35 -12 -55c-6.66699 -18.667 -13.334 -28 -20.001 -28c-2.66699 0 -7.33398 1.83301 -14.001 5.5s-12.667 5.83398 -18 6.50098l-220 -1l-228 -327c-1.33301 -2.66699 -6.33301 -10.167 -15 -22.5s-14.834 -20.166 -18.501 -23.499s-10 -8.66602 -19 -15.999
s-18.667 -12.166 -29 -14.499s-22.833 -3.5 -37.5 -3.5h-4c-28.667 0.666992 -43 16 -43 46c0 10.667 2 22.334 6 35.001c7.33301 20.667 79.666 129.334 216.999 326.001h-198l-225 -326c-2.66699 -3.33301 -8.16699 -10.666 -16.5 -21.999s-14.5 -19 -18.5 -23
s-10.333 -9.5 -19 -16.5s-18.167 -11.833 -28.5 -14.5s-22.5 -4 -36.5 -4h-5c-28.667 1.33301 -43 16.666 -43 45.999c0 12.667 1.66699 24.334 5 35.001c9.33301 22.667 81.333 131 216 325h-96c-24.667 0 -44.667 4.83301 -60 14.5s-23 28.834 -23 57.501v7
c1.33301 22.667 8.5 38.334 21.5 47.001s30.833 13 53.5 13c13.333 0 33.5 -1.66699 60.5 -5s45.833 -5 56.5 -5h8h70l183 261h-106c-24.667 0 -44.667 4.83301 -60 14.5s-23 28.834 -23 57.501v7c0.666992 22.667 7.66699 38.334 21 47.001s31.333 13 54 13
c13.333 0 33.5 -1.83301 60.5 -5.5s45.833 -5.5 56.5 -5.5h8h80z" />
    <glyph glyph-name="dollar" unicode="$" horiz-adv-x="889" 
d="M639 561l-153.002 -415c26 6 50 16.167 72 30.5s41.333 32.166 58 53.499s30.834 43.333 42.501 66s22.834 48.334 33.501 77.001c7.33301 19.333 11 37.333 11 54c0 42 -21.333 86.667 -64 134zM579.998 786l97.998 268.002c-20.667 0 -37.5 -1.33301 -50.5 -4
s-26.167 -7.83398 -39.5 -15.501s-25.166 -19.5 -35.499 -35.5s-20.166 -37 -29.499 -63c-4 -12 -6 -24.333 -6 -37c0 -36.667 21 -74.334 63 -113.001zM116.996 264.002c5.33301 23.333 13.6709 43.002 25.0039 59.002s25.666 24 42.999 24c48.667 0 73 -17 73 -51
c0 -1.33301 -0.166992 -3.33301 -0.5 -6s-0.5 -4.33398 -0.5 -5.00098c-0.666992 -9.33301 -1 -15.666 -1 -18.999c0 -28 8.16699 -51.333 24.5 -70s38.166 -33 65.499 -43l186 504c-46 35.333 -83.667 75.666 -113 120.999s-44 87.333 -44 126c0 15.333 2.66699 30 8 44
c16 43.333 34 80.333 54 111s38.833 54 56.5 70s37.834 28.333 60.501 37s42 14 58 16s35 3 57 3c3.33301 0 8.66602 -0.166992 15.999 -0.5s12.666 -0.5 15.999 -0.5c2.66699 0 6.83398 0.166992 12.501 0.5s9.5 0.5 11.5 0.5l7 20c2.66699 11.333 4.66699 22.333 6 33
s2.83301 19.834 4.5 27.501s5.5 18.167 11.5 31.5c7.33301 17.333 20.5 31.833 39.5 43.5s37.833 17.5 56.5 17.5c19.333 0 34.666 -7 45.999 -21c5.33301 -8 8 -18.667 8 -32c0 -7.33301 -1 -15.666 -3 -24.999s-5 -19.833 -9 -31.5s-6.66699 -20.167 -8 -25.5l-23 -63
c22.667 -12 43.5 -28.5 62.5 -49.5s33.5 -40.5 43.5 -58.5s17.667 -33.667 23 -47l8 -20c0.666992 0 1 -6 1 -18c0 -24 -4 -41.333 -12 -52c-11.333 -16.667 -30.333 -25 -57 -25c-29.333 4.66699 -51.333 26.334 -66 65.001c-8.66699 22 -26.334 45 -53.001 69l-123 -331
c22.667 -20.667 41.834 -39.167 57.501 -55.5s31.667 -35.666 48 -57.999s28.833 -45.666 37.5 -69.999s13 -49.5 13 -75.5c0 -28.667 -5 -57.667 -15 -87c-10 -28 -19.333 -52.333 -28 -73s-19.334 -42.667 -32.001 -66s-26 -43.333 -40 -60s-30.667 -33.334 -50 -50.001
s-40.5 -30.5 -63.5 -41.5s-49.667 -20.333 -80 -28s-63.5 -12.834 -99.5 -15.501l-8 -22c-5.33301 -14.667 -10.5 -33.334 -15.5 -56.001s-10.5 -42.334 -16.5 -59.001c-4 -10 -12.5 -17.333 -25.5 -22s-25 -7.33398 -36 -8.00098s-25.833 -1 -44.5 -1c-24 0 -36 13 -36 39
c0 20 8.33301 50.333 25 91l17 47c-52 16 -95.5 43.167 -130.5 81.5s-52.5 80.166 -52.5 125.499c0 10 1.33301 21.667 4 35z" />
    <glyph glyph-name="percent" unicode="%" horiz-adv-x="1514" 
d="M344 1106c6.66699 89.333 31.168 152.666 73.501 189.999s110.166 56 203.499 56c81.333 0 140 -16.5 176 -49.5s54 -84.167 54 -153.5c0 -19.333 -1.33301 -38 -4 -56c-8 -80 -36.333 -135.333 -85 -166s-120.667 -46 -216 -46c-39.333 0 -72.833 4.83301 -100.5 14.5
s-48.667 23.5 -63 41.5s-24.5 37.833 -30.5 59.5s-9 46.834 -9 75.501c0 14.667 0.333008 26 1 34zM479.001 1112l-0.00195312 -11.998c0 -28.667 8.83301 -51.834 26.5 -69.501s42.834 -26.5 75.501 -26.5c28.667 0 52.334 2.5 71.001 7.5s32.334 12.833 41.001 23.5
s14.667 20.834 18 30.501s5.66602 22.167 6.99902 37.5c0 1.33301 0.166992 3.66602 0.5 6.99902s0.5 5.66602 0.5 6.99902c0 18.667 -4 35.667 -12 51s-17.833 27 -29.5 35s-23.5 14.167 -35.5 18.5s-23 6.5 -33 6.5c-10.667 0 -22.5 -2 -35.5 -6
s-26.5 -10.167 -40.5 -18.5s-26 -20.5 -36 -36.5s-16 -34.333 -18 -55zM785.999 226.002c6 89.333 31.5 153.668 76.5 193.001s114.167 59 207.5 59c82 0 141.667 -17.5 179 -52.5s56 -88.5 56 -160.5c0 -16 -0.666992 -33.333 -2 -52
c-8.66699 -80 -38.5 -136.5 -89.5 -169.5s-124.167 -49.5 -219.5 -49.5c-139.333 0 -209 67 -209 201c0 13.333 0.333008 23.666 1 30.999zM920.999 232.004l0.00195312 -10.9951c0 -28.667 9.83301 -52.334 29.5 -71.001s46.167 -28 79.5 -28c28 0 51.833 2.66699 71.5 8
s34.167 13.166 43.5 23.499s16 20.666 20 30.999s6.66699 22.833 8 37.5c0.666992 3.33301 1 7.66602 1 12.999c0 25.333 -7.33301 47.5 -22 66.5s-30.5 32.167 -47.5 39.5s-32.5 11 -46.5 11c-10.667 0 -22.834 -2.33301 -36.501 -7s-27.834 -11.334 -42.501 -20.001
s-27.5 -21.167 -38.5 -37.5s-17.5 -34.833 -19.5 -55.5zM1290 1222.01l-807.003 -1151c-2.66699 -4 -8 -11.5 -16 -22.5s-14.167 -18.667 -18.5 -23s-10.666 -9.83301 -18.999 -16.5s-17.833 -11.334 -28.5 -14.001s-23 -4 -37 -4h-4c-29.333 0.666992 -44 16 -44 46
c0 11.333 2 23 6 35c8 22 82.667 133.167 224 333.5l417.5 587c137 191 205.5 287.5 205.5 289.5c16 21.333 33 39.166 51 53.499s33 21.5 45 21.5c26.667 0 45.334 -2.66699 56.001 -8s16 -13.333 16 -24c0 -6.66699 -1.66699 -15.334 -5 -26.001
c-5.33301 -16 -9.16602 -26.5 -11.499 -31.5s-12.5 -20.167 -30.5 -45.5z" />
    <glyph glyph-name="ampersand" unicode="&#x26;" horiz-adv-x="1194" 
d="M680 862l58.5029 40.5l55.5 39l51 37.5c16 12 30.833 23.833 44.5 35.5s25.667 22.667 36 33s19.166 20.666 26.499 30.999s12.666 19.833 15.999 28.5c4.66699 14 7 26.667 7 38c0 24 -9.33301 43.833 -28 59.5s-45.667 23.5 -81 23.5c-18 0 -35.5 -2 -52.5 -6
s-34.5 -10.5 -52.5 -19.5s-34.5 -22.667 -49.5 -41s-27.167 -40.166 -36.5 -65.499c-8 -24 -12 -50.667 -12 -80c0 -14 0.833008 -29.333 2.5 -46s4.16699 -36 7.5 -58s5.66602 -38.667 6.99902 -50zM800.003 152c-60.667 -49.333 -123 -87.0039 -187 -113.004
s-134 -39 -210 -39c-76.667 0 -140 21.833 -190 65.5s-75 103.834 -75 180.501c0 44 9.66699 92.667 29 146c10.667 30.667 28.334 62.167 53.001 94.5s55 64.833 91 97.5s71.667 63 107 91s76.333 58.333 123 91c-18.667 88.667 -28 156.334 -28 203.001
c0 44 6.66699 84 20 120c21.333 54.667 43 98.834 65 132.501s48 60.334 78 80.001s62.667 33 98 40s79.666 10.5 132.999 10.5c68.667 0 120.5 -15.333 155.5 -46s52.5 -73 52.5 -127c0 -29.333 -4.66699 -59.333 -14 -90c-6.66699 -22.667 -19.334 -46.667 -38.001 -72
s-39 -48.833 -61 -70.5s-51.5 -47 -88.5 -76s-69 -53.167 -96 -72.5l-108.5 -76c26 -94.667 71.333 -211.334 136 -350.001l140 130c18 18.667 36 35.834 54 51.501s32.333 23.5 43 23.5c27.333 0 46.166 -2.66699 56.499 -8s15.5 -13 15.5 -23
c0 -7.33301 -1.66699 -16 -5 -26c-7.33301 -18.667 -13.666 -33.667 -18.999 -45s-13.333 -22.333 -24 -33l-199 -197l76 -153c0.666992 0 1 -6 1 -18c0 -24 -4 -41.667 -12 -53c-12 -16.667 -31 -25 -57 -25c-8.66699 2 -16.5 5 -23.5 9s-12.667 8.83301 -17 14.5
s-8.66602 12.167 -12.999 19.5s-8.5 15 -12.5 23zM579.003 629.996c-77.333 -55.333 -139.832 -105.333 -187.499 -150s-78.834 -87 -93.501 -127c-10 -26 -15 -51.667 -15 -77c0 -43.333 14.167 -78.5 42.5 -105.5s61.833 -40.5 100.5 -40.5c86 0 189 48.667 309 146
c-72 142 -124 260 -156 354z" />
    <glyph glyph-name="quotesingle" unicode="'" horiz-adv-x="352" 
d="M576 1216l-23 -66.998l1 1c-8 -22 -19.833 -46.333 -35.5 -73s-29.834 -47.334 -42.501 -62.001c-10.667 -13.333 -19.834 -21.833 -27.501 -25.5s-21.167 -5.5 -40.5 -5.5c-21.333 0 -32 14 -32 42s10 67.667 30 119l18 54c2.66699 11.333 4.5 22.333 5.5 33
s2.5 19.667 4.5 27s6 17.666 12 30.999c7.33301 17.333 20.333 32 39 44s37.334 18 56.001 18c20 0 35.333 -7.33301 46 -22c6.66699 -8 10 -18.333 10 -31c0 -10 -3.16699 -25.5 -9.5 -46.5s-10.166 -33.167 -11.499 -36.5zM554 1150v3v-3z" />
    <glyph glyph-name="parenleft" unicode="(" horiz-adv-x="717" 
d="M801 1129c-73.333 -39.333 -145.833 -99.332 -217.5 -179.999s-127.167 -171.334 -166.5 -272.001c-70.667 -179.333 -106 -329 -106 -449c0 -110 27.667 -200.333 83 -271l27.5 -36c5 -6.66699 9.66699 -14.5 14 -23.5s6.5 -17.167 6.5 -24.5c0 -6.66699 -1 -13 -3 -19
c-8 -18 -19.5 -32.5 -34.5 -43.5s-29.5 -16.5 -43.5 -16.5c-13.333 0 -24 4.33301 -32 13c-55.333 66.667 -96.166 131.334 -122.499 194.001s-39.5 131.667 -39.5 207c0 126.667 42.667 304.667 128 534c28.667 76.667 64.667 148 108 214s90.666 123.167 141.999 171.5
s105.166 89.5 161.499 123.5s114.5 60.333 174.5 79c6.66699 2.66699 13.667 4 21 4c15.333 0 27 -5.66699 35 -17s12 -25 12 -41c0 -12.667 -2 -23.334 -6 -32.001c-5.33301 -14 -21.166 -31.667 -47.499 -53s-57.833 -42 -94.5 -62z" />
    <glyph glyph-name="parenright" unicode=")" horiz-adv-x="676" 
d="M504 1124c-28.667 58.667 -42.9961 104.003 -42.9961 136.003c0 18 4.66699 32.667 14 44c8 9.33301 18.5 16.833 31.5 22.5s25.833 8.5 38.5 8.5c14.667 0 25 -4 31 -12c90 -147.333 135 -307.666 135 -480.999c0 -123.333 -23.333 -248.333 -70 -375
c-30.667 -82 -59.5 -152.667 -86.5 -212s-55.333 -112.5 -85 -159.5s-59.167 -86.167 -88.5 -117.5s-63 -58.833 -101 -82.5s-77.333 -43 -118 -58s-88.334 -28.833 -143.001 -41.5c-8.66699 -1.33301 -14.334 -2 -17.001 -2c-13.333 0 -23.333 4 -30 12s-10 18 -10 30
c0 30.667 10.833 55.334 32.5 74.001s46.834 32 75.501 40c34 9.33301 66.667 23.666 98 42.999s59.166 40.166 83.499 62.499s48.166 49.166 71.499 80.499s43.166 60.666 59.499 87.999s33 59 50 95s30.5 66.667 40.5 92l34 88c36.667 100.667 55 208.667 55 324
c0 121.333 -19.333 221.666 -58 300.999z" />
    <glyph glyph-name="asterisk" unicode="*" horiz-adv-x="698" 
d="M729 911l58.998 -104.001c10 -16.667 15 -31.667 15 -45c0 -15.333 -5.33301 -27.5 -16 -36.5s-23.334 -14.167 -38.001 -15.5h-3c-11.333 0 -24.166 5.66699 -38.499 17s-28.166 26.5 -41.499 45.5s-23.333 33.833 -30 44.5l-20 33l-7 12l-87 -106
c-18 -21.333 -36.667 -32 -56 -32c-10 0 -19.5 3.33301 -28.5 10s-15.833 15.334 -20.5 26.001c-2.66699 4 -4 9.66699 -4 17c0 28.667 22.333 72.334 67 131.001l-59 -1c-24.667 0 -44.667 4.83301 -60 14.5s-23 28.834 -23 57.501c0 3.33301 0.333008 5.33301 1 6
c0.666992 41.333 35 62 103 62c15.333 0 37.666 -1 66.999 -3l-50 89c-11.333 19.333 -17 36.666 -17 51.999c0 23.333 15 42.666 45 57.999c7.33301 4.66699 15.333 7 24 7c6 0 11.833 -1.16699 17.5 -3.5s11 -5.33301 16 -9s10 -8.16699 15 -13.5s9.66699 -11.333 14 -18
l13 -21c4.33301 -7.33301 8.33301 -15 12 -23l11 -24l10.5 -24l10 -24l80 96c21.333 24.667 41.333 37 60 37c16.667 0 34.334 -8 53.001 -24c7.33301 -7.33301 11 -16 11 -26c0 -26.667 -25.667 -71 -77 -133h51c24.667 0 42.834 -5.16699 54.501 -15.5
s17.5 -23.166 17.5 -38.499c0 -8.66699 -2.33301 -18.334 -7 -29.001c-14 -30.667 -53.333 -46 -118 -46h-8h-18z" />
    <glyph glyph-name="plus" unicode="+" horiz-adv-x="1054" 
d="M580 719c38 104 62.333 172.001 73 204.001c2.66699 11.333 4.5 22.166 5.5 32.499s2.5 19.333 4.5 27s5.66699 18.167 11 31.5c8 17.333 21.333 31.833 40 43.5s37.334 17.5 56.001 17.5c20.667 0 36 -7 46 -21c6.66699 -8.66699 10 -19.334 10 -32.001
c0 -7.33301 -1.16699 -15.5 -3.5 -24.5s-5.5 -19.333 -9.5 -31s-6.66699 -20.167 -8 -25.5l-81 -222l242 1c45.333 0 68 -19.333 68 -58c0 -16.667 -4 -35.334 -12 -56.001c-7.33301 -18 -22.666 -27 -45.999 -27c-10 0 -23.333 1.83301 -40 5.5
s-26.667 5.83398 -30 6.50098l-230 -1l-75 -203c-5.33301 -14.667 -10.5 -33.334 -15.5 -56.001s-10.5 -42.667 -16.5 -60c-4 -9.33301 -12.667 -16.333 -26 -21s-25.333 -7.33398 -36 -8.00098s-25.334 -1 -44.001 -1c-24 0 -36 12.667 -36 38c0 18.667 8 49.334 24 92.001
l81 219h-216c-25.333 0 -45.5 4.83301 -60.5 14.5s-22.5 28.834 -22.5 57.501c0 2.66699 0.333008 5 1 7c0 22.667 6.5 38.334 19.5 47.001s31.167 13 54.5 13c13.333 0 33.666 -1.83301 60.999 -5.5s46.333 -5.5 57 -5.5h7z" />
    <glyph glyph-name="comma" unicode="," horiz-adv-x="394" 
d="M117 -44c-16.667 18.667 -27.332 34.502 -31.999 47.502s-7 31.5 -7 55.5c0 37.333 11.667 66.5 35 87.5s51.333 31.5 84 31.5h4c31.333 -0.666992 57 -14.167 77 -40.5s30.667 -51.833 32 -76.5v-9c0 -24 -5.33301 -54 -16 -90s-24.667 -70.667 -42 -104
c-14.667 -28.667 -32.334 -51.834 -53.001 -69.501s-39 -29 -55 -34s-31.333 -7.5 -46 -7.5c-4.66699 0 -9.33398 0.666992 -14.001 2c-5.33301 0 -10.166 2.33301 -14.499 7s-6.5 10 -6.5 16c0 8.66699 6.33301 16.667 19 24c11.333 6.66699 23.333 21.167 36 43.5
s19 44.166 19 65.499c0 20 -6.66699 37 -20 51z" />
    <glyph glyph-name="hyphen" unicode="-" horiz-adv-x="803" 
d="M594 428l-338 -1.00293c-24.667 0 -44.5 4.83301 -59.5 14.5s-22.5 28.834 -22.5 57.501v7c0.666992 22.667 7.5 38.334 20.5 47.001s31.167 13 54.5 13c13.333 0 33.5 -1.83301 60.5 -5.5s45.833 -5.5 56.5 -5.5h8l280 2c23.333 0 40.5 -5.16699 51.5 -15.5
s16.5 -24.5 16.5 -42.5c0 -15.333 -4.33301 -34 -13 -56c-7.33301 -18 -22.333 -27 -45 -27c-10 0 -23.5 1.83301 -40.5 5.5s-26.833 5.83398 -29.5 6.50098z" />
    <glyph glyph-name="period" unicode="." horiz-adv-x="394" 
d="M200 178l2.99902 -0.00292969c18 0 33.833 -3.5 47.5 -10.5s24 -16 31 -27s12 -22.167 15 -33.5s4.5 -22.666 4.5 -33.999v-8c-6 -74 -47 -111 -123 -111c-34 0 -59.333 10.833 -76 32.5s-25 45.834 -25 72.501c0 37.333 11.833 66.333 35.5 87
s52.834 31.334 87.501 32.001z" />
    <glyph glyph-name="slash" unicode="/" horiz-adv-x="698" 
d="M1046 1299l-1012 -1429l-15.5 -21.5c-8.33301 -11.667 -14.333 -19.334 -18 -23.001s-9.83398 -9.16699 -18.501 -16.5s-18.334 -12.166 -29.001 -14.499s-23.334 -3.5 -38.001 -3.5h-4c-28.667 0.666992 -43 16 -43 46c0 10.667 2 22 6 34
c8 22 99.833 156.5 275.5 403.5l520 726c171 237 256.5 356.5 256.5 358.5c16.667 22 33.834 40.167 51.501 54.5s32.5 21.5 44.5 21.5c27.333 0 46.166 -2.83301 56.499 -8.5s15.5 -13.834 15.5 -24.501c0 -6 -1.66699 -14.333 -5 -25
c-5.33301 -16 -9.16602 -26.5 -11.499 -31.5s-12.833 -20.5 -31.5 -46.5z" />
    <glyph glyph-name="zero" unicode="0" horiz-adv-x="750" 
d="M383 651c-48 -128.667 -82.5039 -228.334 -103.504 -299.001s-31.5 -123 -31.5 -157c0 -23.333 4.5 -40 13.5 -50s22.833 -15 41.5 -15c21.333 0 38.833 1.66699 52.5 5s28.834 11.333 45.501 24s31.834 29.834 45.501 51.501s30.334 52.667 50.001 93
s40.334 87.833 62.001 142.5l78.5 205c55.333 148.667 94.5 260 117.5 334s34.5 128.667 34.5 164c0 27.333 -6.5 46.333 -19.5 57s-33.5 16 -61.5 16c-25.333 0 -47.5 -5.5 -66.5 -16.5s-37.5 -29.667 -55.5 -56s-36.167 -61.333 -54.5 -105s-39.833 -98 -64.5 -163z
M237.996 654l88.502 241.999c25 70 49.167 130.833 72.5 182.5s45.833 95 67.5 130s46.167 63.167 73.5 84.5s57.666 36.5 90.999 45.5s73.666 13.5 120.999 13.5c65.333 0 112.666 -11.833 141.999 -35.5s44 -62.167 44 -115.5c0 -52 -12.833 -121.333 -38.5 -208
s-66.5 -205.667 -122.5 -357c-84 -229.333 -143.667 -378 -179 -446c-41.333 -79.333 -85.666 -131.666 -132.999 -156.999c-45.333 -22 -112 -33 -200 -33c-57.333 0 -99.333 10.667 -126 32s-40 58.333 -40 111c0 48 11.167 112.667 33.5 194s57.5 187 105.5 317z" />
    <glyph glyph-name="one" unicode="1" horiz-adv-x="484" 
d="M698 1267l-412 -1121c-5.33301 -14.667 -10.5 -33.334 -15.5 -56.001s-10.833 -42.667 -17.5 -60c-3.33301 -9.33301 -11.833 -16.333 -25.5 -21s-25.834 -7.33398 -36.501 -8.00098s-25.667 -1 -45 -1c-24 0 -36 12.667 -36 38c0 17.333 8.66699 48 26 92l359 982
c4.66699 9.33301 7 17 7 23c0 10.667 -6.66699 16 -20 16c-9.33301 0 -20.333 -2 -33 -6h-29h-32c-25.333 0 -40.666 1 -45.999 3c-17.333 5.33301 -26 16 -26 32c0 9.33301 3.16699 17.666 9.5 24.999s15.166 12 26.499 14c12.667 2.66699 31.167 9 55.5 19
s49.333 21.167 75 33.5l78.5 38l67 33.5c10.667 6 22.334 9 35.001 9s23.167 -3.66699 31.5 -11s12.5 -18.333 12.5 -33c0 -12.667 -3 -26.334 -9 -41.001z" />
    <glyph glyph-name="two" unicode="2" horiz-adv-x="744" 
d="M724 1222l-4 0.00390625c-85.333 0 -146 -51.333 -182 -154c-13.333 -34 -26.166 -55.667 -38.499 -65s-30.5 -14 -54.5 -14h-18c-28.667 0.666992 -43 14.667 -43 42c0 10 2.33301 22.667 7 38c8 20 15.167 39.167 21.5 57.5s13 35.5 20 51.5s14.167 31 21.5 45
s15.666 27 24.999 39s19.666 22.667 30.999 32s24.333 17.666 39 24.999s31.167 13.5 49.5 18.5s38.833 8.66699 61.5 11s48 3.5 76 3.5c79.333 0 136.166 -11.833 170.499 -35.5s51.5 -60.5 51.5 -110.5c0 -54 -21.667 -140 -65 -258
c-17.333 -46.667 -42.5 -94.667 -75.5 -144s-69.167 -95.333 -108.5 -138s-81 -85 -125 -127l-129.5 -119.5l-117.5 -107c-36 -33.667 -67.167 -66.334 -93.5 -98.001s-44.166 -59.834 -53.499 -84.501h401c23.333 -0.666992 40.5 -6.16699 51.5 -16.5
s16.5 -24.5 16.5 -42.5c0 -14.667 -4.33301 -32.667 -13 -54c-6.66699 -18.667 -21.667 -28 -45 -28c-9.33301 0 -22.333 1.83301 -39 5.5s-26.667 5.5 -30 5.5h-488c-22 0 -33 9.33301 -33 28c0 6 1.33301 12.667 4 20l29 82c14.667 40 37.167 81.167 67.5 123.5
s64.333 82.333 102 120s78 76 121 115l129 117.5c43 39.333 83.333 78.166 121 116.499s71.834 79.333 102.501 123s53.667 86.167 69 127.5c34.667 94 52 155.667 52 185c0 22 -6.5 38 -19.5 48s-34.5 15.333 -64.5 16z" />
    <glyph glyph-name="three" unicode="3" horiz-adv-x="773" 
d="M243 255c-10.667 -22.667 -16.0068 -42.0068 -16.0068 -58.0068c0 -44.667 36.333 -67 109 -67c18 0 35.333 3.66699 52 11s31.667 16.333 45 27s26.666 25 39.999 43s24.833 35.167 34.5 51.5s19.834 36.666 30.501 60.999s19.334 44.833 26.001 61.5l24 63
c20 54 30 98.667 30 134c0 18.667 -2.66699 35 -8 49s-13 25.333 -23 34s-19.667 15.334 -29 20.001s-20.666 9 -33.999 13c-35.333 12.667 -53 29 -53 49c0 2 0.333008 5.33301 1 10c5.33301 14.667 18 30.334 38 47.001s43.333 33.5 70 50.5s53.834 35.333 81.501 55
s53.834 43.834 78.501 72.501s43 59.334 55 92.001c12.667 36 19 64.667 19 86c0 41.333 -24.667 62 -74 62c-28 0 -54.167 -5.16699 -78.5 -15.5s-44.333 -23.333 -60 -39s-28.167 -30.334 -37.5 -44.001s-16 -26.167 -20 -37.5c-12.667 -34.667 -25.167 -56.5 -37.5 -65.5
s-30.5 -13.5 -54.5 -13.5h-19c-28.667 0.666992 -43 14.667 -43 42c0 10 2.66699 22.667 8 38c0 0.666992 2.5 7.83398 7.5 21.501l11 29.5c2.33301 6 7.16602 16.833 14.499 32.5s14.166 27.834 20.499 36.501s15.333 20.334 27 35.001s23.334 26.334 35.001 35.001
s26.334 18.334 44.001 29.001s35.834 19 54.501 25s40.5 11 65.5 15s51.167 6 78.5 6c39.333 0 72.833 -4.33301 100.5 -13s48.834 -20.834 63.501 -36.501s25.334 -32.5 32.001 -50.5s10 -38 10 -60c0 -40 -9.33301 -83.333 -28 -130
c-22.667 -62 -54.667 -116.667 -96 -164s-93.333 -94 -156 -140c28.667 -20 50.5 -41.167 65.5 -63.5s22.5 -51.166 22.5 -86.499c0 -39.333 -10 -86.333 -30 -141c-57.333 -150.667 -102.666 -252.667 -135.999 -306c-44.667 -72.667 -100 -120 -166 -142
c-38.667 -12.667 -85.334 -19 -140.001 -19c-147.333 -0 -221 53.333 -221 160c0 36.667 9.33301 81.334 28 134.001c6.66699 18.667 16 32.667 28 42s28.333 14.666 49 15.999c0.666992 0 1.5 0.166992 2.5 0.5s1.83301 0.5 2.5 0.5c17.333 0 32.833 -5.5 46.5 -16.5
s20.5 -25.167 20.5 -42.5c0 -12.667 -3.66699 -25.667 -11 -39z" />
    <glyph glyph-name="four" unicode="4" horiz-adv-x="891" 
d="M680 720l17.0029 43.4961c5.33301 13 11 24.833 17 35.5s12.5 19.834 19.5 27.501s15.5 13.5 25.5 17.5s21.667 6 35 6c52 0 78 -13 78 -39c0 -8.66699 -1.66699 -16.667 -5 -24c-9.33301 -30 -20 -54.167 -32 -72.5s-19.667 -31.166 -23 -38.499l-78 -209h113
c58.667 0 88 -15.333 88 -46c0 -6 -1.66699 -13.667 -5 -23c-5.33301 -14.667 -18.333 -27 -39 -37s-39.667 -16.333 -57 -19s-32.333 -4 -45 -4h-2h-100l-76 -208l-13.5 -31c-6.33301 -14.667 -10.833 -25.667 -13.5 -33c-10.667 -29.333 -24.167 -47.666 -40.5 -54.999
s-45.166 -11 -86.499 -11h-12c-14.667 0 -24.334 3 -29.001 9s-5.33398 14 -2.00098 24c5.33301 12.667 12.833 26.834 22.5 42.501s18.834 33.834 27.501 54.501c13.333 34 38.666 103.333 75.999 208l-388 -1c-24.667 0 -37 9 -37 27c0 4.66699 1.33301 11 4 19l31 84
c5.33301 14 38 64.167 98 150.5l227 326.5l223 330c13.333 20 29.666 37.5 48.999 52.5s35.333 22.5 48 22.5c27.333 0 46 -2.66699 56 -8s15 -13.333 15 -24c0 -6 -1.33301 -14.667 -4 -26c-8 -19.333 -12.333 -29.5 -13 -30.5l-30 -46.5
c-40.667 -64.667 -103.5 -154.834 -188.5 -270.501l-224.5 -307c-64.667 -89 -101.334 -145.5 -110.001 -169.5h292z" />
    <glyph glyph-name="five" unicode="5" horiz-adv-x="745" 
d="M243 255c-12 -24.667 -18.002 -48.6621 -18.002 -71.9951c0 -35.333 15.333 -53 46 -53h17h15c20 0 36.5 1.33301 49.5 4s28.333 9.66699 46 21s34.167 28.166 49.5 50.499s32.833 53.833 52.5 94.5s40.5 90.667 62.5 150c56 150.667 84 252.334 84 305.001
c0 24.667 -5 40.667 -15 48s-25.333 11 -46 11h-2c-16 0 -31.333 -2.5 -46 -7.5s-30.5 -12.167 -47.5 -21.5l-65.5 -35c-36 -20 -62.333 -30 -79 -30h-39c-19.333 0 -29 9.66699 -29 29c0 8 2 17.333 6 28l195 528c7.33301 20 16.333 32.833 27 38.5s30 8.5 58 8.5h382
c44.667 0 67 -19.333 67 -58c0 -16.667 -4.33301 -35.334 -13 -56.001c-12.667 -19.333 -30.667 -29 -54 -29c-10 0 -23 2.16699 -39 6.5s-25.667 6.83301 -29 7.5l-285 -1l-121 -332c30.667 22 57.834 36.5 81.501 43.5s51.834 10.5 84.501 10.5h8
c60.667 -0.666992 104 -9.33398 130 -26.001s39 -46.334 39 -89.001c0 -34.667 -8.5 -81.334 -25.5 -140.001s-43.833 -138.667 -80.5 -240c-45.333 -122 -85.333 -209.667 -120 -263c-70.667 -108 -166 -169 -286 -183c-19.333 -2 -39.333 -3 -60 -3
c-56 0 -97 15.333 -123 46s-39 71 -39 121c0 40.667 8 83 24 127c6.66699 18.667 16 32.667 28 42s28.333 14.666 49 15.999c0.666992 0 1.5 0.166992 2.5 0.5s1.83301 0.5 2.5 0.5c17.333 0 32.833 -5.5 46.5 -16.5s20.5 -25.167 20.5 -42.5
c0 -12.667 -3.66699 -25.667 -11 -39z" />
    <glyph glyph-name="six" unicode="6" horiz-adv-x="763" 
d="M740 1352c38 0 71.332 -5.33594 99.999 -16.0029s51 -24.667 67 -42s27.833 -36 35.5 -56s11.5 -40.667 11.5 -62c0 -20.667 -3 -39 -9 -55c-12.667 -36.667 -24 -59 -34 -67s-29.667 -12 -59 -12h-18c-26 0 -39 16.333 -39 49c0 4 1.33301 14.333 4 31
c3.33301 8.66699 5 17.667 5 27c0 20 -8.33301 37.167 -25 51.5s-38.334 21.5 -65.001 21.5c-10.667 0 -20.5 -0.5 -29.5 -1.5s-17.5 -2.83301 -25.5 -5.5s-15 -5.16699 -21 -7.5s-12.167 -6.66602 -18.5 -12.999l-16 -15.5c-4.33301 -4 -9.33301 -11.167 -15 -21.5
s-10 -18.666 -13 -24.999s-7.5 -16.833 -13.5 -31.5l-14 -35l-16 -42c-0.666992 -3.33301 -1.33398 -6 -2.00098 -8l-46 -125c8 3.33301 15.333 7.5 22 12.5s12 8.83301 16 11.5s12.833 5.16699 26.5 7.5s32.834 3.5 57.501 3.5h38c55.333 -2 95.666 -15.667 120.999 -41
s38 -63.333 38 -114c0 -68 -24 -169.333 -72 -304c-16 -44.667 -31.333 -85 -46 -121s-29.167 -68.667 -43.5 -98s-27.833 -55.166 -40.5 -77.499s-26.334 -42.166 -41.001 -59.499s-28.167 -32 -40.5 -44s-26.5 -22.167 -42.5 -30.5s-30.667 -14.833 -44 -19.5
s-29.666 -8.33398 -48.999 -11.001s-37 -4.33398 -53 -5.00098s-36 -1 -60 -1c-56 0 -97.667 12 -125 36s-41 62.667 -41 116c0 71.333 24.333 174.333 73 309l212 571l24 63.5c7.33301 20.333 14.833 39.5 22.5 57.5s15.667 34.833 24 50.5s17.333 30.334 27 44.001
s20.334 26 32.001 37s24.834 20.667 39.501 29s30.834 15.333 48.501 21s37.667 10 60 13s46.5 4.5 72.5 4.5zM330.999 469.997c-5.33301 -16.667 -14.3379 -40.9961 -27.0049 -72.9961l-29.5 -76.5c-7 -19 -13.5 -40.333 -19.5 -64s-9 -43.5 -9 -59.5
c0 -44.667 23.333 -67 70 -67c14.667 0 27.334 0.5 38.001 1.5s21.334 3.16699 32.001 6.5s19.834 6.66602 27.501 9.99902s15.834 9.16602 24.501 17.499s16 16.166 22 23.499s13.167 18.333 21.5 33s15.333 28.167 21 40.5s13.167 29.666 22.5 51.999l25 61.5l29 75
l36 94.5c12 30.333 22.333 62 31 95s13 60.5 13 82.5c0 48 -21.667 72 -65 72c-22 0 -40.667 -1.5 -56 -4.5s-30.5 -9.16699 -45.5 -18.5s-28.167 -20.833 -39.5 -34.5s-23.666 -33.5 -36.999 -59.5s-26.333 -54.833 -39 -86.5s-28 -72.167 -46 -121.5z" />
    <glyph glyph-name="seven" unicode="7" horiz-adv-x="767" 
d="M1005 1352c11.333 0 19.667 -5.00195 25 -15.002s8 -22 8 -36c0 -15.333 -2.66699 -27.666 -8 -36.999l-146 -220.5l-153 -230.5l-135.5 -214c-50.333 -81.333 -97 -162.333 -140 -243s-83.167 -162.667 -120.5 -246c-5.33301 -15.333 -10.833 -27 -16.5 -35
s-11.5 -20 -17.5 -36c-6 -15.333 -16 -25.666 -30 -30.999s-37 -8 -69 -8c-28 0 -42 17 -42 51c0 14.667 3 29.667 9 45s13.333 27.666 22 36.999c30.667 68.667 64.334 138.334 101.001 209.001s70 132.167 100 184.5s68 114.666 114 186.999l107.5 166l119 176
l112.5 166.5h-291c-8 -16.667 -13.667 -27.5 -17 -32.5s-12 -13.5 -26 -25.5c-15.333 -14 -37.666 -21 -66.999 -21h-4c-9.33301 0 -17.833 4.33301 -25.5 13s-9.16699 19.334 -4.5 32.001l39 108c5.33301 15.333 15.166 28.5 29.499 39.5s30.166 16.5 47.499 16.5h479z" />
    <glyph glyph-name="eight" unicode="8" horiz-adv-x="748" 
d="M571 1100c-13.333 -36.667 -19.999 -69.666 -19.999 -98.999c0 -54.667 23.333 -82 70 -82c60 0 108 51 144 153c9.33301 24.667 14 48.334 14 71.001c0 24 -5.66699 43.167 -17 57.5s-28 21.5 -50 21.5c-20 0 -38 -3.33301 -54 -10s-29.5 -16.334 -40.5 -29.001
s-19.833 -25.334 -26.5 -38.001s-13.334 -27.667 -20.001 -45zM301.001 130.001c31.333 0 57.835 4.16797 79.502 12.501s42 24.166 61 47.499s36.333 51.5 52 84.5s34.167 78.5 55.5 136.5c54 146.667 81 247.667 81 303c0 26 -5.5 45 -16.5 57s-27.833 18 -50.5 18
c-32.667 0 -61.334 -9.5 -86.001 -28.5s-51.334 -54.833 -80.001 -107.5s-61 -128 -97 -226l-32 -89c-6.66699 -18.667 -13.667 -42.167 -21 -70.5s-11 -51.5 -11 -69.5c0 -45.333 21.667 -68 65 -68zM259.003 0.00195312c-58.667 0 -101.331 13 -127.998 39s-40 64 -40 114
c0 67.333 25 169 75 305c22.667 61.333 45 115.166 67 161.499s41.333 82.833 58 109.5s34 49.334 52 68.001s32.5 31.5 43.5 38.5s23.5 13.833 37.5 20.5c-17.333 26 -26 60.667 -26 104c0 46.667 10.333 96.667 31 150c20 48 42.833 88.5 68.5 121.5s53.667 58 84 75
s60 28.833 89 35.5s60.833 10 95.5 10c40.667 0 77.667 -16 111 -48s50 -76.333 50 -133c0 -34 -7.33301 -72.333 -22 -115c-42.667 -118.667 -97.667 -192.667 -165 -222c20 -18.667 30 -52.667 30 -102c0 -76 -25 -183 -75 -321c-21.333 -56.667 -40 -103.5 -56 -140.5
s-33.833 -72.167 -53.5 -105.5s-39.334 -59.5 -59.001 -78.5s-42.834 -35.5 -69.501 -49.5s-55.667 -23.667 -87 -29s-68.333 -8 -111 -8z" />
    <glyph glyph-name="nine" unicode="9" horiz-adv-x="773" 
d="M237 206c0 -20.667 6.33398 -38.499 19.001 -53.499s31.667 -22.5 57 -22.5c17.333 0 30.666 0.333008 39.999 1s20.166 3 32.499 7s22.166 8.83301 29.499 14.5s16.333 15.167 27 28.5s20 28 28 44s18.167 38 30.5 66s24.666 57.833 36.999 89.5l44.5 118.5
c-11.333 -2.66699 -19.666 -6 -24.999 -10s-9.33301 -7.5 -12 -10.5s-12.167 -5.66699 -28.5 -8s-41.166 -3.5 -74.499 -3.5c-62 0 -108.333 10.333 -139 31s-46 58 -46 112c0 61.333 22 151.666 66 270.999c26 71.333 49.167 130.666 69.5 177.999s41.333 89.5 63 126.5
s41.834 65.5 60.501 85.5s41.167 36.5 67.5 49.5s52.833 21.5 79.5 25.5s59.667 6 99 6c69.333 0 119.5 -9.66699 150.5 -29s46.5 -53.333 46.5 -102c0 -61.333 -28.667 -170 -86 -326l-193 -522c-48.667 -132 -83.334 -216.333 -104.001 -253
c-29.333 -50 -65.666 -83 -108.999 -99c-38 -14 -101 -21 -189 -21c-56.667 0 -104.667 16.167 -144 48.5s-59 74.5 -59 126.5c0 24 4.66699 48.667 14 74c6.66699 18.667 16 32.834 28 42.501s28.333 15.167 49 16.5h6c20 0 36 -7.16699 48 -21.5s18 -36.833 18 -67.5
c0 -2.66699 -0.166992 -5 -0.5 -7s-0.5 -4 -0.5 -6zM472.001 895.001l-60.001 -158.503c-16.667 -45 -25 -77.167 -25 -96.5c0 -18 6.33301 -30.833 19 -38.5s33.334 -11.5 62.001 -11.5c21.333 0 38.666 0.833008 51.999 2.5s27.5 5.83398 42.5 12.501s28 16.334 39 29.001
s23.333 29.834 37 51.501s27.167 48.167 40.5 79.5s28.333 70 45 116l31 85.5l25 70c7.33301 21 13.5 39.833 18.5 56.5s8.83301 31.5 11.5 44.5s4 24.167 4 33.5c0 19.333 -6.33301 32.666 -19 39.999s-33.667 11 -63 11h-8c-61.333 -1.33301 -112 -33.666 -152 -96.999
c-23.333 -37.333 -56.666 -114 -99.999 -230z" />
    <glyph glyph-name="colon" unicode=":" horiz-adv-x="394" 
d="M477 943l2.99902 -0.000976562c18 0 33.667 -3.5 47 -10.5s23.5 -16 30.5 -27s12.167 -22.167 15.5 -33.5s5 -22.666 5 -33.999v-8c-6 -73.333 -47 -110 -123 -110c-34 0 -59.333 10.833 -76 32.5s-25 45.5 -25 71.5c0 38 11.833 67.167 35.5 87.5
s52.834 30.833 87.501 31.5zM199.999 177.999l2.99902 -0.00292969c18 0 33.833 -3.5 47.5 -10.5s24 -16 31 -27s12 -22.167 15 -33.5s4.5 -22.666 4.5 -33.999v-8c-6 -74 -47 -111 -123 -111c-34 0 -59.333 10.833 -76 32.5s-25 45.834 -25 72.501
c0 37.333 11.833 66.333 35.5 87s52.834 31.334 87.501 32.001z" />
    <glyph glyph-name="semicolon" unicode=";" horiz-adv-x="394" 
d="M481 943l4 -0.000976562c18 0 33.833 -3.5 47.5 -10.5s24 -16 31 -27s12.167 -22.167 15.5 -33.5s5 -22.666 5 -33.999v-8c-6.66699 -73.333 -48 -110 -124 -110c-34 0 -59.333 10.833 -76 32.5s-25 45.5 -25 71.5c0 38 11.833 67.167 35.5 87.5s52.5 30.833 86.5 31.5z
M117 -44.001c-16.667 18.667 -27.332 34.502 -31.999 47.502s-7 31.5 -7 55.5c0 37.333 11.667 66.5 35 87.5s51.333 31.5 84 31.5h4c31.333 -0.666992 57 -14.167 77 -40.5s30.667 -51.833 32 -76.5v-9c0 -24 -5.33301 -54 -16 -90s-24.667 -70.667 -42 -104
c-14.667 -28.667 -32.334 -51.834 -53.001 -69.501s-39 -29 -55 -34s-31.333 -7.5 -46 -7.5c-4.66699 0 -9.33398 0.666992 -14.001 2c-5.33301 0 -10.166 2.33301 -14.499 7s-6.5 10 -6.5 16c0 8.66699 6.33301 16.667 19 24c11.333 6.66699 23.333 21.167 36 43.5
s19 44.166 19 65.499c0 20 -6.66699 37 -20 51z" />
    <glyph glyph-name="less" unicode="&#x3c;" horiz-adv-x="833" 
d="M271 609l600.001 341.999c6.66699 3.33301 12.667 5 18 5c14 0 26.667 -7.33301 38 -22s17 -30.667 17 -48c0 -21.333 -9.33301 -36.666 -28 -45.999l-497 -292l301 -296c8 -10 12 -21 12 -33c0 -17.333 -7.33301 -32.833 -22 -46.5s-31.334 -20.5 -50.001 -20.5
c-16.667 0 -31 6.33301 -43 19l-364 363c-15.333 14.667 -23 27 -23 37c0 12 13.667 24.667 41 38z" />
    <glyph glyph-name="equal" unicode="=" horiz-adv-x="1054" 
d="M926 632l-590 -1c-24.667 0 -44.667 5 -60 15s-23 29 -23 57c0 3.33301 0.333008 5.66602 1 6.99902c0 22.667 6.66699 38.334 20 47.001s31.333 13 54 13c13.333 0 33.666 -1.66699 60.999 -5s46.333 -5 57 -5c2.66699 0 5 0.333008 7 1l533 1
c23.333 0 40.5 -5.33301 51.5 -16s16.5 -25 16.5 -43c0 -16 -4 -34 -12 -54c-6.66699 -18.667 -22 -28 -46 -28c-9.33301 0 -22.166 1.83301 -38.499 5.5s-26.833 5.5 -31.5 5.5zM834 391l-591.999 -1.00098c-24.667 0 -44.5 5 -59.5 15s-22.5 29.333 -22.5 58v7
c1.33301 22.667 8.5 38.334 21.5 47.001s30.833 13 53.5 13c13.333 0 33.5 -1.83301 60.5 -5.5s46.167 -5.5 57.5 -5.5h8l533 2c44.667 0 67 -19.333 67 -58c0 -17.333 -4.33301 -36 -13 -56c-6.66699 -18 -21.667 -27 -45 -27c-10 0 -23.333 1.83301 -40 5.5
s-26.334 5.5 -29.001 5.5z" />
    <glyph glyph-name="greater" unicode="&#x3e;" horiz-adv-x="870" 
d="M806 526l-649.001 -368c-4.66699 -2.66699 -10 -4 -16 -4c-13.333 0 -24.666 6.83301 -33.999 20.5s-14 28.834 -14 45.501c0 26 10 44 30 54l544 317l-311 275c-7.33301 10 -11 21 -11 33c0 17.333 7.5 33 22.5 47s31.5 21 49.5 21c16 0 30.333 -6.66699 43 -20
l364 -346c14.667 -14.667 22 -27 22 -37c0 -12.667 -13.333 -25.334 -40 -38.001z" />
    <glyph glyph-name="question" unicode="?" horiz-adv-x="866" 
d="M364 172l2.99805 0.000976562c18 0 33.333 -3 46 -9s22.334 -14.167 29.001 -24.5s11.334 -20.666 14.001 -30.999s4 -20.833 4 -31.5c0 -2 -0.166992 -4.16699 -0.5 -6.5s-0.5 -3.83301 -0.5 -4.5c-2.66699 -36 -13.167 -62.333 -31.5 -79s-46.5 -25 -84.5 -25
c-34 0 -58.333 9.66699 -73 29s-22 42.333 -22 69c0 37.333 10.667 65.166 32 83.499s49.333 28.166 84 29.499zM597.998 531.001c-10 -27.333 -27.498 -67.168 -52.498 -119.501s-42.833 -84.833 -53.5 -97.5c-10.667 -13.333 -19.834 -21.833 -27.501 -25.5
s-21.167 -5.5 -40.5 -5.5c-22 0 -33 14 -33 42c0 29.333 11 70.333 33 123l22 56c15.333 37.333 29.666 76.333 42.999 117c15.333 37.333 37.833 74.5 67.5 111.5s61 70.333 94 100l97.5 86c32 27.667 60.5 55.5 85.5 83.5s41.5 54 49.5 78c4 9.33301 6 20 6 32
c0 28.667 -9 54.167 -27 76.5s-44 33.833 -78 34.5h-4c-48 0 -85.833 -3.66699 -113.5 -11s-46.667 -16.5 -57 -27.5s-17.5 -25.5 -21.5 -43.5c-6 -27.333 -16.5 -46.833 -31.5 -58.5s-40.167 -18.5 -75.5 -20.5c-1.33301 -0.666992 -3.33301 -1 -6 -1c-28 0 -42 12 -42 36
c0 9.33301 3 24.333 9 45c25.333 68 66.666 120 123.999 156s137.333 54 240 54c38.667 -0.666992 72.834 -7.5 102.501 -20.5s52.5 -30.333 68.5 -52s27.833 -44.167 35.5 -67.5s11.5 -47.666 11.5 -72.999s-3.66699 -48.666 -11 -69.999
c-16 -39.333 -38.5 -77.5 -67.5 -114.5s-59.5 -70.667 -91.5 -101l-96 -91.5c-32 -30.667 -62.667 -65.834 -92 -105.501s-52 -81.5 -68 -125.5z" />
    <glyph glyph-name="at" unicode="@" horiz-adv-x="1220" 
d="M791 604c39.333 104 59.001 191.333 59.001 262c0 54.667 -12.333 82 -37 82h-1c-31.333 -0.666992 -61.5 -22.167 -90.5 -64.5s-61.5 -112.5 -97.5 -210.5c-46.667 -126 -70 -217.667 -70 -275c0 -37.333 10.333 -56 31 -56h5c15.333 0 29.666 2 42.999 6
s25 9.16699 35 15.5s19.5 15 28.5 26s16.5 21.667 22.5 32s12.5 23.833 19.5 40.5s12.667 31.167 17 43.5l17 48.5c7 20 13.167 36.667 18.5 50zM635.001 70c18 0 32.999 -7.00098 44.999 -21.001s18 -31.333 18 -52c0 -13.333 -3 -26.666 -9 -39.999
c-6.66699 -18.667 -19.334 -28 -38.001 -28c-7.33301 0 -19.666 1.83301 -36.999 5.5s-30.333 5.5 -39 5.5c-61.333 0.666992 -116 8.16699 -164 22.5s-90 36.166 -126 65.499s-63.5 68 -82.5 116s-28.5 104.333 -28.5 169c0 110 29 244 87 402
c32.667 89.333 65.167 167.166 97.5 233.499s66 123 101 170s70 85.667 105 116s74 54.166 117 71.499s86.333 29.333 130 36s93.834 10 150.501 10c117.333 0 204.5 -26.5 261.5 -79.5s85.5 -125.5 85.5 -217.5c0 -101.333 -30 -232.666 -90 -393.999
c-30 -80 -56.167 -146.5 -78.5 -199.5s-44.333 -99.667 -66 -140s-42.834 -71.333 -63.501 -93s-42 -37.667 -64 -48s-46.333 -15.5 -73 -15.5h-7c-12.667 0 -24.167 1.83301 -34.5 5.5s-18.5 7.5 -24.5 11.5s-11.833 10.5 -17.5 19.5s-9.66699 15.833 -12 20.5
s-5.66602 12.834 -9.99902 24.501s-7.16602 19.167 -8.49902 22.5l-68 -29c-18 -8 -39 -14.333 -63 -19s-52.667 -7.66699 -86 -9h-5c-39.333 0 -68.833 14.5 -88.5 43.5s-29.5 70.167 -29.5 123.5c0 81.333 21.333 184 64 308c46.667 134 101.167 233.667 163.5 299
s125.5 98 189.5 98h1c22 0 40.667 -2.66699 56 -8s26.166 -12.666 32.499 -21.999s10.5 -17.5 12.5 -24.5s3 -14.167 3 -21.5l-1 -11c16 42 43 63 81 63c50 0 75 -12.667 75 -38c0 -6.66699 -1.66699 -14.667 -5 -24c-7.33301 -24 -12.666 -40.333 -15.999 -49
s-7.33301 -16.834 -12 -24.501s-9 -16.167 -13 -25.5l-170 -471c-8 -21.333 -12 -41.666 -12 -60.999c0 -24.667 7.66699 -37 23 -37c20.667 0 41.5 16.5 62.5 49.5s41 75.167 60 126.5l65.5 171c61.333 159.333 92 276.333 92 351c0 62.667 -19.167 110.667 -57.5 144
s-101.833 50 -190.5 50h-1c-122 0 -222.333 -38.833 -301 -116.5s-150.334 -206.834 -215.001 -387.501c-58 -162 -87 -290 -87 -384c0 -87.333 25 -153.166 75 -197.499s130 -66.5 240 -66.5z" />
    <glyph glyph-name="A" unicode="A" horiz-adv-x="1035" 
d="M461 467l-249.997 -388.999c-2 -4 -5.5 -9.5 -10.5 -16.5s-12.333 -15.667 -22 -26s-22.334 -19 -38.001 -26s-32.167 -10.5 -49.5 -10.5h-3c-31.333 0 -47 15 -47 45c0 2.66699 1.33301 11.334 4 26.001l793 1240c9.33301 15.333 19 26.166 29 32.499s22 9.5 36 9.5h74
c22.667 0 34 -12.667 34 -38v-11l-105 -1205c-0.666992 -10.667 -0.333984 -20.834 0.999023 -30.501s1.66602 -18.5 0.999023 -26.5c-2 -13.333 -9 -23.5 -21 -30.5s-25 -10.5 -39 -10.5c-56 -0 -84 28.333 -84 85c0 4.66699 0.333008 8 1 10l30 373zM857.003 1097
l-326 -519l271 1z" />
    <glyph glyph-name="B" unicode="B" horiz-adv-x="830" 
d="M502 907c9.33301 0 21.001 -0.166992 35.001 -0.5s30.667 -0.5 50 -0.5c54.667 0 97.667 13.833 129 41.5s56.666 67.167 75.999 118.5c9.33301 24.667 14 47.667 14 69c0 58 -38 87 -114 87c-47.333 0 -71 0.333008 -71 1h-2zM294.001 337
c-33.333 -92.667 -49.999 -149.998 -49.999 -171.998c0 -14.667 4.5 -24.334 13.5 -29.001s23.833 -7 44.5 -7c6 0 16.5 0.166992 31.5 0.5s27.167 0.5 36.5 0.5c21.333 0 39.833 1.66699 55.5 5s34.167 11.166 55.5 23.499s41.166 29.666 59.499 51.999
s38.5 53.833 60.5 94.5s43.667 89.667 65 147c26.667 74 40 135.333 40 184c0 24 -3.33301 44.833 -10 62.5s-15.167 31.5 -25.5 41.5s-22.833 17.833 -37.5 23.5s-28.5 9.33398 -41.5 11.001s-27.167 2.5 -42.5 2.5h-95zM150.002 0.00195312
c-29.333 0 -52.667 5.5 -70 16.5s-26 27.5 -26 49.5c0 12 2.66699 26 8 42l437 1185c14.667 39.333 52.667 59 114 59h123c66.667 0 118.834 -20.667 156.501 -62s56.5 -91 56.5 -149c0 -24.667 -4 -49.667 -12 -75c-49.333 -144.667 -115 -223.667 -197 -237
c12 -5.33301 24.667 -12.833 38 -22.5s25.5 -19.834 36.5 -30.501s20 -26.167 27 -46.5s10.5 -44.166 10.5 -71.499c0 -60.667 -18.333 -142 -55 -244c-17.333 -48 -34 -90.5 -50 -127.5s-32.333 -69.833 -49 -98.5s-32.5 -53.167 -47.5 -73.5s-31.833 -37.5 -50.5 -51.5
s-36.334 -25 -53.001 -33s-36.667 -14.333 -60 -19s-45.333 -7.66699 -66 -9s-46 -2 -76 -2h-195z" />
    <glyph glyph-name="C" unicode="C" horiz-adv-x="834" 
d="M882 1119c5.33301 14.667 8.00781 26.9961 8.00781 36.9961c0 44 -33.333 66 -100 66h-30c-14.667 0 -26.834 -0.833008 -36.501 -2.5s-21.334 -6.16699 -35.001 -13.5s-26.334 -17.666 -38.001 -30.999s-25.5 -32 -41.5 -56s-32.333 -53.667 -49 -89
s-35.5 -78.666 -56.5 -129.999s-43.833 -110.333 -68.5 -177c-56.667 -152.667 -96.834 -267.334 -120.501 -344.001s-35.5 -134.667 -35.5 -174c0 -26 5.5 -45 16.5 -57s28.167 -18 51.5 -18h18h18c21.333 0 39.166 1 53.499 3s30.166 6.33301 47.499 13
s32.5 17.834 45.5 33.501s23.833 35.834 32.5 60.501c16 41.333 24.167 62 24.5 62s-0.666992 -3.66699 -3 -11s-3.16602 -11 -2.49902 -11s1 0.666992 1 2c4.66699 10 7.16699 19.333 7.5 28s1.16602 15.667 2.49902 21c8.66699 22.667 18.167 37.667 28.5 45
s26.833 11.666 49.5 12.999h4c18 0 33.333 -5.33301 46 -16s19 -25.334 19 -44.001c0 -10.667 -2.66699 -23 -8 -37l-2 -6l1 7l1 6c-2 0 -11 -22.667 -27 -68c-10 -28 -20.667 -52 -32 -72s-26.833 -40.667 -46.5 -62s-42.334 -38.666 -68.001 -51.999
s-58.167 -24.166 -97.5 -32.499s-84.333 -12.5 -135 -12.5c-64.667 0 -112 13.5 -142 40.5s-45 69.833 -45 128.5c0 55.333 12.5 127.5 37.5 216.5s63.5 203.5 115.5 343.5l54.5 145.5l48 120.5c17 41.333 31.667 74.833 44 100.5s26.333 52 42 79s30 48.167 43 63.5
s27.833 30.5 44.5 45.5s33 26.167 49 33.5s34.667 14.166 56 20.499s43 10.333 65 12s47 2.5 75 2.5c84 0 143.833 -13.667 179.5 -41s53.5 -63.333 53.5 -108c0 -25.333 -5.33301 -53.666 -16 -84.999c-10.667 -28.667 -23.334 -49.167 -38.001 -61.5s-39 -18.5 -73 -18.5
c-26 0 -39 16.333 -39 49c0 12.667 1 23.334 3 32.001z" />
    <glyph glyph-name="D" unicode="D" horiz-adv-x="834" 
d="M487 1259c6 25.333 18.165 47.165 36.498 65.498s36.5 27.5 54.5 27.5h189c84.667 0 146 -14.5 184 -43.5s57 -76.5 57 -142.5c0 -51.333 -10.667 -116.333 -32 -195s-54 -179.334 -98 -302.001c-34.667 -97.333 -66.334 -180.666 -95.001 -249.999
s-56.5 -129.166 -83.5 -179.499s-52.167 -90.666 -75.5 -120.999s-48.666 -54.5 -75.999 -72.5s-54.166 -30 -80.499 -36s-56.833 -9 -91.5 -9c-33.333 0 -83.666 -0.166992 -150.999 -0.5s-114.333 -0.5 -141 -0.5c-12.667 -0 -23.167 4.83301 -31.5 14.5
s-12.5 19.5 -12.5 29.5c0 2.66699 0.333008 5.66699 1 9zM217.998 136.999c-0.666992 -1.33301 10 -2.83301 32 -4.5s46.333 -2.5 73 -2.5c24 0 41.667 0.333008 53 1h1c26.667 0 52 7.5 76 22.5s46.833 35.833 68.5 62.5s44.334 63.167 68.001 109.5
s46.5 96.166 68.5 149.499s47.333 119 76 197c76.667 210 115 354.667 115 434c0 40 -8.33301 69.333 -25 88s-42.334 28 -77.001 28h-5c-4 0 -10 -0.333008 -18 -1c-22 -0.666992 -37.333 -1.16699 -46 -1.5s-19.167 -2.16602 -31.5 -5.49902s-20.5 -7 -24.5 -11
s-9.83301 -11.833 -17.5 -23.5s-13.667 -23.5 -18 -35.5s-10.5 -30.333 -18.5 -55z" />
    <glyph glyph-name="E" unicode="E" horiz-adv-x="820" 
d="M215 130c0 1.33301 142.666 2.00098 427.999 2.00098c20 0 35.333 -5.83301 46 -17.5s16 -26.167 16 -43.5c0 -18.667 -6.16699 -35.167 -18.5 -49.5s-28.833 -21.5 -49.5 -21.5h-1h-538c-38 0 -57 13.333 -57 40c0 9.33301 2.33301 19.333 7 30l458 1242
c10 26.667 32.667 40 68 40h459c45.333 0 68 -19.333 68 -58c0 -16.667 -4 -35.334 -12 -56.001c-7.33301 -18 -22.666 -27 -45.999 -27c-10 0 -23.333 1.83301 -40 5.5s-26.667 5.83398 -30 6.50098l-355 -1l-163 -444h281h1c20 0 35.333 -5.83301 46 -17.5
s16 -25.834 16 -42.501c0 -18 -6.16699 -34.333 -18.5 -49s-28.833 -22 -49.5 -22h-2h-324z" />
    <glyph glyph-name="F" unicode="F" horiz-adv-x="820" 
d="M218 146l-17.5 -49.498c-4.33301 -11.667 -9.66602 -24 -15.999 -37s-12.333 -22.5 -18 -28.5s-12.667 -11.833 -21 -17.5s-17.833 -9.33398 -28.5 -11.001s-23.334 -2.5 -38.001 -2.5c-24 0 -36 12.667 -36 38c0 19.333 8.33301 50 25 92l438 1182
c10 26.667 32.667 40 68 40h459c47.333 0 71 -14.333 71 -43c0 -12.667 -3.66699 -27.667 -11 -45c-10 -28 -40.667 -42 -92 -42c-14 0 -23.333 0.333008 -28 1l-355 -1l-163 -444h281h1c20 0 35.333 -5.83301 46 -17.5s16 -25.834 16 -42.501
c0 -18 -6.16699 -34.333 -18.5 -49s-28.833 -22 -49.5 -22h-2h-324z" />
    <glyph glyph-name="G" unicode="G" horiz-adv-x="859" 
d="M739 596c6 -2.66699 14.3291 -4.6748 24.9961 -6.00781s19.667 -3.66602 27 -6.99902s13.333 -9 18 -17c13.333 -20 20 -39.333 20 -58c0 -10 -2.16699 -22.833 -6.5 -38.5s-8.66602 -29.5 -12.999 -41.5s-12.833 -34.333 -25.5 -67
c-21.333 -55.333 -40.333 -101 -57 -137s-35.167 -68.167 -55.5 -96.5s-39.833 -50.166 -58.5 -65.499s-42.334 -28 -71.001 -38s-58.167 -16.5 -88.5 -19.5s-68.833 -4.5 -115.5 -4.5c-66.667 0 -115.5 14.333 -146.5 43s-46.5 74 -46.5 136c0 56 12 128.167 36 216.5
s60.667 199.5 110 333.5l67.5 178c19 48 38.833 94.833 59.5 140.5s39.167 82.5 55.5 110.5s34.666 54.5 54.999 79.5s40 44 59 57s41.167 24.333 66.5 34s51.333 16 78 19s57.667 4.5 93 4.5c86.667 0 148.834 -14.5 186.501 -43.5s56.5 -66.833 56.5 -113.5
c0 -26 -5 -51.667 -15 -77c-9.33301 -28.667 -21.5 -49.167 -36.5 -61.5s-39.5 -18.5 -73.5 -18.5c-26.667 0 -40 16.333 -40 49c0 10.667 1.66699 21.334 5 32.001c3.33301 10 5 20 5 30c0 21.333 -8.83301 38.833 -26.5 52.5s-45.5 20.5 -83.5 20.5h-31
c-14.667 0 -27.167 -0.833008 -37.5 -2.5s-22.666 -6.16699 -36.999 -13.5s-27.666 -17.666 -39.999 -30.999s-26.833 -32.166 -43.5 -56.499s-33.667 -54 -51 -89s-36.833 -78.167 -58.5 -129.5s-44.834 -110.333 -69.501 -177
c-51.333 -138 -88.833 -246.833 -112.5 -326.5s-35.5 -140.5 -35.5 -182.5c0 -29.333 6 -50.666 18 -63.999s30.667 -20 56 -20c4.66699 0 12.334 -0.166992 23.001 -0.5s18.667 -0.5 24 -0.5c16.667 0 31.334 1.16699 44.001 3.5s27.5 8.33301 44.5 18
s33.167 22.834 48.5 39.501s32 40.167 50 70.5s36 66.833 54 109.5c8 20 12 37.667 12 53c0 14.667 -3.66699 25.667 -11 33s-17 11 -29 11c-1.33301 0 -6.66602 -0.666992 -15.999 -2s-17.333 -2 -24 -2c-32 0 -48 17.667 -48 53
c1.33301 32.667 10.666 54.334 27.999 65.001s42.333 16 75 16c8 0 20.167 -0.333008 36.5 -1s28.833 -1 37.5 -1c12.667 0 22.334 0.333008 29.001 1z" />
    <glyph glyph-name="H" unicode="H" horiz-adv-x="887" 
d="M1108 1240l-406 -1111l-28 -65c-4.66699 -12.667 -10 -23.167 -16 -31.5s-11.833 -14.833 -17.5 -19.5s-14.667 -8 -27 -10s-23 -3.16699 -32 -3.5s-24.167 -0.5 -45.5 -0.5c-28 0 -38 11 -30 33c5.33301 13.333 12.833 27.666 22.5 42.999s18.5 33.333 26.5 54
c13.333 32.667 48.166 127 104.499 283s84.5 234.333 84.5 235h-338l-209 -568c-14.667 -37.333 -26.667 -59.833 -36 -67.5s-29.333 -11.5 -60 -11.5h-15c-32.667 0 -49 10.333 -49 31c0 4.66699 0.666992 9.66699 2 15s3.33301 12 6 20s4.33398 12.667 5.00098 14l206 552
c136.667 367.333 211.667 571.333 225 612c18 48.667 33 79.167 45 91.5s35 18.5 69 18.5c30.667 0 46 -15 46 -45c0 -15.333 -4.66699 -37 -14 -65l-174 -466h339l54.5 151l59 162.5l57.5 148.5c8 20 14.833 38.167 20.5 54.5s15 29.666 28 39.999s30.167 15.5 51.5 15.5
c39.333 0 59 -15.667 59 -47c0 -18 -4.66699 -39 -14 -63z" />
    <glyph glyph-name="I" unicode="I" horiz-adv-x="442" 
d="M617 1214l-397.002 -1069c-5.33301 -15.333 -10.333 -34.333 -15 -57s-10 -42.334 -16 -59.001c-4 -9.33301 -12.667 -16.333 -26 -21s-25.333 -7.33398 -36 -8.00098s-25.667 -1 -45 -1c-24 0 -36 12.667 -36 38c0 20.667 8.33301 51.334 25 92.001l187 503
c124.667 335.333 193.667 523.333 207 564c2 11.333 3.66699 22.166 5 32.499s2.83301 19.333 4.5 27s5.83398 18.167 12.501 31.5c7.33301 17.333 20.333 32 39 44s37.334 18 56.001 18c20.667 0 36 -7.33301 46 -22c6 -8.66699 9 -19 9 -31
c0 -10 -3.16699 -25.667 -9.5 -47s-9.83301 -33 -10.5 -35z" />
    <glyph glyph-name="J" unicode="J" horiz-adv-x="861" 
d="M1019 1222l-354.998 -962.999c-6.66699 -18 -12.167 -32.333 -16.5 -43s-10.333 -24.334 -18 -41.001s-14.834 -30.167 -21.501 -40.5s-15.5 -22.333 -26.5 -36s-22.333 -24.667 -34 -33s-25.5 -17.166 -41.5 -26.499s-33.167 -16.5 -51.5 -21.5
s-39.333 -9.16699 -63 -12.5s-48.834 -5 -75.501 -5h-1c-39.333 0 -74 5.66699 -104 17s-53 26.333 -69 45s-28 38 -36 58s-12 40 -12 60c0 16 2 29.333 6 40c2.66699 8.66699 5.83398 17 9.50098 25s7.5 15.333 11.5 22s9.5 12 16.5 16s15.5 6 25.5 6h2
c14 -0.666992 25.833 -5.5 35.5 -14.5s14.5 -21.5 14.5 -37.5c0 -24 2 -43 6 -57s11.5 -24.667 22.5 -32s23.667 -12.166 38 -14.499s34.166 -3.5 59.499 -3.5c50.667 0 89.5 11.667 116.5 35s50.167 61 69.5 113l340 926c2.66699 11.333 4.5 22.166 5.5 32.499
s2.5 19.333 4.5 27s6 18.167 12 31.5c7.33301 17.333 20.333 32 39 44s37.667 18 57 18c20 0 35 -7.33301 45 -22c6 -8.66699 9 -18.667 9 -30c0 -10.667 -3.16699 -26.834 -9.5 -48.501s-9.83301 -33.167 -10.5 -34.5z" />
    <glyph glyph-name="K" unicode="K" horiz-adv-x="803" 
d="M605 367c-5.33301 47.333 -11.665 91.8369 -18.998 133.504s-13.5 74.334 -18.5 98.001l-28.5 130.5l-124 -56l-197 -527c-5.33301 -14.667 -10.5 -33.334 -15.5 -56.001s-10.833 -42.667 -17.5 -60c-3.33301 -9.33301 -11.666 -16.333 -24.999 -21
s-25.333 -7.33398 -36 -8.00098s-25.667 -1 -45 -1c-24 0 -36 12.667 -36 38c0 19.333 8.33301 50 25 92l412 1112c18.667 48.667 34 79.167 46 91.5s34.667 18.5 68 18.5c30.667 0 46 -15 46 -45c0 -18 -4.66699 -39.667 -14 -65l-152 -411
c87.333 43.333 168.666 100.666 243.999 171.999s140.666 151 195.999 239l26.5 40.5c5.66699 8.33301 14 19.166 25 32.499s21.5 22.833 31.5 28.5s20.667 8.5 32 8.5c40 0 60 -15.667 60 -47c0 -16 -5 -37 -15 -63c-4 -10 -11.333 -23 -22 -39l-16 -24
c-34 -51.333 -90.333 -119 -169 -203s-144.334 -144.333 -197.001 -181l14 -69c9.33301 -46 20 -104.333 32 -175s20.333 -131.334 25 -182.001c5.33301 -52.667 9 -92.834 11 -120.501s3.16699 -52.167 3.5 -73.5s0.833008 -49.333 1.5 -84c0.666992 0 1 -6 1 -18
c0 -24 -3.66699 -41.333 -11 -52c-12 -16.667 -31.333 -25 -58 -25c-31.333 4.66699 -53 26.334 -65 65.001l-4 106c-3.33301 71.333 -8.33301 138 -15 200z" />
    <glyph glyph-name="L" unicode="L" horiz-adv-x="820" 
d="M615 1214l-400 -1084h428c20 0 35.333 -5.66699 46 -17s16 -25.333 16 -42c0 -18.667 -6 -35.167 -18 -49.5s-28.667 -21.5 -50 -21.5h-1h-538c-38 0 -57 13.333 -57 40c0 9.33301 2.33301 19.333 7 30l415 1126c3.33301 13.333 5.33301 27.5 6 42.5
s4.33398 31.167 11.001 48.5c6 17.333 18.667 32.166 38 44.499s39 18.5 59 18.5c22 0 38.333 -7.66699 49 -23c6.66699 -8.66699 10 -19 10 -31c0 -10 -3.33301 -25.667 -10 -47s-10.334 -33 -11.001 -35z" />
    <glyph glyph-name="M" unicode="M" horiz-adv-x="1136" 
d="M569 1089l-350.004 -942.999c-5.33301 -14.667 -10.5 -33.334 -15.5 -56.001s-10.5 -42.667 -16.5 -60c-3.33301 -9.33301 -11.666 -16.333 -24.999 -21s-25.333 -7.33398 -36 -8.00098s-25.667 -1 -45 -1c-24 0 -36 12.667 -36 38c0 20.667 8.66699 51.334 26 92.001
l421 1145c10.667 28.667 25.167 49.834 43.5 63.501s37.166 20.5 56.499 20.5c12.667 0 23.834 -2.66699 33.501 -8s15.834 -12.333 18.501 -21l101 -538l503 535c28.667 22 58.334 33 89.001 33c28 0 42 -11 42 -33c0 -8.66699 -1.33301 -17 -4 -25l-425 -1156
c-4.66699 -14.667 -9.5 -33.334 -14.5 -56.001s-10.833 -42.667 -17.5 -60c-3.33301 -9.33301 -11.666 -16.333 -24.999 -21s-25.5 -7.33398 -36.5 -8.00098s-25.833 -1 -44.5 -1c-24 0 -36 12.667 -36 38c0 20.667 8.33301 51.334 25 92.001l328 894l-396 -415
c-11.333 -7.33301 -24.333 -11 -39 -11c-23.333 0 -37.333 6.66699 -42 20z" />
    <glyph glyph-name="N" unicode="N" horiz-adv-x="864" 
d="M1067 1179l-418.999 -1133c-12.667 -17.333 -22.834 -29.166 -30.501 -35.499s-16.5 -9.5 -26.5 -9.5h-59c-12 0 -20.333 3.5 -25 10.5s-7.33398 19.167 -8.00098 36.5l27 925l-307 -827c-5.33301 -14.667 -10.5 -33.334 -15.5 -56.001s-10.5 -42.667 -16.5 -60
c-3.33301 -9.33301 -11.666 -16.333 -24.999 -21s-25.333 -7.33398 -36 -8.00098s-25.667 -1 -45 -1c-24 0 -36 12.667 -36 38c0 20.667 8.66699 51.334 26 92.001l421 1145c10.667 28.667 25.167 49.834 43.5 63.501s37.166 20.5 56.499 20.5
c12.667 0 23.834 -2.66699 33.501 -8s15.834 -12.333 18.501 -21l-12 -961l303 853l18 43c5.33301 13.333 11 25.333 17 36s12.5 19.834 19.5 27.501s15.667 13.5 26 17.5s22.166 6 35.499 6c26.667 0 46.167 -3.16699 58.5 -9.5s18.5 -16.5 18.5 -30.5
c0 -5.33301 -1.33301 -12.666 -4 -21.999c-7.33301 -23.333 -14 -40.833 -20 -52.5s-12.333 -21.834 -19 -30.501s-12.667 -18 -18 -28z" />
    <glyph glyph-name="O" unicode="O" horiz-adv-x="840" 
d="M778 1222c-40.667 0 -78.4971 -16.6689 -113.497 -50.002s-71.167 -87.166 -108.5 -161.499s-80.333 -177.166 -129 -308.499c-46 -124 -80 -224.667 -102 -302s-33 -137.666 -33 -180.999c0 -59.333 22.667 -89 68 -89c25.333 0 49.666 5.83301 72.999 17.5
s46.166 30.167 68.499 55.5s43.333 53.5 63 84.5s40.667 70.5 63 118.5s43.166 95.667 62.499 143s41.333 104.333 66 171c70.667 187.333 106 319.666 106 396.999c0 70 -28 105 -84 105zM279.003 697.998c80.667 218.667 138.666 362.336 173.999 431.003
c46 89.333 96 149.666 150 180.999c49.333 28 119.333 42 210 42c34 0 62.833 -2.5 86.5 -7.5s45 -13.667 64 -26s33.167 -30 42.5 -53s14 -51.833 14 -86.5c0 -96.667 -40 -253.667 -120 -471l-58.5 -155.5l-52 -131c-18.333 -45 -34.666 -82.333 -48.999 -112
s-30 -59.834 -47 -90.501s-33 -55.334 -48 -74.001s-31.667 -37.167 -50 -55.5s-36.5 -32.333 -54.5 -42s-38.167 -18.5 -60.5 -26.5s-45.333 -13.5 -69 -16.5s-50.167 -4.5 -79.5 -4.5c-68 0 -117.667 12.667 -149 38s-47 68 -47 128c0 52 11.667 120.5 35 205.5
s59.333 193.833 108 326.5z" />
    <glyph glyph-name="P" unicode="P" horiz-adv-x="834" 
d="M304 369l-86.0029 -223c-5.33301 -14.667 -10.5 -33.334 -15.5 -56.001s-10.833 -42.667 -17.5 -60c-3.33301 -9.33301 -11.666 -16.333 -24.999 -21s-25.333 -7.33398 -36 -8.00098s-25.667 -1 -45 -1c-24 0 -36 12.667 -36 38c0 19.333 8.33301 50 25 92l428 1155
c10.667 44.667 38 67 82 67h240c73.333 0 127 -11.333 161 -34s51 -64 51 -124c0 -76.667 -31 -198.667 -93 -366l-49.5 -129c-15 -38 -29.833 -72.667 -44.5 -104s-28 -58.666 -40 -81.999s-24.833 -44.166 -38.5 -62.499s-26 -33.666 -37 -45.999s-24 -22.833 -39 -31.5
s-28.333 -15.334 -40 -20.001s-26.5 -8.16699 -44.5 -10.5s-34.167 -3.83301 -48.5 -4.5s-33.166 -1 -56.499 -1c-74 0 -120.667 1.5 -140 4.5s-37.666 12.167 -54.999 27.5zM467.997 815c-30.667 -83.333 -52.332 -145 -64.999 -185s-19 -71.667 -19 -95
c0 -26 8.83301 -43.833 26.5 -53.5s47.167 -14.5 88.5 -14.5c46.667 0 79.667 5 99 15c37.333 18.667 75.666 70 114.999 154c22.667 48.667 49 113.667 79 195c56.667 154 85 257.667 85 311c0 10 -0.666992 18.833 -2 26.5s-4 14.167 -8 19.5l-10.5 13.5
c-3 3.66699 -8.33301 6.83398 -16 9.50098s-14 4.66699 -19 6s-13 2.33301 -24 3s-19.5 1 -25.5 1s-16 0.333008 -30 1h-23c-38.667 0 -66 -6.33301 -82 -19c-21.333 -17.333 -47 -64 -77 -140c-7.33301 -18.667 -38 -101.334 -92 -248.001z" />
    <glyph glyph-name="Q" unicode="Q" horiz-adv-x="840" 
d="M279 698c80.667 218.667 138.666 362.332 173.999 430.999c46 89.333 96 149.666 150 180.999c49.333 28 119.333 42 210 42c34 0 62.833 -2.5 86.5 -7.5s45 -13.667 64 -26s33.167 -30 42.5 -53s14 -51.833 14 -86.5c0 -96.667 -40 -253.667 -120 -471
c-58 -158 -105.833 -279.5 -143.5 -364.5s-75.5 -152.5 -113.5 -202.5c42 -49.333 67 -79.666 75 -90.999c4.66699 -9.33301 7 -17.666 7 -24.999c0 -13.333 -6 -28.333 -18 -45s-31 -25 -57 -25c-31.333 4.66699 -53.333 26 -66 64c-4 8 -13.667 20.333 -29 37
c-55.333 -37.333 -129.666 -56 -222.999 -56c-68 0 -117.667 12.667 -149 38s-47 68 -47 128c0 52 11.667 120.5 35 205.5s59.333 193.833 108 326.5zM777.999 1222c-40.667 0 -78.5 -16.6699 -113.5 -50.0029s-71.167 -87.166 -108.5 -161.499
s-80.333 -177.166 -129 -308.499c-46 -124 -80 -224.667 -102 -302s-33 -137.666 -33 -180.999c0 -59.333 22.667 -89 68 -89c33.333 0 65.666 11 96.999 33c-47.333 52.667 -71.666 86.667 -72.999 102c-1.33301 8 -2 15.333 -2 22c0 40.667 23.333 61 70 61
c21.333 0 37.833 -4.16699 49.5 -12.5s20.5 -24.833 26.5 -49.5c1.33301 -4 7 -13.667 17 -29c32 48 64.5 108.833 97.5 182.5s70.833 167.167 113.5 280.5c70.667 186.667 106 319 106 397c0 70 -28 105 -84 105z" />
    <glyph glyph-name="R" unicode="R" horiz-adv-x="834" 
d="M528 130c11.333 66.667 17.001 133.668 17.001 201.001c0 31.333 -0.333008 57 -1 77s-2.16699 43.5 -4.5 70.5s-6.5 47.667 -12.5 62s-13.667 21.5 -23 21.5c-52.667 3.33301 -95.334 8 -128.001 14l-158 -430c-6 -15.333 -11.333 -34.333 -16 -57
s-10.334 -42.334 -17.001 -59.001c-3.33301 -9.33301 -11.666 -16.333 -24.999 -21s-25.333 -7.33398 -36 -8.00098s-25.667 -1 -45 -1c-24 0 -36 12.667 -36 38c0 19.333 8.33301 50 25 92l428 1155c6 23.333 18.5 40.333 37.5 51s39.5 16 61.5 16h223
c73.333 0 126.666 -12.5 159.999 -37.5s50 -66.5 50 -124.5c0 -34 -4.33301 -70.167 -13 -108.5s-23.667 -90.166 -45 -155.499c-22 -65.333 -45.5 -121.833 -70.5 -169.5s-49.833 -84.334 -74.5 -110.001s-48.167 -44.5 -70.5 -56.5s-45.166 -18.667 -68.499 -20h-6
c5.33301 -25.333 8 -64 8 -116v-44.5v-45.5v-27.5v-27.5c0 -66.667 -3.66699 -121 -11 -163c-2 -9.33301 -3.66699 -19 -5 -29s-2.33301 -17.167 -3 -21.5s-2.16699 -10.833 -4.5 -19.5s-5.5 -18.667 -9.5 -30c-3.33301 -10.667 -8.83301 -19.5 -16.5 -26.5
s-17.667 -11.667 -30 -14s-22.5 -3.83301 -30.5 -4.5s-19 -1 -33 -1c-18.667 0 -28 13.667 -28 41c0 20.667 3.66699 50.334 11 89.001zM508.001 933.001l-85 -229l4.5 -0.5l13 -1.5c5.66699 -0.666992 12 -1.33398 19 -2.00098l25 -2.5c9.66699 -1 19.5 -1.83301 29.5 -2.5
s21 -1.16699 33 -1.5s23.667 -0.5 35 -0.5h11c16 0 28.167 0.166992 36.5 0.5s18.5 1.5 30.5 3.5s21.667 5.16699 29 9.5s16 10.333 26 18s18.667 17.167 26 28.5s15.666 25.333 24.999 42s18.833 36 28.5 58s19.834 47.667 30.501 77c17.333 52.667 29 92.834 35 120.501
s9 53.167 9 76.5c0 36.667 -9.83301 61.667 -29.5 75s-52.167 20 -97.5 20h-45c-11.333 0 -20.5 -0.166992 -27.5 -0.5s-14.5 -2 -22.5 -5s-14 -5.33301 -18 -7s-9.33301 -7 -16 -16s-11.5 -16.333 -14.5 -22s-8 -17.167 -15 -34.5s-12.667 -32 -17 -44l-21.5 -59z" />
    <glyph glyph-name="S" unicode="S" horiz-adv-x="838" 
d="M104 219c20 54.667 45.335 82.0049 76.002 82.0049c20.667 0 39 -3.33301 55 -10s24 -18 24 -34c0 -6 -1 -12 -3 -18c-3.33301 -7.33301 -5 -15.333 -5 -24c0 -18.667 8.83301 -34.667 26.5 -48s37.667 -22.833 60 -28.5s44.833 -8.5 67.5 -8.5c24 0 45.667 3 65 9
s35.666 14.167 48.999 24.5s25.666 22.666 36.999 36.999s20.833 30.166 28.5 47.499l23.5 55c8 19.333 15.333 39 22 59c10 27.333 15 55.666 15 84.999c0 36 -7.66699 74.833 -23 116.5s-34.166 81.5 -56.499 119.5l-67 113.5
c-22.333 37.667 -41.166 77.334 -56.499 119.001s-23 80.5 -23 116.5c0 29.333 5 57.333 15 84c15.333 42.667 31.666 78.667 48.999 108s34 52.5 50 69.5s34.5 30 55.5 39s40.667 14.667 59 17s41.166 3.5 68.499 3.5c8 0 21.333 -0.166992 40 -0.5s33 -0.5 43 -0.5
c28.667 0 54.667 -4.83301 78 -14.5s41.833 -22 55.5 -37s25.334 -31.167 35.001 -48.5s16.5 -33.333 20.5 -48s6.66699 -27 8 -37l3 -15c0.666992 0 1 -6 1 -18c0 -24 -4 -41.333 -12 -52c-11.333 -16 -30.333 -24 -57 -24c-30 4 -52 25.333 -66 64
c-8 20 -14.333 37.5 -19 52.5s-14.334 26.667 -29.001 35s-36.334 12.5 -65.001 12.5h-14c-20 0 -35.167 -0.5 -45.5 -1.5s-22 -3.33301 -35 -7s-23.5 -9.83398 -31.5 -18.501s-16.5 -20.334 -25.5 -35.001s-17.5 -33.334 -25.5 -56.001c-6.66699 -18 -10 -35.667 -10 -53
c0 -29.333 7.66699 -62.666 23 -99.999s33.833 -74.833 55.5 -112.5l65 -116c21.667 -39.667 40 -83 55 -130s22.5 -92.167 22.5 -135.5c0 -40.667 -6.66699 -80.667 -20 -120c-31.333 -89.333 -56.666 -150 -75.999 -182c-42 -71.333 -104.667 -117.333 -188 -138
c-44 -11.333 -95.667 -17 -155 -17c-66 0 -123.833 20.167 -173.5 60.5s-74.5 83.166 -74.5 128.499c0 10 1.66699 20 5 30z" />
    <glyph glyph-name="T" unicode="T" horiz-adv-x="890" 
d="M1085 1223l-210.999 -0.998047l-402 -1092c-2.66699 -8.66699 -7.16699 -19.834 -13.5 -33.501s-10.833 -23.834 -13.5 -30.501c-4.66699 -13.333 -9.5 -24 -14.5 -32s-10 -14.5 -15 -19.5s-12.833 -8.5 -23.5 -10.5s-20.334 -3.16699 -29.001 -3.5
s-23.334 -0.5 -44.001 -0.5c-14 0 -24.667 4 -32 12s-11 17.667 -11 29c0 7.33301 2.33301 14.166 7 20.499l19.5 27c8.33301 11.667 15.833 25.5 22.5 41.5c9.33301 23.333 34.333 89.666 75 198.999l170 461.5l158 431.5h-323c-24 0 -43.667 4.83301 -59 14.5
s-23 28.834 -23 57.501v7c1.33301 22.667 8.5 38.334 21.5 47.001s30.833 13 53.5 13c13.333 0 33.5 -1.83301 60.5 -5.5s46.167 -5.5 57.5 -5.5h8l621 2c23.333 0 40.5 -5.16699 51.5 -15.5s16.5 -24.5 16.5 -42.5c0 -16.667 -4 -35.334 -12 -56.001
c-7.33301 -18 -22.666 -27 -45.999 -27c-10 0 -23.333 1.83301 -40 5.5s-26.667 5.83398 -30 6.50098z" />
    <glyph glyph-name="U" unicode="U" horiz-adv-x="840" 
d="M615 1214l-187.996 -512l-78.5 -216c-16.333 -46.667 -31.333 -95.667 -45 -147s-20.5 -91.333 -20.5 -120s6.83301 -50.667 20.5 -66s32.5 -23 56.5 -23c25.333 0 49.666 5.83301 72.999 17.5s46.166 30.167 68.499 55.5s43.333 53.5 63 84.5s40.667 70.5 63 118.5
s43.166 95.667 62.499 143s41.333 104.333 66 171l86.5 233.5l48 138.5l44.5 130l18 43c5.33301 13.333 11 25.333 17 36s12.5 19.834 19.5 27.501s15.667 13.5 26 17.5s22.166 6 35.499 6c26.667 0 46.167 -3.16699 58.5 -9.5s18.5 -16.5 18.5 -30.5
c0 -5.33301 -1.33301 -12.666 -4 -21.999c-7.33301 -22.667 -13.833 -39.834 -19.5 -51.501s-11.667 -21.667 -18 -30s-11.833 -16.833 -16.5 -25.5c3.33301 0 -53.334 -158.333 -170.001 -475l-58.5 -155.5l-52 -131c-18.333 -45 -34.666 -82.333 -48.999 -112
s-30 -59.834 -47 -90.501s-33 -55.334 -48 -74.001s-31.667 -37.167 -50 -55.5s-36.5 -32.333 -54.5 -42s-38.167 -18.5 -60.5 -26.5s-45.333 -13.5 -69 -16.5s-50.167 -4.5 -79.5 -4.5c-68 0 -117.667 12.667 -149 38s-47 68 -47 128c0 52 11.667 120.5 35 205.5
s59.333 193.833 108 326.5l82 219c54.667 145.333 88.667 238.333 102 279c2.66699 12 4.5 23.333 5.5 34s2.33301 19.834 4 27.501s5.83398 17.5 12.501 29.5c8.66699 17.333 22.5 32 41.5 44s37.5 18 55.5 18c19.333 0 34 -7.33301 44 -22c6.66699 -8.66699 10 -19 10 -31
c0 -10 -3.33301 -25.667 -10 -47s-10.334 -33 -11.001 -35z" />
    <glyph glyph-name="V" unicode="V" horiz-adv-x="811" 
d="M341 0c-27.333 0 -41.001 12.666 -41.001 37.999l-51 1232c0 32 6 53.833 18 65.5s29 17.5 51 17.5c23.333 0 41.833 -4.16699 55.5 -12.5s20.5 -25.166 20.5 -50.499l34 -1048l592 1037c12.667 22 28.5 40 47.5 54s35.5 21 49.5 21c47.333 0 71 -10.667 71 -32
c0 -6 -1.33301 -14.333 -4 -25c-4 -10 -7 -17 -9 -21s-3.66699 -7 -5 -9l-10 -15.5c-5.33301 -8.33301 -11.666 -19.5 -18.999 -33.5l-673 -1173c-12 -16.667 -22 -28.167 -30 -34.5s-16.667 -9.5 -26 -9.5z" />
    <glyph glyph-name="W" unicode="W" horiz-adv-x="1323" 
d="M1527 1282c12 22 27.667 40 47 54s35.666 21 48.999 21c26.667 0 45.334 -2.66699 56.001 -8s16 -13.333 16 -24c0 -6.66699 -1.66699 -15.334 -5 -26.001l-9.5 -20.5c-1.66699 -3.66699 -3.16699 -6.5 -4.5 -8.5s-4.5 -7.16699 -9.5 -15.5l-19.5 -32.5l-663 -1178
c-12 -16.667 -22 -28.167 -30 -34.5s-17 -9.5 -27 -9.5h-65c-12.667 0 -21.5 3.5 -26.5 10.5s-7.5 19.5 -7.5 37.5l-13 710l-409 -717c-10 -17.333 -19.667 -28.5 -29 -33.5s-20.666 -7.5 -33.999 -7.5h-7h-51c-28 0 -42 12.667 -42 38l6 1232
c0.666992 32.667 6 54.667 16 66s25.667 17 47 17c22.667 0 40.5 -4.16699 53.5 -12.5s19.5 -25.166 19.5 -50.499l-6 -1032l413 719c13.333 22.667 32.666 34 57.999 34h56c12.667 0 22.167 -4.16699 28.5 -12.5s9.5 -17.833 9.5 -28.5l12 -709z" />
    <glyph glyph-name="X" unicode="X" horiz-adv-x="971" 
d="M971 1282c17.333 22 34.833 40 52.5 54s32.5 21 44.5 21c27.333 0 46.166 -2.66699 56.499 -8s15.5 -13.333 15.5 -24c0 -6.66699 -2 -15.334 -6 -26.001c-5.33301 -16.667 -9 -27.167 -11 -31.5s-12.333 -19.5 -31 -45.5c-123.333 -175.333 -253.666 -350 -390.999 -524
l56 -602c0.666992 0 1 -6 1 -18c0 -24 -3.66699 -41.333 -11 -52c-12 -16.667 -31.333 -25 -58 -25c-18 2.66699 -33.167 10.334 -45.5 23.001s-18.833 26.667 -19.5 42l-48 473l-364 -461c-4.66699 -4.66699 -10.5 -11.834 -17.5 -21.501s-13 -17.167 -18 -22.5
s-11.5 -11.166 -19.5 -17.499s-17.167 -10.833 -27.5 -13.5s-22.5 -4 -36.5 -4h-5c-28.667 0 -43 15.333 -43 46c0 12 1.66699 23.333 5 34l505 660l-53 530c0 1.33301 -0.166992 3.5 -0.5 6.5s-0.5 5.5 -0.5 7.5c0 46 22.667 69 68 69c23.333 0 41.5 -4.16699 54.5 -12.5
s20.167 -24.833 21.5 -49.5l36 -387z" />
    <glyph glyph-name="Y" unicode="Y" horiz-adv-x="777" 
d="M483 702l-106.999 564.999c-2.66699 8 -4 16.667 -4 26c0 20 7.33301 34.5 22 43.5s31.334 13.5 50.001 13.5c20 0 35.333 -4.16699 46 -12.5s21 -25.166 31 -50.499l76 -442l363 434l36 34c16 15.333 28.333 26 37 32s16.667 9 24 9c26.667 0 45.167 -2.66699 55.5 -8
s15.5 -13.333 15.5 -24c0 -6 -1.66699 -14.333 -5 -25c-3.33301 -8 -5.5 -15.167 -6.5 -21.5s-1.83301 -10.666 -2.5 -12.999s-3.33398 -6.83301 -8.00098 -13.5s-13 -16.667 -25 -30l-454 -524l-207 -549c-6 -15.333 -11.333 -34.333 -16 -57s-10 -42.334 -16 -59.001
c-3.33301 -9.33301 -11.833 -16.333 -25.5 -21s-25.834 -7.33398 -36.501 -8.00098s-25.667 -1 -45 -1c-24 0 -36 12.667 -36 38c0 20.667 8.66699 51.334 26 92.001l96 255c64 170 102.667 275.667 116 317z" />
    <glyph glyph-name="Z" unicode="Z" horiz-adv-x="841" 
d="M1105 1285c-6 -16.667 -46.832 -76.5 -122.499 -179.5l-226 -302.5l-296.5 -387.5l-218 -285.5h378c45.333 0 68 -19.333 68 -58c0 -16.667 -4.33301 -35 -13 -55c-6.66699 -18.667 -21.667 -28 -45 -28c-10 0 -23.333 2 -40 6s-26.667 6 -30 6l-486 -1
c-26 0 -39 9 -39 27c0 6 1.33301 12.333 4 19c5.33301 14 32 54.667 80 122l174 237l221 293l222 291.5l177 232.5h-329c-24.667 0 -44.667 5 -60 15s-23 29.333 -23 58c0 2.66699 0.333008 5 1 7c0 22.667 6.5 38.334 19.5 47.001s31.167 13 54.5 13
c13.333 0 33.666 -1.66699 60.999 -5s46.333 -5 57 -5h7h385c17.333 0 26 -10.667 26 -32c0 -10.667 -2.33301 -22.334 -7 -35.001z" />
    <glyph glyph-name="bracketleft" unicode="[" horiz-adv-x="590" 
d="M307 -69l1.00098 -0.000976562c12.667 0 23.167 -7.16699 31.5 -21.5s12.5 -30.5 12.5 -48.5c0 -17.333 -4.33301 -32 -13 -44s-21.667 -18 -39 -18h-290c-13.333 0 -24 4.66699 -32 14s-12 19.333 -12 30c0 2.66699 0.333008 5.66699 1 9l535 1449
c6 24.667 18.333 46.334 37 65.001s37 28 55 28h228c44.667 0 67 -19.667 67 -59c0 -16 -4.33301 -34 -13 -54c-6.66699 -19.333 -19.667 -29 -39 -29c-8 0 -20.5 2 -37.5 6s-29.5 6 -37.5 6c-26 1.33301 -42.667 2 -50 2c-13.333 0 -24.5 -0.5 -33.5 -1.5
s-17.5 -4 -25.5 -9s-14.167 -9.66699 -18.5 -14s-9.83301 -13 -16.5 -26s-11.834 -24.5 -15.501 -34.5l-18.5 -51l-378 -1024c-13.333 -34 -24.333 -63.5 -33 -88.5s-13 -42.833 -13 -53.5c0 -13.333 6.16699 -22.5 18.5 -27.5s34.833 -7.5 67.5 -7.5
c8.66699 0 29 0.666992 61 2z" />
    <glyph glyph-name="backslash" unicode="\" horiz-adv-x="1058" 
d="M504 1468l-0.000976562 14.001c0 27.333 6.5 46.333 19.5 57s30.5 16 52.5 16c23.333 0 41.333 -4.33301 54 -13s19.334 -26.334 20.001 -53.001l199 -1609c0.666992 0 1 -6.33301 1 -19c0 -24.667 -4 -43 -12 -55c-12.667 -17.333 -32.667 -26 -60 -26
c-19.333 3.33301 -35.333 11.5 -48 24.5s-20 27.833 -22 44.5z" />
    <glyph glyph-name="bracketright" unicode="]" horiz-adv-x="659" 
d="M626 1260c-24.667 0.666992 -44.6699 6.16699 -60.0029 16.5s-23 29.833 -23 58.5c0 2.66699 0.333008 5 1 7c0.666992 40 26.334 60 77.001 60c14.667 0 36.334 -1.83301 65.001 -5.5s47.667 -5.5 57 -5.5l96 -1c17.333 -0.666992 31.333 -5.66699 42 -15
s16 -22.333 16 -39c0 -6.66699 -1.33301 -15.334 -4 -26.001l-527 -1432c-13.333 -33.333 -25.166 -54.166 -35.499 -62.499s-27.833 -12.5 -52.5 -12.5h-29l-168 1c-2 0 -5.66699 -0.166992 -11 -0.5s-10 -0.5 -14 -0.5c-38 0 -57 17.667 -57 53c0 30.667 10 51.5 30 62.5
s48 16.5 84 16.5c8.66699 0 21.167 -0.333008 37.5 -1s27.833 -1 34.5 -1h14c10 0.666992 22.667 1 38 1l491 1326h-102z" />
    <glyph glyph-name="asciicircum" unicode="^" horiz-adv-x="815" 
d="M822 1231l76.0029 -441.001c0.666992 0 1 -6 1 -18c0 -23.333 -4 -40.666 -12 -51.999c-6.66699 -9.33301 -14.334 -15.833 -23.001 -19.5s-20 -5.5 -34 -5.5c-28 4.66699 -48.667 26.334 -62 65.001l-60 333l-283 -322c-2 -4.66699 -4.83301 -10.334 -8.5 -17.001
s-9.5 -15.334 -17.5 -26.001s-19 -19.5 -33 -26.5s-29.667 -10.5 -47 -10.5h-3c-28.667 0.666992 -43 16.334 -43 47.001c0 12 2 23.333 6 34l396 481c7.33301 7.33301 18.166 14 32.499 20s29.166 9 44.499 9c36 0 59.333 -17 70 -51z" />
    <glyph glyph-name="underscore" unicode="_" horiz-adv-x="803" 
d="M461 0l-338.001 -1.00098c-24.667 0 -44.5 5 -59.5 15s-22.5 29 -22.5 57v7c0.666992 22.667 7.5 38.334 20.5 47.001s30.833 13 53.5 13c14 0 34.667 -1.66699 62 -5s46.333 -5 57 -5c0.666992 0 1.83398 0.166992 3.50098 0.5s2.83398 0.5 3.50098 0.5l281 1
c44.667 0 67 -19.667 67 -59c0 -16 -4.33301 -34 -13 -54c-6.66699 -18.667 -21.334 -28 -44.001 -28c-10 0 -23.333 1.83301 -40 5.5s-27 5.5 -31 5.5z" />
    <glyph glyph-name="grave" unicode="`" 
d="M689 1092c-4.66699 -1.33301 -7.66602 -2.00098 -8.99902 -2.00098c-13.333 0 -25.333 7.33301 -36 22s-17.334 29.334 -20.001 44.001l-82 238c-0.666992 3.33301 -1 8 -1 14c0 45.333 23 68 69 68c22.667 0 40 -4 52 -12s18.667 -24.333 20 -49l39 -229v-12
c0 -48 -10.667 -75.333 -32 -82z" />
    <glyph glyph-name="a" unicode="a" 
d="M864 837l-230.001 -621.997c-4 -11.333 -6 -24.333 -6 -39c0 -23.333 6.16699 -43.333 18.5 -60s30.833 -25 55.5 -25c6.66699 0 11.834 -3.16699 15.501 -9.5s5.5 -14.166 5.5 -23.499c0 -14.667 -4.83301 -28 -14.5 -40s-23.5 -18 -41.5 -18
c-42.667 0 -77.334 8.66699 -104.001 26s-46.334 44.666 -59.001 81.999c-48 -70.667 -130 -106.667 -246 -108c-28 0 -51.333 1.66699 -70 5s-35.667 9.5 -51 18.5s-26.666 22.333 -33.999 40s-11 40.167 -11 67.5c0 83.333 41 236.666 123 459.999
c16.667 45.333 33.667 86.666 51 123.999s33.833 69.666 49.5 96.999s32.167 51.666 49.5 72.999s32.833 39 46.5 53s29.167 25.833 46.5 35.5s31.833 16.834 43.5 21.501s25.834 8.33398 42.501 11.001s29.5 4.16699 38.5 4.5s21.5 0.5 37.5 0.5h4
c28 0 51.667 -2.5 71 -7.5s33 -11.5 41 -19.5s13.333 -15.167 16 -21.5s4 -12.833 4 -19.5l-1 -8c6.66699 18.667 18 36 34 52s35.333 24 58 24c52 0 78 -13.333 78 -40c0 -6 -1.66699 -13.667 -5 -23c-10 -30.667 -21.167 -55.334 -33.5 -74.001s-19.833 -31 -22.5 -37z
M597.999 509.003c30 81.333 51.666 144 64.999 188s20 80 20 108c0 26 -6.66699 45.167 -20 57.5s-35 18.5 -65 18.5c-18 0 -33.5 -1.83301 -46.5 -5.5s-27.667 -11.5 -44 -23.5s-32 -28.833 -47 -50.5s-31.5 -51.167 -49.5 -88.5s-36.667 -82.333 -56 -135
c-71.333 -195.333 -107 -323 -107 -383c0 -23.333 4.33301 -40 13 -50s22 -15 40 -15c26 0 51.333 7.5 76 22.5s46.834 34.167 66.501 57.5s39.334 52.333 59.001 87s36.667 68.5 51 101.5s29.166 69.833 44.499 110.5z" />
    <glyph glyph-name="b" unicode="b" horiz-adv-x="776" 
d="M465 1201c0.666992 3.33301 0.999023 7.33496 0.999023 12.002c0 6.66699 -2.16699 12.834 -6.5 18.501s-9.16602 10.5 -14.499 14.5s-10.333 10.167 -15 18.5s-7 18.166 -7 29.499c0 17.333 14 31.833 42 43.5s58.333 17.5 91 17.5c37.333 0 61.333 -7.33301 72 -22
c6 -9.33301 9 -20 9 -32c0 -8 -1 -16.5 -3 -25.5s-5 -19.333 -9 -31s-6.66699 -20.5 -8 -26.5l-92 -248c47.333 27.333 92.333 41 135 41c60.667 0 106.167 -11 136.5 -33s45.5 -62.333 45.5 -121c0 -78 -29 -196.333 -87 -355l-50 -132.5c-14 -37 -28.333 -72.5 -43 -106.5
l-37.5 -84.5c-10.333 -22.333 -22 -43.5 -35 -63.5s-24 -35.667 -33 -47s-20.5 -21.833 -34.5 -31.5s-26.167 -16.5 -36.5 -20.5s-24.333 -7.5 -42 -10.5s-33.334 -4.66699 -47.001 -5s-32.167 -0.5 -55.5 -0.5c-21.333 0 -40.5 1.33301 -57.5 4s-30.667 6.16699 -41 10.5
s-19.5 8.83301 -27.5 13.5s-13.667 9 -17 13s-5.83301 7.5 -7.5 10.5l-2.5 4.5c-0.666992 0 -1.5 -2 -2.5 -6s-3.66699 -8.66699 -8 -14s-10.5 -10.833 -18.5 -16.5s-20.167 -10.334 -36.5 -14.001s-36.166 -5.5 -59.499 -5.5c-24.667 0 -37 13.667 -37 41
c0 8.66699 5.33301 20.667 16 36s20 33 28 53l132.5 358.5l175.5 471.5c48.667 131.333 77.667 211.666 87 240.999zM353.999 506.002c-55.333 -149.333 -83.001 -248.668 -83.001 -298.001c0 -29.333 8 -49.666 24 -60.999s40.667 -17 74 -17
c38.667 0 70.334 13.167 95.001 39.5s46.667 66.333 66 120l75 203.5l45 124.5c8.66699 24.333 18.167 55.833 28.5 94.5s15.5 69.334 15.5 92.001c0 51.333 -23 77 -69 77c-28.667 0 -53.5 -4.5 -74.5 -13.5s-39.5 -22.833 -55.5 -41.5s-30.833 -42.834 -44.5 -72.501
s-28.167 -65 -43.5 -106z" />
    <glyph glyph-name="c" unicode="c" horiz-adv-x="745" 
d="M615 196c-11.333 -31.333 -21.8301 -56.166 -31.4971 -74.499s-22.667 -36.333 -39 -54s-35.833 -30.834 -58.5 -39.501s-51.167 -15.5 -85.5 -20.5s-75.833 -7.5 -124.5 -7.5c-60.667 0 -105.667 11.167 -135 33.5s-44 61.833 -44 118.5
c0 81.333 34.667 215.333 104 402l42.5 112c13 35.333 26.333 68.5 40 99.5s27.834 59.167 42.501 84.5s31 48 49 68s37.833 36.833 59.5 50.5s46.667 24.167 75 31.5s59.833 11 94.5 11c78.667 0 139 -14.167 181 -42.5s63 -65.166 63 -110.499
c0 -20 -3.66699 -39.667 -11 -59c-14.667 -37.333 -26.834 -59.833 -36.501 -67.5s-29.5 -11.5 -59.5 -11.5h-16c-14.667 0 -25.334 4.5 -32.001 13.5s-10 19.833 -10 32.5c0 13.333 2.33301 24.666 7 33.999c6.66699 18.667 10 31 10 37c0 29.333 -32 44 -96 44
c-40 0 -72.667 -6.66699 -98 -20s-46 -33.666 -62 -60.999s-31.667 -62.166 -47 -104.499l-54 -151.5c-26.667 -67.333 -50.834 -133 -72.501 -197s-32.5 -111.667 -32.5 -143c0 -24.667 5.83301 -43.167 17.5 -55.5s31.167 -18.5 58.5 -18.5
c44.667 0 79.667 5.16699 105 15.5s41 24.166 47 41.499c4.66699 10 7.16699 19.333 7.5 28s1.5 15.334 3.5 20.001c8.66699 23.333 18 38.5 28 45.5s26.333 11.5 49 13.5h5c17.333 0 32.166 -5.33301 44.499 -16s18.5 -25.334 18.5 -44.001
c0 -12.667 -2.33301 -25.334 -7 -38.001z" />
    <glyph glyph-name="d" unicode="d" horiz-adv-x="798" 
d="M990 1218l-364 -993.994c-8.66699 -25.333 -13 -45.333 -13 -60c0 -22.667 9.66699 -44 29 -64c13.333 -14 20 -30.333 20 -49c0 -14.667 -4.83301 -26.834 -14.5 -36.501s-24.167 -14.5 -43.5 -14.5c-24.667 0 -44.5 5.33301 -59.5 16s-32.5 32.667 -52.5 66
c-30 -32.667 -62.167 -54.334 -96.5 -65.001s-84.5 -16.334 -150.5 -17.001c-54.667 0 -94.667 8.16699 -120 24.5s-38 48.833 -38 97.5c0 82 42.667 238.333 128 469c16.667 45.333 33.667 86.666 51 123.999s33.5 69.666 48.5 96.999s30.833 51.666 47.5 72.999
s31.5 38.833 44.5 52.5s27.833 25.5 44.5 35.5s30.5 17.333 41.5 22s24.5 8.33398 40.5 11.001s28.5 4.16699 37.5 4.5s21.167 0.5 36.5 0.5h5c28 0 51.5 -2.5 70.5 -7.5s32.5 -11.5 40.5 -19.5s13.333 -15.167 16 -21.5s4 -12.833 4 -19.5l-1 -8
c46 122.667 78 211.334 96 266.001c3.33301 12.667 5 22.667 5 30c0 3.33301 -1.5 12.333 -4.5 27s-4.5 26.667 -4.5 36c0 17.333 11.167 31.666 33.5 42.999s46.5 17 72.5 17c30.667 0 50.667 -7.33301 60 -22c6.66699 -8.66699 10 -19.334 10 -32.001
c0 -10 -3.16699 -25.667 -9.5 -47s-9.83301 -33 -10.5 -35zM585 509.006l45.9951 128c10 28.667 19.167 59 27.5 91s12.5 57.667 12.5 77c0 26 -6.83301 45.167 -20.5 57.5s-35.5 18.5 -65.5 18.5c-17.333 0 -32.166 -2 -44.499 -6s-26 -11.833 -41 -23.5
s-29.5 -28.5 -43.5 -50.5s-29.333 -51.333 -46 -88s-35 -81.667 -55 -135c-41.333 -112 -71 -198 -89 -258s-27 -104.667 -27 -134c0 -37.333 16 -56 48 -56h1c26 0 51.333 7.5 76 22.5s46.834 34.167 66.501 57.5s39.334 52.333 59.001 87s36.834 68.5 51.501 101.5
s29.334 69.833 44.001 110.5z" />
    <glyph glyph-name="e" unicode="e" horiz-adv-x="755" 
d="M367 609l108.998 -2.99805h3c25.333 0 48.5 2.66699 69.5 8s38.333 12.666 52 21.999s26.334 20.166 38.001 32.499s20.834 25.333 27.501 39l20 41c6.66699 13.667 12 26.5 16 38.5c4.66699 12 7 22.667 7 32c0 41.333 -38.333 62 -115 62c-45.333 0 -86 -23 -122 -69
s-71 -113.667 -105 -203zM798.998 656.002c-10.667 -28.667 -33.501 -60.334 -68.501 -95.001s-69.167 -57.334 -102.5 -68.001c-28.667 -8.66699 -85 -13 -169 -13l-138 3l-33.5 -95.5c-7.66699 -22.333 -15.667 -51.666 -24 -87.999s-12.5 -67.833 -12.5 -94.5
c0 -50 17 -75 51 -75c30.667 0 56.834 1.66699 78.501 5s38.5 7 50.5 11s22.167 10.333 30.5 19s13.833 16 16.5 22s6.33398 15.333 11.001 28c8.66699 22.667 22.334 40.834 41.001 54.501s38.667 20.5 60 20.5h1c12.667 0 24.5 -4.83301 35.5 -14.5s16.5 -20.5 16.5 -32.5
c0 -2 -0.333008 -5.33301 -1 -10l-16 -39.5c-4.66699 -11 -12 -25 -22 -42s-20.667 -31.833 -32 -44.5s-26.333 -26.167 -45 -40.5s-38.834 -26 -60.501 -35s-47.667 -16.5 -78 -22.5s-63.5 -9 -99.5 -9c-120 0 -180 61.333 -180 184c0 80.667 28 196.334 84 347.001
l50 130.5c14 35 29 70 45 105s30.5 63.333 43.5 85s28 42.5 45 62.5s33.667 35.5 50 46.5s35.166 20.667 56.499 29s43.833 14 67.5 17s50.834 4.5 81.501 4.5c39.333 0 73.166 -4.83301 101.499 -14.5s49.833 -23.334 64.5 -41.001s25.167 -36.5 31.5 -56.5
s9.5 -42 9.5 -66c0 -23.333 -4.33301 -52.5 -13 -87.5s-17.667 -64.833 -27 -89.5z" />
    <glyph glyph-name="f" unicode="f" horiz-adv-x="659" 
d="M613 1285c20 18.667 48.834 35 86.501 49s74.167 21 109.5 21c33.333 0 62.5 -4.5 87.5 -13.5s44.167 -19.167 57.5 -30.5s24.666 -25.833 33.999 -43.5s15.166 -31.834 17.499 -42.501s4.83301 -23.667 7.5 -39c0.666992 -4 1 -9.33301 1 -16
c0 -20 -6.5 -33.5 -19.5 -40.5s-32.167 -10.5 -57.5 -10.5h-23c-27.333 1.33301 -43.333 24 -48 68c-6 17.333 -12.667 27.5 -20 30.5s-27 5.16699 -59 6.5c-68.667 -2 -132 -79 -190 -231h121c23.333 0.666992 40.5 -4.33301 51.5 -15s16.5 -25.334 16.5 -44.001
c0 -15.333 -4.33301 -33.333 -13 -54c-6.66699 -19.333 -21.667 -29 -45 -29c-9.33301 0 -22.333 2 -39 6s-27 6 -31 6h-109l-268 -717c-5.33301 -14.667 -9.5 -33.5 -12.5 -56.5s-7.5 -42.833 -13.5 -59.5c-4 -9.33301 -13.167 -16.333 -27.5 -21
s-27.333 -7.33398 -39 -8.00098s-27.167 -1 -46.5 -1c-24 0 -36 12.667 -36 38c0 20.667 8.33301 51.334 25 92.001l274 732h-81c-24.667 0 -44.5 4.83301 -59.5 14.5s-22.5 28.834 -22.5 57.501v7c0.666992 22.667 7 38.334 19 47.001s28.333 13 49 13
c12 0 30.833 -1.66699 56.5 -5s43.834 -5 54.501 -5c4 0 6.66699 0.333008 8 1h24c17.333 55.333 40 110.5 68 165.5s58.667 97.5 92 127.5z" />
    <glyph glyph-name="g" unicode="g" horiz-adv-x="794" 
d="M500 -159c-6.66699 -18 -12.1641 -32.332 -16.4971 -42.999s-10.333 -24.334 -18 -41.001s-14.834 -30 -21.501 -40s-15.5 -22 -26.5 -36s-22.167 -25.167 -33.5 -33.5s-25.166 -17 -41.499 -26s-33.666 -16 -51.999 -21s-39.333 -9.33301 -63 -13
s-48.834 -5.5 -75.501 -5.5h-1c-39.333 0 -73.833 5.83301 -103.5 17.5s-52.667 26.667 -69 45s-28.5 37.5 -36.5 57.5s-12 40 -12 60c0 16 2.33301 29.667 7 41c2 8 4.83301 16 8.5 24s7.5 15.333 11.5 22s9.5 12 16.5 16s15.5 6 25.5 6h2c14 0 25.833 -4.5 35.5 -13.5
s14.5 -21.833 14.5 -38.5c0 -24 2 -43 6 -57s11.5 -24.667 22.5 -32s23.667 -12 38 -14s34.166 -3 59.499 -3c50 0 87.833 11.5 113.5 34.5s48.167 60.833 67.5 113.5l78 210l-17.5 -17.5c-8.33301 -8.33301 -14.333 -14.166 -18 -17.499s-10.334 -7.83301 -20.001 -13.5
s-19.334 -9.66699 -29.001 -12s-22.5 -4.66602 -38.5 -6.99902s-34.333 -3.5 -55 -3.5c-49.333 0 -86 11.333 -110 34s-36 59.667 -36 111c0 89.333 38.333 238 115 446c17.333 45.333 34.5 86.666 51.5 123.999s33 69.666 48 96.999s31 51.666 48 72.999s32 39 45 53
s27.667 25.833 44 35.5s30 16.834 41 21.501s24.5 8.33398 40.5 11.001s28.5 4.16699 37.5 4.5s21.5 0.5 37.5 0.5h4c28 0 51.667 -2.5 71 -7.5s33 -11.5 41 -19.5s13.333 -15.167 16 -21.5s4 -12.833 4 -19.5l-1 -8c6.66699 18.667 18 36 34 52s35.333 24 58 24
c52 0 78 -13.333 78 -40c0 -6 -1.66699 -13.667 -5 -23c-10 -30.667 -21.167 -55.334 -33.5 -74.001s-19.833 -31 -22.5 -37zM598.003 509.001c30 80.667 51.668 143.169 65.001 187.502s20 80.5 20 108.5c0 26 -6.66699 45.167 -20 57.5s-35 18.5 -65 18.5
c-22 0 -40.667 -3.33301 -56 -10s-32.333 -20.167 -51 -40.5s-37.834 -50.833 -57.501 -91.5s-41.5 -94.334 -65.5 -161.001c-39.333 -106 -68 -189.5 -86 -250.5s-27 -107.167 -27 -138.5c0 -39.333 15.333 -59 46 -59h1c26.667 0 50.834 4.66699 72.501 14
s41.5 22.666 59.5 39.999s36.167 42 54.5 74s35.666 67.167 51.999 105.5s35.5 86.833 57.5 145.5z" />
    <glyph glyph-name="h" unicode="h" horiz-adv-x="773" 
d="M616 1216l-99.999 -271l10 10c6.66699 7.33301 16 15 28 23s28.333 15.5 49 22.5s42.667 10.5 66 10.5c66 0 115.167 -13.333 147.5 -40s48.5 -64.334 48.5 -113.001c0 -37.333 -9.33301 -81.666 -28 -132.999l-217 -579c-5.33301 -14.667 -10.5 -33.334 -15.5 -56.001
s-10.833 -42.667 -17.5 -60c-3.33301 -9.33301 -11.666 -16.333 -24.999 -21s-25.333 -7.33398 -36 -8.00098s-25.667 -1 -45 -1c-24 0 -36 12.667 -36 38c0 19.333 8.33301 50 25 92l225 603c16.667 46 25 78.333 25 97c0 34 -22.333 51 -67 51h-6
c-26.667 -1.33301 -53 -9.66602 -79 -24.999s-48 -33.5 -66 -54.5s-34.167 -42.167 -48.5 -63.5s-24.833 -39.333 -31.5 -54l-10 -22l-215 -583c-14.667 -38 -26.5 -60.667 -35.5 -68s-28.167 -11 -57.5 -11h-16c-29.333 0 -44 16 -44 48c0 8.66699 1.66699 19.334 5 32.001
l416 1119c0.666992 6.66699 1 10.667 1 12c0 6.66699 -2.16699 12.834 -6.5 18.501s-9.33301 10.5 -15 14.5s-10.834 10.167 -15.501 18.5s-7 18.166 -7 29.499c0 17.333 14.167 31.833 42.5 43.5s58.5 17.5 90.5 17.5c37.333 0 61.666 -7.66699 72.999 -23
c5.33301 -8 8 -18.333 8 -31c0 -8 -1 -16.5 -3 -25.5s-5 -19.333 -9 -31s-6.66699 -20.5 -8 -26.5z" />
    <glyph glyph-name="i" unicode="i" horiz-adv-x="402" 
d="M550 1352l3.99902 -0.000976562c28 0 49.167 -9.66699 63.5 -29s21.5 -40.666 21.5 -63.999v-7c-2 -31.333 -12.667 -55.5 -32 -72.5s-45.666 -25.5 -78.999 -25.5h-2c-27.333 0 -48 9 -62 27s-22 39.667 -24 65v7c0 29.333 10.333 53 31 71s47 27.333 79 28z
M492.999 878.999l-275.001 -733c-5.33301 -14.667 -10.5 -33.334 -15.5 -56.001s-10.833 -42.667 -17.5 -60c-3.33301 -9.33301 -11.666 -16.333 -24.999 -21s-25.333 -7.33398 -36 -8.00098s-25.667 -1 -45 -1c-24 0 -36 12.667 -36 38c0 18.667 8.33301 49.334 25 92.001
l126 335c84 223.333 132.667 355.333 146 396c4 12.667 6 23 6 31c0 3.33301 -1.5 12.333 -4.5 27s-4.5 26.667 -4.5 36c0 16.667 11 30.834 33 42.501s46 17.5 72 17.5c30.667 0 51 -7.33301 61 -22c6.66699 -9.33301 10 -20 10 -32c0 -10 -3.33301 -25.667 -10 -47
s-10 -33 -10 -35z" />
    <glyph glyph-name="j" unicode="j" horiz-adv-x="613" 
d="M561 861c4 16 6.00098 26.332 6.00098 30.999c0 3.33301 -1.5 12.333 -4.5 27s-4.5 26.667 -4.5 36c0 16.667 11.167 30.834 33.5 42.501s46.5 17.5 72.5 17.5c30 0 50.333 -7.33301 61 -22c6 -9.33301 9 -20 9 -32c0 -10 -3.16699 -25.667 -9.5 -47
s-9.83301 -33 -10.5 -35l-310 -838c-6.66699 -18 -12.167 -32.167 -16.5 -42.5s-10.333 -23.833 -18 -40.5s-14.834 -30.167 -21.501 -40.5s-15.5 -22.333 -26.5 -36s-22.167 -24.667 -33.5 -33s-25.166 -17.166 -41.499 -26.499s-33.666 -16.5 -51.999 -21.5
s-39.333 -9.33301 -63 -13s-48.834 -5.5 -75.501 -5.5h-1c-39.333 0 -74 5.83301 -104 17.5s-53 26.667 -69 45s-28 37.5 -36 57.5s-12 40 -12 60c0 14.667 2.33301 28.667 7 42c2.66699 7.33301 5.66699 15.166 9 23.499s7 15.666 11 21.999s9.66699 11.5 17 15.5
s16 6 26 6h1c14 0 25.833 -4.5 35.5 -13.5s14.5 -21.5 14.5 -37.5c0 -24 2 -43 6 -57s11.5 -24.667 22.5 -32s23.667 -12 38 -14s34.166 -3 59.499 -3c51.333 0 90.5 11.5 117.5 34.5s49.833 60.5 68.5 112.5l137 369c92 246.667 144.333 390.334 157 431.001zM771.001 1352
l3.99902 -0.000976562c28 0 49.167 -9.66699 63.5 -29s21.5 -40.666 21.5 -63.999v-7c-2 -31.333 -12.667 -55.5 -32 -72.5s-45.666 -25.5 -78.999 -25.5h-2c-26.667 0 -47.167 9 -61.5 27s-22.5 39.667 -24.5 65v7c0 29.333 10.5 53 31.5 71s47.167 27.333 78.5 28z" />
    <glyph glyph-name="k" unicode="k" horiz-adv-x="803" 
d="M385 595c31.333 10.667 62.9951 27.3301 94.9951 49.9971s60.333 46.334 85 71.001s49.334 52.167 74.001 82.5s44.334 56.166 59.001 77.499s28.667 43 42 65l29 37c8.66699 11.333 17.334 20.333 26.001 27s17.334 10 26.001 10h3c20.667 -2 38.167 -7.5 52.5 -16.5
s21.5 -19.167 21.5 -30.5c0 -2 -0.666992 -5.33301 -2 -10c0 -6.66699 -0.166992 -12.167 -0.5 -16.5s-2.83301 -10.666 -7.5 -18.999s-14 -22.166 -28 -41.499c-24 -34.667 -50.5 -71 -79.5 -109s-65.167 -80.5 -108.5 -127.5s-79.333 -79.167 -108 -96.5l124 -453v-18
c0 -24.667 -3.66699 -42 -11 -52c-12 -16.667 -31 -25 -57 -25c-32 4.66699 -54 26 -66 64l-111 416l-114 -43l-132 -360c-14 -37.333 -25.833 -59.833 -35.5 -67.5s-29.5 -11.5 -59.5 -11.5h-16c-32 0 -48 11 -48 33c0 6.66699 4.33301 22.334 13 47.001l192 519
c128 345.333 199 538.333 213 579c2 9.33301 3 18.333 3 27c0 5.33301 -0.666992 12.833 -2 22.5s-2 17.834 -2 24.501c0 9.33301 1.66699 22.666 5 39.999c4.66699 18.667 17.834 34 39.501 46s44.5 18 68.5 18c28 0 48 -8 60 -24c5.33301 -8 8 -18.333 8 -31
c0 -8 -1 -16.5 -3 -25.5s-5 -19.333 -9 -31s-6.66699 -20.5 -8 -26.5z" />
    <glyph glyph-name="l" unicode="l" horiz-adv-x="454" 
d="M86 172l178.002 481.003c119.333 321.333 185.666 502.333 198.999 543c5.33301 21.333 8 35.333 8 42c0 4 -0.666992 13.333 -2 28s-2 22.667 -2 24c0 17.333 10.333 31.666 31 42.999s43.667 17 69 17c29.333 0 49 -7.66699 59 -23c6.66699 -8.66699 10 -19 10 -31
c0 -10 -3.33301 -25.667 -10 -47s-10.334 -33 -11.001 -35l-360 -981c-12 -32.667 -18 -56.334 -18 -71.001c0 -20 8.16699 -34.333 24.5 -43s43.166 -13 80.499 -13l0.5 0.5c0.333008 0.333008 0.833008 0.5 1.5 0.5c9.33301 0 17 -4.5 23 -13.5s9 -19.833 9 -32.5
c0 -16 -4.83301 -30.167 -14.5 -42.5s-23.5 -18.5 -41.5 -18.5c-7.33301 0 -18.166 0.166992 -32.499 0.5s-24.5 0.5 -30.5 0.5c-47.333 0 -71 -0.333008 -71 -1c-32 0 -58.5 10.667 -79.5 32s-31.5 48.666 -31.5 81.999c0 20.667 3.66699 40 11 58z" />
    <glyph glyph-name="m" unicode="m" horiz-adv-x="1179" 
d="M70 130l260.993 714c9.33301 22.667 14 41 14 55c0 12.667 -4.16699 24.334 -12.5 35.001s-12.5 19 -12.5 25c0 14.667 8 27 24 37s34 15 54 15c26 0 47.333 -5.5 64 -16.5s34.667 -27.5 54 -49.5c9.33301 13.333 18.833 24.166 28.5 32.499s26 16 49 23
s51.5 10.5 85.5 10.5c23.333 0 42.5 -1.16699 57.5 -3.5s28.167 -7.5 39.5 -15.5s20.333 -16.167 27 -24.5s15.667 -21.5 27 -39.5c28.667 26.667 60.667 47.167 96 61.5s82.333 21.5 141 21.5c60 0 106 -14.833 138 -44.5s48 -73.167 48 -130.5
c0 -49.333 -12.667 -109.666 -38 -180.999l-191 -511c-5.33301 -14.667 -10.5 -33.334 -15.5 -56.001s-10.5 -42.667 -16.5 -60c-4 -9.33301 -12.5 -16.333 -25.5 -21s-25 -7.33398 -36 -8.00098s-25.833 -1 -44.5 -1c-24 0 -36 12.667 -36 38
c0 21.333 8.33301 52.333 25 93l193 523c19.333 54 29 103.667 29 149c0 53.333 -14.667 80 -44 80c-16.667 0 -29 -0.166992 -37 -0.5s-18.5 -0.833008 -31.5 -1.5s-22.167 -1.5 -27.5 -2.5s-12.833 -2.66699 -22.5 -5s-16.5 -5.16602 -20.5 -8.49902
s-9.5 -7.66602 -16.5 -12.999s-12.5 -11.333 -16.5 -18l-14 -24c-5.33301 -9.33301 -10.166 -19.666 -14.499 -30.999l-14.5 -38l-240 -661c-14 -36 -25.333 -58.333 -34 -67s-25 -13 -49 -13c-11.333 0 -20.666 0.333008 -27.999 1c-29.333 0 -44 13.333 -44 40
c0 9.33301 3 22.666 9 39.999l242 662c14.667 40 22 70 22 90c0 10 -1.66699 18.167 -5 24.5s-7.16602 11.166 -11.499 14.499s-11.166 5.83301 -20.499 7.5s-17.166 2.66699 -23.499 3s-15.833 0.5 -28.5 0.5c-27.333 0 -51.833 -4.16699 -73.5 -12.5s-40 -20.333 -55 -36
s-27.333 -32.167 -37 -49.5s-18.5 -37.333 -26.5 -60l-219 -593c-3.33301 -9.33301 -8.16602 -21 -14.499 -35s-10.166 -23.667 -11.499 -29c-5.33301 -13.333 -10.5 -24 -15.5 -32s-9.83301 -14.5 -14.5 -19.5s-12.334 -8.5 -23.001 -10.5s-20.334 -3.16699 -29.001 -3.5
s-23.667 -0.5 -45 -0.5c-9.33301 0 -16.5 2.16699 -21.5 6.5s-7.83301 8.83301 -8.5 13.5s-1 11.167 -1 19.5s1.33301 15.333 4 21s7.33398 14.667 14.001 27s13.334 26.5 20.001 42.5z" />
    <glyph glyph-name="n" unicode="n" horiz-adv-x="800" 
d="M418 662l-215.003 -583.003c-14 -38 -25.5 -60.667 -34.5 -68s-28.5 -11 -58.5 -11h-15c-29.333 0 -44 16 -44 48c0 10.667 1.66699 21.334 5 32.001l282 764c10 27.333 15 49 15 65c0 10 -2.16699 18 -6.5 24s-8.66602 10.833 -12.999 14.5s-6.5 7.83398 -6.5 12.501
c0 14.667 8 26.834 24 36.501s34 14.5 54 14.5c25.333 0 46.333 -5.33301 63 -16s35 -27.334 55 -50.001l10 10c6.66699 7.33301 16 15 28 23s28.333 15.5 49 22.5s42.334 10.5 65.001 10.5c68.667 0 120.167 -14.167 154.5 -42.5s51.5 -68.166 51.5 -119.499
c0 -36 -8.33301 -77.333 -25 -124l-218 -579c-4.66699 -14.667 -9.5 -33.334 -14.5 -56.001s-10.833 -42.667 -17.5 -60c-3.33301 -9.33301 -11.666 -16.333 -24.999 -21s-25.5 -7.33398 -36.5 -8.00098s-25.833 -1 -44.5 -1c-24 0 -36 12.667 -36 38
c0 21.333 8.33301 52 25 92l224 603c14 38.667 21 68 21 88c0 40 -25.333 60 -76 60h-5c-26.667 -0.666992 -53 -8.66699 -79 -24s-48 -33.666 -66 -54.999s-34 -42.666 -48 -63.999s-24.667 -39.333 -32 -54z" />
    <glyph glyph-name="o" unicode="o" horiz-adv-x="758" 
d="M344 554c-37.333 -102.667 -64.167 -180.333 -80.5 -233s-24.5 -93.667 -24.5 -123c0 -23.333 5.66699 -40.5 17 -51.5s29 -16.5 53 -16.5c62.667 0 114 27.667 154 83c32 42.667 72.333 128.667 121 258l27 73c24.667 68 43 122 55 162s18 73.333 18 100
c0 48 -24.667 72 -74 72h-4c-58.667 -1.33301 -102.667 -17 -132 -47c-26.667 -27.333 -57.667 -86.333 -93 -177zM200.999 554.001c25.333 67.333 47.001 122.499 65.001 165.499s37.333 83.167 58 120.5s40.167 65.833 58.5 85.5s40.166 36.5 65.499 50.5s52 23.333 80 28
s61.667 7 101 7c70 0 120.833 -10.5 152.5 -31.5s47.5 -60.167 47.5 -117.5c0 -69.333 -24.667 -176.333 -74 -321c-27.333 -80 -51.166 -146.167 -71.499 -198.5s-42 -100.166 -65 -143.499s-44.833 -76.666 -65.5 -99.999s-45.334 -43 -74.001 -59
s-58.334 -26.667 -89.001 -32s-68 -8 -112 -8c-67.333 0 -116 10.167 -146 30.5s-45 56.166 -45 107.499c0 40 9.33301 92.667 28 158s47.334 151.333 86.001 258z" />
    <glyph glyph-name="p" unicode="p" horiz-adv-x="778" 
d="M331 844c8.66699 24.667 13.0029 43.3369 13.0029 56.0039c0 11.333 -3.83301 22.166 -11.5 32.499s-11.5 20.166 -11.5 29.499c0 16 7.5 28.167 22.5 36.5s33.167 12.5 54.5 12.5c33.333 0 59.166 -2.33301 77.499 -7s34.833 -16 49.5 -34
c47.333 27.333 94.333 41 141 41c25.333 0 46.666 -1 63.999 -3s34.666 -5.83301 51.999 -11.5s31.166 -13.834 41.499 -24.501s18.666 -25 24.999 -43s9.5 -39.333 9.5 -64c0 -77.333 -30 -198.333 -90 -363c-74.667 -203.333 -132.667 -335.666 -174 -396.999
c-34.667 -51.333 -75 -83 -121 -95c-26 -6.66699 -68 -10 -126 -10c-30.667 0 -55.667 2.66699 -75 8s-33.666 11.833 -42.999 19.5s-21.666 20.5 -36.999 38.5l-97 -252c-5.33301 -14.667 -10.5 -33.334 -15.5 -56.001s-10.5 -42.334 -16.5 -59.001
c-4 -9.33301 -12.667 -16.5 -26 -21.5s-25.333 -7.66699 -36 -8s-25.667 -0.5 -45 -0.5c-24 0 -36 12.333 -36 37c0 17.333 8.33301 48 25 92zM354.003 506.003c-55.333 -149.333 -82.999 -249 -82.999 -299c0 -30 8.33301 -50.333 25 -61s43.334 -16 80.001 -16
c29.333 0 54.666 7.5 75.999 22.5s40 37.5 56 67.5s32.667 67.667 50 113l59 160l43.5 120c9.66699 28 19.167 60.333 28.5 97s14 66.334 14 89.001c0 54.667 -24 82 -72 82c-18 0 -34.5 -1.83301 -49.5 -5.5s-28.667 -9 -41 -16s-23.833 -16 -34.5 -27
s-20.834 -24 -30.501 -39s-19.167 -32.167 -28.5 -51.5s-18.833 -40.833 -28.5 -64.5s-19.667 -49.834 -30 -78.501z" />
    <glyph glyph-name="q" unicode="q" horiz-adv-x="769" 
d="M851 837l-367.005 -996.998c-14.667 -33.333 -23.667 -54.666 -27 -63.999c-4.66699 -13.333 -10 -24 -16 -32s-11.833 -14.333 -17.5 -19s-14.667 -8 -27 -10s-23.166 -3.16699 -32.499 -3.5s-24.666 -0.5 -45.999 -0.5c-28 0 -38 10.667 -30 32
c5.33301 14 12.833 28.5 22.5 43.5s18.834 32.833 27.501 53.5l89 231c-9.33301 -6.66699 -19.333 -14.667 -30 -24s-19 -16 -25 -20s-14.5 -8.5 -25.5 -13.5s-24.5 -8.33301 -40.5 -10s-36.333 -2.83398 -61 -3.50098c-52 0 -90.333 10 -115 30s-37 55.333 -37 106
c0 83.333 40.667 235 122 455c16.667 45.333 33.667 86.666 51 123.999s33.5 69.666 48.5 96.999s30.833 51.666 47.5 72.999s31.5 39 44.5 53s27.833 25.833 44.5 35.5s30.5 16.834 41.5 21.501s24.5 8.33398 40.5 11.001s28.5 4.16699 37.5 4.5s21.167 0.5 36.5 0.5h5
c28 0 51.5 -2.5 70.5 -7.5s32.5 -11.5 40.5 -19.5s13.333 -15.167 16 -21.5s4 -12.833 4 -19.5l-1 -8c7.33301 18.667 18.833 36 34.5 52s34.834 24 57.501 24c51.333 0 77 -13.333 77 -40c0 -8 -1 -15.667 -3 -23c-10 -30.667 -21.167 -55.334 -33.5 -74.001
s-20.166 -31 -23.499 -37zM584.995 509.002l45.9961 128.001c10 28.667 19.167 59 27.5 91s12.5 57.667 12.5 77c0 26 -6.83301 45.167 -20.5 57.5s-35.5 18.5 -65.5 18.5c-17.333 0 -32.166 -1.83301 -44.499 -5.5s-26 -11.5 -41 -23.5s-29.5 -29 -43.5 -51
s-29.333 -51.333 -46 -88s-35 -81.667 -55 -135c-42.667 -116.667 -73.167 -204.834 -91.5 -264.501s-27.5 -103.5 -27.5 -131.5c0 -18.667 4.16699 -32 12.5 -40s21.166 -12 38.499 -12h1c26 0 51.333 7.5 76 22.5s46.834 34.167 66.501 57.5s39.334 52.333 59.001 87
s36.834 68.5 51.501 101.5s29.334 69.833 44.001 110.5z" />
    <glyph glyph-name="r" unicode="r" horiz-adv-x="715" 
d="M661 1011c36.667 0 70 -5.50195 100 -16.502s54.167 -25.167 72.5 -42.5s32.333 -35.5 42 -54.5s14.5 -37.5 14.5 -55.5c0 -8.66699 -1.33301 -17.334 -4 -26.001c-10 -26.667 -21.5 -44.334 -34.5 -53.001s-32.833 -13 -59.5 -13h-16
c-24.667 0.666992 -37 17.334 -37 50.001c0 9.33301 0.333008 15.333 1 18c-3.33301 42 -36.333 63 -99 63h-1c-29.333 -0.666992 -57 -8.5 -83 -23.5s-47.5 -33.167 -64.5 -54.5s-31.833 -42.666 -44.5 -63.999s-22 -39.666 -28 -54.999l-8 -22l-215 -583
c-14.667 -38 -26.5 -60.667 -35.5 -68s-28.167 -11 -57.5 -11h-16c-29.333 0 -44 16 -44 48c0 8.66699 1.66699 19.334 5 32.001l282 764c15.333 39.333 23 66.666 23 81.999c0 6.66699 -1.33301 12.834 -4 18.501s-4 10.5 -4 14.5c0 34.667 17.333 52 52 52
c18 0 34.833 -2.83301 50.5 -8.5s28 -11.5 37 -17.5s20.833 -15 35.5 -27c13.333 8 25.333 16 36 24s25.167 14.833 43.5 20.5s38.5 8.5 60.5 8.5z" />
    <glyph glyph-name="s" unicode="s" horiz-adv-x="750" 
d="M77 190c-1.33301 10 -1.99707 17.335 -1.99707 22.002c0 40 23.333 60 70 60c20.667 0 36.5 -4.16699 47.5 -12.5s20.5 -24.833 28.5 -49.5c10 -30.667 22.833 -51.667 38.5 -63s40.834 -17 75.501 -17c74 0 126.667 43 158 129c3.33301 8.66699 5 18.334 5 29.001
c0 22 -7.33301 48.167 -22 78.5s-32.334 61.5 -53.001 93.5l-62 97c-20.667 32.667 -38.334 66.834 -53.001 102.501s-22 68.167 -22 97.5c0 18 3.33301 36.333 10 55c13.333 35.333 28 65.166 44 89.499s32.5 43.666 49.5 57.999s38.167 25.333 63.5 33
s50.166 12.667 74.499 15s55.166 3.5 92.499 3.5c28.667 0 54.667 -5 78 -15s41.666 -22.333 54.999 -37s24.833 -30.667 34.5 -48s16.5 -33.333 20.5 -48s7 -27 9 -37l2 -15c0.666992 0 1 -6 1 -18c0 -24 -4 -41.667 -12 -53c-12 -16 -31 -24 -57 -24
c-30 4.66699 -51.667 26.334 -65 65.001c-8 20 -14.333 37.5 -19 52.5s-14.5 26.667 -29.5 35s-36.833 12.5 -65.5 12.5c-42.667 0 -73.167 -6.5 -91.5 -19.5s-32.833 -33.833 -43.5 -62.5c-2.66699 -6.66699 -4 -15.334 -4 -26.001c0 -20.667 7 -46.834 21 -78.501
s31 -64.334 51 -98.001l60.5 -103c20.333 -35 37.5 -71 51.5 -108s21 -70.167 21 -99.5c0 -18.667 -3 -36 -9 -52c-28 -73.333 -49.333 -120.666 -64 -141.999c-28 -41.333 -71.667 -68 -131 -80c-39.333 -8 -91.333 -12 -156 -12c-23.333 0 -45.5 4.66699 -66.5 14
s-38.667 21.166 -53 35.499s-27.5 30.333 -39.5 48s-21.167 34 -27.5 49s-11.166 29.5 -14.499 43.5z" />
    <glyph glyph-name="t" unicode="t" horiz-adv-x="571" 
d="M458 1009c41.333 111.333 64.666 174.666 69.999 189.999c2.66699 11.333 4.66699 25.666 6 42.999s5.66602 37 12.999 59c5.33301 15.333 16.833 28.166 34.5 38.499s35.834 15.5 54.501 15.5c24.667 0 42.667 -8.33301 54 -25c6.66699 -8 10 -18.333 10 -31
c0 -10 -3.16699 -25.5 -9.5 -46.5s-9.83301 -33.167 -10.5 -36.5l-78 -206h78c23.333 0 40.5 -5.16699 51.5 -15.5s16.5 -24.5 16.5 -42.5c0 -17.333 -4 -35.666 -12 -54.999c-6.66699 -18.667 -22 -28 -46 -28c-9.33301 0 -22.166 2 -38.499 6s-26.5 6 -30.5 6h-67
l-273 -735c-5.33301 -14.667 -9.5 -33.5 -12.5 -56.5s-7.5 -42.833 -13.5 -59.5c-4 -9.33301 -13.167 -16.333 -27.5 -21s-27.333 -7.33398 -39 -8.00098s-27.167 -1 -46.5 -1c-24 0 -36 12.667 -36 38c0 20.667 8.33301 51.334 25 92.001l280 750h-95
c-24.667 0 -44.5 4.83301 -59.5 14.5s-22.5 28.834 -22.5 57.501v7c1.33301 22.667 8.5 38.334 21.5 47.001s30.833 13 53.5 13c13.333 0 33.5 -1.83301 60.5 -5.5s46.167 -5.5 57.5 -5.5c3.33301 0 6 0.333008 8 1h23z" />
    <glyph glyph-name="u" unicode="u" horiz-adv-x="830" 
d="M745 881c6.66699 15.333 12.499 29.6729 17.499 43.0059s10.5 25.333 16.5 36s12.5 19.834 19.5 27.501s15.667 13.5 26 17.5s21.833 6 34.5 6c52 0 78 -13.333 78 -40c0 -8.66699 -1.33301 -16.334 -4 -23.001c-10 -30 -21 -54.333 -33 -73s-19.667 -31.334 -23 -38.001
l-229 -622c-3.33301 -12.667 -5 -24.667 -5 -36c0 -25.333 5.83301 -46.333 17.5 -63s30.167 -25 55.5 -25c8 0 14.167 -3.33301 18.5 -10s6.5 -15 6.5 -25c0 -14.667 -5 -27.667 -15 -39s-25 -17 -45 -17c-43.333 0 -78.166 8.66699 -104.499 26
s-45.833 44.666 -58.5 81.999c-6 -4 -16.5 -12.167 -31.5 -24.5s-28.333 -22.333 -40 -30s-26.5 -16.167 -44.5 -25.5s-38.667 -16.333 -62 -21s-49 -7 -77 -7c-52.667 0 -91.334 10.667 -116.001 32s-37 55.666 -37 102.999c0 68.667 29 181 87 337l61 165
c41.333 109.333 68.666 184.333 81.999 225c2 8.66699 3 15.667 3 21s-3.33301 15 -10 29s-10 28.667 -10 44c0 17.333 12.167 31.666 36.5 42.999s50.5 17 78.5 17c32.667 0 54.334 -7.66699 65.001 -23c6 -8.66699 9 -18.667 9 -30c0 -8 -1 -16.667 -3 -26s-5 -20 -9 -32
s-6.66699 -20.333 -8 -25l-156 -423c-24.667 -64 -45.834 -121.333 -63.501 -172s-26.5 -87.334 -26.5 -110.001c0 -30 16 -45 48 -45c56.667 0 110.834 28.667 162.501 86s93.834 128.666 126.501 213.999z" />
    <glyph glyph-name="v" unicode="v" horiz-adv-x="794" 
d="M331 0c-28 0 -41.668 12.668 -41.001 38.001l-31 890c0 32 6 53.833 18 65.5s28.667 17.5 50 17.5c22.667 0 40.334 -4.33301 53.001 -13s19 -25.334 19 -50.001l8 -740l422 733c12 21.333 27.667 39 47 53s36 21 50 21c26.667 0 45.167 -2.5 55.5 -7.5
s15.5 -12.833 15.5 -23.5c0 -7.33301 -1.66699 -16 -5 -26c-4 -10 -7 -16.833 -9 -20.5s-3.66699 -6.5 -5 -8.5s-4.5 -7.16699 -9.5 -15.5l-19.5 -32.5l-491 -836c-12 -16.667 -22 -28.167 -30 -34.5s-17 -9.5 -27 -9.5z" />
    <glyph glyph-name="w" unicode="w" horiz-adv-x="1133" 
d="M1156 934c12.667 22 28.499 40 47.499 54s35.167 21 48.5 21c28 0 47.333 -2.83301 58 -8.5s16 -13.834 16 -24.501c0 -5.33301 -1.66699 -13.333 -5 -24c-4 -10 -7 -17 -9 -21s-3.66699 -7 -5 -9l-9.5 -15s-11.167 -19 -18.5 -33l-465 -829
c-12.667 -16.667 -22.834 -28.167 -30.501 -34.5s-16.5 -9.5 -26.5 -9.5h-62c-12 0 -20.5 3.33301 -25.5 10s-7.5 19 -7.5 37l-1 445l-248 -452c-13.333 -18.667 -24.666 -30.167 -33.999 -34.5s-21.666 -6.5 -36.999 -6.5h-51c-28 0 -42 12.667 -42 38v891
c0 32 6 53.833 18 65.5s29 17.5 51 17.5c22.667 0 40 -4.16699 52 -12.5s18.333 -25.166 19 -50.499l1 -690l236 430c14 22.667 32.667 34 56 34h67c12.667 0 22.167 -4.16699 28.5 -12.5s9.5 -17.833 9.5 -28.5l3 -404z" />
    <glyph glyph-name="x" unicode="x" horiz-adv-x="796" 
d="M854 877c-15.333 -22 -110.334 -134.667 -285.001 -338l75 -442c0.666992 0 1 -6 1 -18c0 -24 -3.66699 -41.333 -11 -52c-12 -16 -31.333 -24 -58 -24c-30.667 4 -52.667 25.333 -66 64l-60 333l-268 -322c-2.66699 -4.66699 -6.16699 -10.334 -10.5 -17.001
s-11.333 -15.167 -21 -25.5s-22 -19 -37 -26s-31.167 -10.5 -48.5 -10.5h-2c-29.333 0 -44 15.333 -44 46c0 2 2 13.333 6 34l396 481l-66 368c-1.33301 5.33301 -2 12.333 -2 21c0 41.333 23.333 62 70 62c21.333 0 37.833 -4.16699 49.5 -12.5s20.5 -25.166 26.5 -50.499
l42 -244l192 233c17.333 22 34.833 40 52.5 54s32.167 21 43.5 21c27.333 0 46.333 -2.66699 57 -8s16 -13.333 16 -24c0 -7.33301 -2 -15.666 -6 -24.999c-5.33301 -16.667 -9.16602 -27.334 -11.499 -32.001s-12.5 -20 -30.5 -46z" />
    <glyph glyph-name="y" unicode="y" horiz-adv-x="786" 
d="M877 1012c14.667 0 26.334 -5.99902 35.001 -17.999s13 -27.333 13 -46c0 -25.333 -8 -49 -24 -71c-9.33301 -13.333 -95.5 -174 -258.5 -482s-244.5 -462.333 -244.5 -463c-16 -32 -32.5 -60.167 -49.5 -84.5s-37 -47.333 -60 -69s-49.5 -38.334 -79.5 -50.001
s-63 -17.5 -99 -17.5c-28 0 -53.667 2.83301 -77 8.5s-34.333 15.5 -33 29.5c-0.666992 2.66699 -1 7.66699 -1 15c0 20.667 6.5 38.334 19.5 53.001s33.167 22.334 60.5 23.001c46 0 83.333 11.167 112 33.5s54 55.5 76 99.5l57 109l-95 849c-0.666992 4 -1 9.66699 -1 17
c0 44 23 66 69 66c22.667 0 40.5 -4.33301 53.5 -13s20.5 -25.334 22.5 -50.001l70 -660l315 606c4 7.33301 7.33301 17.166 10 29.499s5.5 22.833 8.5 31.5s7.66699 17.5 14 26.5s16.666 15.833 30.999 20.5s32.833 7 55.5 7z" />
    <glyph glyph-name="z" unicode="z" horiz-adv-x="752" 
d="M891 944c-6 -16.667 -30.998 -53.002 -74.998 -109.002s-108.167 -132.833 -192.5 -230.5l-201 -231.5l-212.5 -243h322c22.667 0 39.5 -5.16699 50.5 -15.5s16.5 -24.5 16.5 -42.5c0 -15.333 -4.33301 -33.666 -13 -54.999c-6.66699 -18.667 -21.667 -28 -45 -28
c-9.33301 0 -22.5 2 -39.5 6s-26.833 6 -29.5 6l-424 -1c-25.333 0 -38 9 -38 27c0 3.33301 1 9.66602 3 18.999c7.33301 18 32.166 54.333 74.499 109s108.666 134.834 198.999 240.501l197 230l221.5 255.5h-273c-24.667 0 -44.5 5 -59.5 15s-22.5 29.333 -22.5 58v7
c0.666992 22.667 7.66699 38.334 21 47.001s31.333 13 54 13c12.667 0 32.667 -1.83301 60 -5.5s46.333 -5.5 57 -5.5c3.33301 0 6 0.333008 8 1h322c17.333 0 26 -10.667 26 -32c0 -11.333 -2.33301 -23 -7 -35z" />
    <glyph glyph-name="braceleft" unicode="{" horiz-adv-x="558" 
d="M143 242c2 28 9.16602 58.1699 21.499 90.5029s25.166 60.166 38.499 83.499s25.5 46.666 36.5 69.999s16.5 41.333 16.5 54c0 11.333 -4 20.666 -12 27.999c-36 30.667 -54 56.334 -54 77.001c0 3.33301 0.666992 7.33301 2 12c4 10 9.5 17.167 16.5 21.5
s17.5 8.5 31.5 12.5s26 8.66699 36 14c22 12 39 24.667 51 38s20.833 29 26.5 47s10 36.333 13 55s8.5 43.667 16.5 75s18 62.666 30 93.999c18.667 46.667 45.334 91.834 80.001 135.501s72.667 82 114 115s83.5 61.5 126.5 85.5s84.833 42.333 125.5 55
c6.66699 2.66699 13.667 4 21 4c14.667 0 26.167 -5.66699 34.5 -17s12.5 -25 12.5 -41c0 -10 -2 -20.667 -6 -32c-6 -14 -22 -31.667 -48 -53s-57.333 -42 -94 -62c-38 -20.667 -83.333 -57.5 -136 -110.5s-83.334 -97.5 -92.001 -133.5l-18 -74l-16.5 -69
c-3.66699 -15.333 -9.33398 -34 -17.001 -56s-15.5 -39.333 -23.5 -52s-18.333 -26 -31 -40s-27.334 -26 -44.001 -36c9.33301 -17.333 14 -36.333 14 -57c0 -19.333 -5.16699 -41.666 -15.5 -66.999s-22.166 -48.833 -35.499 -70.5s-27.166 -48 -41.499 -79
s-24.5 -60.5 -30.5 -88.5c-3.33301 -13.333 -5 -34.333 -5 -63c0 -49.333 5.83301 -101 17.5 -155s26.834 -93.333 45.501 -118c16 -20.667 27.333 -36.834 34 -48.501s10 -22.834 10 -33.501c0 -7.33301 -1.66699 -15 -5 -23c-9.33301 -21.333 -20.333 -37.333 -33 -48
s-26 -16 -40 -16c-14.667 0 -27 5.66699 -37 17c-41.333 50 -74.666 113.667 -99.999 191s-38 152 -38 224c0 20 0.666992 34.667 2 44z" />
    <glyph glyph-name="bar" unicode="|" horiz-adv-x="466" 
d="M696 1365l-545.001 -1479c-5.33301 -14.667 -10.5 -33.334 -15.5 -56.001s-10.833 -42.334 -17.5 -59.001c-3.33301 -9.33301 -11.666 -16.5 -24.999 -21.5s-25.333 -7.83301 -36 -8.5s-25.667 -1 -45 -1c-24 0 -36 13 -36 39c0 20 8.66699 50.333 26 91l261 708.5
c174 472.333 268 728.833 282 769.5c2.66699 11.333 4.5 22.166 5.5 32.499s2.33301 19.166 4 26.499s5.5 18 11.5 32c7.33301 17.333 20.5 31.833 39.5 43.5s37.833 17.5 56.5 17.5c20 0 35.333 -7 46 -21c6 -9.33301 9 -20 9 -32c0 -7.33301 -1.16699 -15.5 -3.5 -24.5
s-5.5 -19.5 -9.5 -31.5s-6.66699 -20.667 -8 -26z" />
    <glyph glyph-name="braceright" unicode="}" horiz-adv-x="570" 
d="M673 993c-2.66699 -33.333 -10.667 -68.8359 -24 -106.503s-26 -71.334 -38 -101.001s-18 -52.167 -18 -67.5c0 -16 5.33301 -28 16 -36c36 -26 54 -49.333 54 -70c0 -5.33301 -0.666992 -9.33301 -2 -12c-2.66699 -8 -6.66699 -15.667 -12 -23
s-11.666 -13.666 -18.999 -18.999s-15.5 -10.833 -24.5 -16.5s-18.833 -11.5 -29.5 -17.5c-17.333 -10.667 -31.666 -22 -42.999 -34s-21 -27.167 -29 -45.5s-14.667 -36.166 -20 -53.499l-24 -75.5c-10.667 -33 -21.667 -64.5 -33 -94.5
c-20.667 -53.333 -49 -104.833 -85 -154.5s-74.833 -93 -116.5 -130s-84.334 -69 -128.001 -96s-85.167 -46.833 -124.5 -59.5c-7.33301 -2 -14.666 -3 -21.999 -3c-15.333 0 -27 5.5 -35 16.5s-12 24.5 -12 40.5c0 12 2 23 6 33c5.33301 13.333 20.833 29.833 46.5 49.5
s57.5 39.5 95.5 59.5c36.667 20 80 60.167 130 120.5s85.667 119.5 107 177.5c11.333 30.667 21.666 63.5 30.999 98.5l22 84c5.33301 21 12.333 42.333 21 64s20 40.167 34 55.5s32 28.666 54 39.999c-8.66699 24.667 -13 48.334 -13 71.001s5.16699 45.834 15.5 69.501
l39.5 89.5c16 36 28.333 74.667 37 116c3.33301 15.333 5 33.333 5 54c0 44 -6 91.833 -18 143.5s-25 85.5 -39 101.5c-18 20.667 -30.833 36.834 -38.5 48.501s-11.5 22.834 -11.5 33.501c0 6 1.66699 12.667 5 20c7.33301 18.667 18.5 33.5 33.5 44.5
s29.833 16.5 44.5 16.5c13.333 0 24 -4.66699 32 -14c41.333 -50 73.666 -107.667 96.999 -173s35 -131.333 35 -198c0 -10.667 -0.666992 -26.334 -2 -47.001z" />
    <glyph glyph-name="asciitilde" unicode="~" horiz-adv-x="1060" 
d="M861 531c26 14.667 47.335 22 64.002 22c18.667 0 32.667 -8.33301 42 -25c10 -16 15 -31.667 15 -47c0 -28.667 -23.333 -53.667 -70 -75c-51.333 -22 -102.333 -33 -153 -33c-64 0 -127.667 16.667 -191 50c-56 28.667 -107.667 43 -155 43
c-42 0 -74.333 -11.667 -97 -35c-32 -32.667 -62.667 -49 -92 -49c-26.667 0 -43.667 15.667 -51 47c-2 8 -3 15.667 -3 23c0 15.333 4.33301 29 13 41s18.667 21 30 27s23 13 35 21c46.667 28.667 104 43 172 43c49.333 0 91.666 -8.66699 126.999 -26
c83.333 -42.667 148.666 -64 195.999 -64c38 0 77.333 12.333 118 37z" />
    <glyph glyph-name="dieresis" unicode="&#xa8;" 
d="M569 1395c21.333 0 44 -11.999 68 -35.999s36 -46.333 36 -67c0 -26 -11.167 -50.333 -33.5 -73s-53.166 -34 -92.499 -34c-34 0 -58.333 9.66699 -73 29s-22 42.333 -22 69c0 37.333 10.667 65.166 32 83.499s49.666 27.833 84.999 28.5zM890 1395l3.00098 -0.000976562
c18 0 33.833 -3.33301 47.5 -10s24.167 -15.5 31.5 -26.5s12.666 -22.167 15.999 -33.5s5 -22.666 5 -33.999c0 -1.33301 -0.166992 -2.83301 -0.5 -4.5s-0.5 -2.83398 -0.5 -3.50098c-6.66699 -74 -47.667 -111 -123 -111c-34 0 -59.333 10.833 -76 32.5
s-25 45.834 -25 72.501c0 37.333 11.833 66.333 35.5 87s52.5 31 86.5 31z" />
    <glyph glyph-name="degree" unicode="&#xb0;" horiz-adv-x="731" 
d="M405 1224c6.66699 88.667 33 151.832 79 189.499s116.333 56.5 211 56.5c84 0 145.333 -17.167 184 -51.5s58 -87.166 58 -158.499c0 -14.667 -1 -30.667 -3 -48c-4 -41.333 -14 -76 -30 -104s-38 -50 -66 -66s-59.5 -27.167 -94.5 -33.5s-76.167 -9.5 -123.5 -9.5
c-143.333 0 -215 66 -215 198v27zM540 1231l0.000976562 -10c0 -28 10.667 -51.5 32 -70.5s49 -28.5 83 -28.5c54.667 0 92.667 9 114 27s33.333 42 36 72c0.666992 2.66699 1 6.66699 1 12c0 19.333 -4.66699 36.833 -14 52.5s-20.833 27.5 -34.5 35.5s-27 14.167 -40 18.5
s-24.5 6.5 -34.5 6.5c-10.667 0 -23 -2 -37 -6s-28.833 -10.167 -44.5 -18.5s-29.334 -20.5 -41.001 -36.5s-18.5 -34 -20.5 -54z" />
    <glyph glyph-name="plusminus" unicode="&#xb1;" horiz-adv-x="1030" 
d="M627 913l73.001 204.002c2.66699 11.333 4.5 22.166 5.5 32.499s2.33301 19.333 4 27s5.5 18.167 11.5 31.5c7.33301 17.333 20.5 31.833 39.5 43.5s37.833 17.5 56.5 17.5c20 0 35 -7 45 -21c6.66699 -8.66699 10 -19.334 10 -32.001c0 -10 -3.33301 -25.5 -10 -46.5
s-10.334 -32.833 -11.001 -35.5l-81 -221l243 1c44.667 0 67 -19.667 67 -59c0 -16 -4.33301 -34.333 -13 -55c-6.66699 -18 -21.667 -27 -45 -27c-9.33301 0 -22.333 1.83301 -39 5.5s-26.667 5.5 -30 5.5h-231l-75 -203c-5.33301 -14.667 -10.5 -33.334 -15.5 -56.001
s-10.833 -42.667 -17.5 -60c-3.33301 -9.33301 -11.5 -16.333 -24.5 -21s-25 -7.33398 -36 -8.00098s-25.833 -1 -44.5 -1c-24.667 0 -37 12.333 -37 37c0 21.333 8.66699 52.333 26 93l81 219h-218c-24.667 0 -44.5 4.83301 -59.5 14.5s-22.5 28.834 -22.5 57.501v7
c1.33301 22.667 8.5 38.334 21.5 47.001s30.833 13 53.5 13c13.333 0 33.5 -1.83301 60.5 -5.5s46.167 -5.5 57.5 -5.5h8zM747.001 208.002l-591 -0.00195312c-24.667 0 -44.5 4.83301 -59.5 14.5s-22.5 28.834 -22.5 57.501v7c0.666992 22.667 7.5 38.334 20.5 47.001
s31.167 13 54.5 13c12.667 0 32.667 -1.66699 60 -5s46.333 -5 57 -5h7l534 1c44.667 0 67 -19.667 67 -59c0 -16 -4 -34 -12 -54c-6.66699 -18.667 -21.667 -28 -45 -28c-10 0 -23.167 1.83301 -39.5 5.5s-26.5 5.5 -30.5 5.5z" />
    <glyph glyph-name="acute" unicode="&#xb4;" 
d="M920 1290c-17.333 -20.667 -43 -48.3369 -77 -83.0039l-51 -52l-47.5 -43.5c-12.333 -11.667 -24.666 -20.667 -36.999 -27s-25.5 -9.5 -39.5 -9.5c-18 0 -27 6.66699 -27 20c0 6 2 13.333 6 22s8.16699 16.834 12.5 24.501s6.83301 12.5 7.5 14.5
c6 14.667 12.5 28.834 19.5 42.501s14.5 26.334 22.5 38.001s16.833 23.834 26.5 36.501s19.667 25 30 37l33.5 40c42.667 49.333 75 74 97 74c27.333 0 46.166 -2.5 56.499 -7.5s15.5 -12.833 15.5 -23.5c0 -7.33301 -1.66699 -16 -5 -26
c-3.33301 -8 -5.66602 -15 -6.99902 -21s-2.33301 -10.167 -3 -12.5s-3.33398 -6.83301 -8.00098 -13.5s-13 -16.667 -25 -30z" />
    <glyph glyph-name="multiply" unicode="&#xd7;" horiz-adv-x="865" 
d="M970 923c-4.66699 -7.33301 -45.4951 -45.498 -122.495 -114.498l-195.5 -169.5l144 -314c0.666992 0 1 -5.66699 1 -17c0 -24.667 -4 -42 -12 -52c-6.66699 -10 -14.167 -16.667 -22.5 -20s-19.5 -5 -33.5 -5c-32 4.66699 -54 26 -66 64l-119 253l-317 -270
c-22.667 -22 -49 -33 -79 -33c-16 0 -28.833 5.66699 -38.5 17s-14.5 24.666 -14.5 39.999c0 4 0.666992 9.33301 2 16c2 8 6.66699 19 14 33s15.666 25.333 24.999 34l349 291l-152 315c-6 12.667 -9 23.667 -9 33c0 18 8 30.833 24 38.5s33.667 11.5 53 11.5
c18.667 0 33.167 -4.33301 43.5 -13s21.166 -25.334 32.499 -50.001l119 -246l254 218c9.33301 7.33301 21.166 18 35.499 32s26.166 24.667 35.499 32s17.666 11 24.999 11c27.333 0 46.166 -2.66699 56.499 -8s15.5 -13.333 15.5 -24c0 -7.33301 -1.66699 -16 -5 -26
c-5.33301 -16 -9.16602 -26.333 -11.499 -31s-12.833 -20 -31.5 -46z" />
    <glyph glyph-name="divide" unicode="&#xf7;" horiz-adv-x="776" 
d="M624 590l-337.999 -1.00195c-24.667 0 -44.5 4.83301 -59.5 14.5s-22.5 28.834 -22.5 57.501v7c0.666992 22.667 7.5 38.334 20.5 47.001s31.167 13 54.5 13c13.333 0 33.666 -1.66699 60.999 -5s46.333 -5 57 -5h3.5h3.5l281 1c44.667 0 67 -19.333 67 -58
c0 -16 -4 -34.333 -12 -55c-7.33301 -18.667 -22.333 -28 -45 -28c-10 0 -23.333 2 -40 6s-27 6 -31 6zM604.001 1074l1.99902 -0.000976562c18.667 0 34.667 -3.5 48 -10.5s23.5 -16.167 30.5 -27.5s12.167 -22.5 15.5 -33.5s5 -22.167 5 -33.5v-8
c-6 -73.333 -47 -110 -123 -110c-34 0 -59.333 10.667 -76 32s-25 45.333 -25 72c0 36.667 11.833 65.334 35.5 86.001s52.834 31.667 87.501 33zM392 463.997l2.99902 -0.000976562c18 0 33.833 -3.5 47.5 -10.5s24 -16.167 31 -27.5s12.167 -22.5 15.5 -33.5
s5 -22.167 5 -33.5v-8c-6.66699 -73.333 -48 -110 -124 -110c-33.333 0 -58.5 10.667 -75.5 32s-25.5 45.333 -25.5 72c0 37.333 11.833 66.333 35.5 87s52.834 31.334 87.501 32.001z" />
    <glyph glyph-name="circumflex" unicode="&#x2c6;" 
d="M850 1367l134 -196.999c0.666992 0 1 -6 1 -18c0 -24 -4 -41.333 -12 -52c-11.333 -16.667 -30.333 -25 -57 -25c-7.33301 1.33301 -13.833 3.16602 -19.5 5.49902s-11 5.83301 -16 10.5s-9.16699 8.83398 -12.5 12.501s-8.16602 9.5 -14.499 17.5l-15.5 19l-97 136
l-203 -140c-8.66699 -6 -15.834 -11.167 -21.501 -15.5s-11.167 -7.83301 -16.5 -10.5s-11.333 -4.5 -18 -5.5s-14.667 -1.5 -24 -1.5c-14.667 0 -25.834 5 -33.501 15s-11.5 22.667 -11.5 38c0 7.33301 0.666992 14 2 20c1.33301 6.66699 5.83301 17.167 13.5 31.5
s15.834 26.166 24.501 35.499l229 161l12 8c7.33301 5.33301 18 10.833 32 16.5s27.333 8.5 40 8.5c38 0 66 -23.333 84 -70z" />
    <glyph glyph-name="caron" unicode="&#x2c7;" 
d="M606 1129l-126.002 195v18c0 24 4 41.333 12 52c12 16.667 30.667 25 56 25c11.333 -1.33301 20.333 -5 27 -11s13.834 -15 21.501 -27s13.5 -20.667 17.5 -26l100 -135l197 144c24 22.667 50.667 34 80 34c14.667 0 25.834 -5 33.501 -15s11.5 -23 11.5 -39
c0 -6.66699 -1 -13.334 -3 -20.001c-8 -28 -20.667 -50 -38 -66l-221 -166l-11 -8c-8 -5.33301 -19 -10.666 -33 -15.999s-27.667 -8 -41 -8c-37.333 0 -65 23 -83 69z" />
    <glyph glyph-name="breve" unicode="&#x2d8;" 
d="M532 1360c16 0 30.6631 -5.67383 43.9961 -17.0068c8 -6 17.333 -16.167 28 -30.5s20.334 -26.666 29.001 -36.999s21.834 -20 39.501 -29s38.167 -13.5 61.5 -13.5h1c18.667 0 35.167 3 49.5 9s26.833 13.833 37.5 23.5s21 19.834 31 30.501s22.667 21.834 38 33.501
s32 20.834 50 27.501c10 4.66699 19.333 7 28 7c14 0 24.333 -5.66699 31 -17s10 -25.333 10 -42c0 -13.333 -2 -25.666 -6 -36.999c-4 -10.667 -13.667 -24.167 -29 -40.5s-35.333 -33.666 -60 -51.999s-55.667 -34.333 -93 -48s-75.666 -20.834 -114.999 -21.501h-6
c-31.333 0 -60.333 5.33301 -87 16s-48.5 23.5 -65.5 38.5s-31.667 31.333 -44 49s-21.166 33.334 -26.499 47.001s-8 24.834 -8 33.501c0 19.333 6.16699 35.833 18.5 49.5s26.833 20.5 43.5 20.5z" />
    <glyph glyph-name="Alpha" unicode="&#x391;" horiz-adv-x="1035" 
d="M461 467l-249.997 -388.999c-2 -4 -5.5 -9.5 -10.5 -16.5s-12.333 -15.667 -22 -26s-22.334 -19 -38.001 -26s-32.167 -10.5 -49.5 -10.5h-3c-31.333 0 -47 15 -47 45c0 2.66699 1.33301 11.334 4 26.001l793 1240c9.33301 15.333 19 26.166 29 32.499s22 9.5 36 9.5h74
c22.667 0 34 -12.667 34 -38v-11l-105 -1205c-0.666992 -10.667 -0.333984 -20.834 0.999023 -30.501s1.66602 -18.5 0.999023 -26.5c-2 -13.333 -9 -23.5 -21 -30.5s-25 -10.5 -39 -10.5c-56 -0 -84 28.333 -84 85c0 4.66699 0.333008 8 1 10l30 373zM857.003 1097
l-326 -519l271 1z" />
    <glyph glyph-name="Beta" unicode="&#x392;" horiz-adv-x="830" 
d="M502 907c9.33301 0 21.001 -0.166992 35.001 -0.5s30.667 -0.5 50 -0.5c54.667 0 97.667 13.833 129 41.5s56.666 67.167 75.999 118.5c9.33301 24.667 14 47.667 14 69c0 58 -38 87 -114 87c-47.333 0 -71 0.333008 -71 1h-2zM294.001 337
c-33.333 -92.667 -49.999 -149.998 -49.999 -171.998c0 -14.667 4.5 -24.334 13.5 -29.001s23.833 -7 44.5 -7c6 0 16.5 0.166992 31.5 0.5s27.167 0.5 36.5 0.5c21.333 0 39.833 1.66699 55.5 5s34.167 11.166 55.5 23.499s41.166 29.666 59.499 51.999
s38.5 53.833 60.5 94.5s43.667 89.667 65 147c26.667 74 40 135.333 40 184c0 24 -3.33301 44.833 -10 62.5s-15.167 31.5 -25.5 41.5s-22.833 17.833 -37.5 23.5s-28.5 9.33398 -41.5 11.001s-27.167 2.5 -42.5 2.5h-95zM150.002 0.00195312
c-29.333 0 -52.667 5.5 -70 16.5s-26 27.5 -26 49.5c0 12 2.66699 26 8 42l437 1185c14.667 39.333 52.667 59 114 59h123c66.667 0 118.834 -20.667 156.501 -62s56.5 -91 56.5 -149c0 -24.667 -4 -49.667 -12 -75c-49.333 -144.667 -115 -223.667 -197 -237
c12 -5.33301 24.667 -12.833 38 -22.5s25.5 -19.834 36.5 -30.501s20 -26.167 27 -46.5s10.5 -44.166 10.5 -71.499c0 -60.667 -18.333 -142 -55 -244c-17.333 -48 -34 -90.5 -50 -127.5s-32.333 -69.833 -49 -98.5s-32.5 -53.167 -47.5 -73.5s-31.833 -37.5 -50.5 -51.5
s-36.334 -25 -53.001 -33s-36.667 -14.333 -60 -19s-45.333 -7.66699 -66 -9s-46 -2 -76 -2h-195z" />
    <glyph glyph-name="Gamma" unicode="&#x393;" horiz-adv-x="728" 
d="M619 1223l-401 -1077c-5.33301 -14.667 -10.5 -33.334 -15.5 -56.001s-10.833 -42.667 -17.5 -60c-3.33301 -9.33301 -11.666 -16.333 -24.999 -21s-25.333 -7.33398 -36 -8.00098s-25.667 -1 -45 -1c-24 0 -36 12.667 -36 38c0 19.333 8.33301 50 25 92l435 1178
c9.33301 27.333 36.333 42 81 44h476c44 0 66 -19.333 66 -58c0 -16.667 -4 -35.334 -12 -56.001c-6.66699 -18 -21.667 -27 -45 -27c-10 0 -23.333 1.83301 -40 5.5s-26.334 5.83398 -29.001 6.50098h-381z" />
    <glyph glyph-name="Delta" unicode="&#x394;" horiz-adv-x="1035" 
d="M245 130h532l84 967zM92 1c-18.667 0 -31.668 4.66895 -39.001 14.002s-11 20.333 -11 33c0 5.33301 1 12.666 3 21.999l793 1240c9.33301 15.333 19 26.166 29 32.499s22 9.5 36 9.5h74c22.667 0 34 -12.667 34 -38v-11l-105 -1205c-2 -34.667 -3 -53.667 -3 -57
c-2 -12.667 -9.66699 -22.667 -23 -30s-27.666 -11 -42.999 -11c-8 0 -131 0.166992 -369 0.5s-363.333 0.5 -376 0.5z" />
    <glyph glyph-name="Epsilon" unicode="&#x395;" horiz-adv-x="820" 
d="M215 130c0 1.33301 142.666 2.00098 427.999 2.00098c20 0 35.333 -5.83301 46 -17.5s16 -26.167 16 -43.5c0 -18.667 -6.16699 -35.167 -18.5 -49.5s-28.833 -21.5 -49.5 -21.5h-1h-538c-38 0 -57 13.333 -57 40c0 9.33301 2.33301 19.333 7 30l458 1242
c10 26.667 32.667 40 68 40h459c45.333 0 68 -19.333 68 -58c0 -16.667 -4 -35.334 -12 -56.001c-7.33301 -18 -22.666 -27 -45.999 -27c-10 0 -23.333 1.83301 -40 5.5s-26.667 5.83398 -30 6.50098l-355 -1l-163 -444h281h1c20 0 35.333 -5.83301 46 -17.5
s16 -25.834 16 -42.501c0 -18 -6.16699 -34.333 -18.5 -49s-28.833 -22 -49.5 -22h-2h-324z" />
    <glyph glyph-name="Zeta" unicode="&#x396;" horiz-adv-x="841" 
d="M1105 1285c-6 -16.667 -46.832 -76.5 -122.499 -179.5l-226 -302.5l-296.5 -387.5l-218 -285.5h378c45.333 0 68 -19.333 68 -58c0 -16.667 -4.33301 -35 -13 -55c-6.66699 -18.667 -21.667 -28 -45 -28c-10 0 -23.333 2 -40 6s-26.667 6 -30 6l-486 -1
c-26 0 -39 9 -39 27c0 6 1.33301 12.333 4 19c5.33301 14 32 54.667 80 122l174 237l221 293l222 291.5l177 232.5h-329c-24.667 0 -44.667 5 -60 15s-23 29.333 -23 58c0 2.66699 0.333008 5 1 7c0 22.667 6.5 38.334 19.5 47.001s31.167 13 54.5 13
c13.333 0 33.666 -1.66699 60.999 -5s46.333 -5 57 -5h7h385c17.333 0 26 -10.667 26 -32c0 -10.667 -2.33301 -22.334 -7 -35.001z" />
    <glyph glyph-name="Eta" unicode="&#x397;" horiz-adv-x="887" 
d="M1108 1240l-406 -1111l-28 -65c-4.66699 -12.667 -10 -23.167 -16 -31.5s-11.833 -14.833 -17.5 -19.5s-14.667 -8 -27 -10s-23 -3.16699 -32 -3.5s-24.167 -0.5 -45.5 -0.5c-28 0 -38 11 -30 33c5.33301 13.333 12.833 27.666 22.5 42.999s18.5 33.333 26.5 54
c13.333 32.667 48.166 127 104.499 283s84.5 234.333 84.5 235h-338l-209 -568c-14.667 -37.333 -26.667 -59.833 -36 -67.5s-29.333 -11.5 -60 -11.5h-15c-32.667 0 -49 10.333 -49 31c0 4.66699 0.666992 9.66699 2 15s3.33301 12 6 20s4.33398 12.667 5.00098 14l206 552
c136.667 367.333 211.667 571.333 225 612c18 48.667 33 79.167 45 91.5s35 18.5 69 18.5c30.667 0 46 -15 46 -45c0 -15.333 -4.66699 -37 -14 -65l-174 -466h339l54.5 151l59 162.5l57.5 148.5c8 20 14.833 38.167 20.5 54.5s15 29.666 28 39.999s30.167 15.5 51.5 15.5
c39.333 0 59 -15.667 59 -47c0 -18 -4.66699 -39 -14 -63z" />
    <glyph glyph-name="Theta" unicode="&#x398;" horiz-adv-x="916" 
d="M803 1222c-47.333 0 -90.4971 -16.8291 -129.497 -50.4961s-77.667 -87.334 -116 -161.001s-81.833 -176.5 -130.5 -308.5c-44 -119.333 -76.833 -216.333 -98.5 -291s-32.5 -133.667 -32.5 -177c0 -35.333 7.16699 -61.5 21.5 -78.5s36.833 -25.5 67.5 -25.5
c35.333 0 69.166 9.16699 101.499 27.5s62.166 43.166 89.499 74.499s55.166 72.666 83.499 123.999s54.833 105.333 79.5 162s51.667 124 81 202c37.333 99.333 64.833 179.333 82.5 240s26.5 110 26.5 148c0 39.333 -10 68.166 -30 86.499s-52 27.5 -96 27.5z
M279.003 698.004l70.002 182.998c19.333 49.333 39.666 97.833 60.999 145.5s40.5 86.167 57.5 115.5s36.167 57.333 57.5 84s42.166 47.167 62.499 61.5s43.666 26.833 69.999 37.5s53.833 17.834 82.5 21.501s61.334 5.5 98.001 5.5c41.333 0 75.833 -2.5 103.5 -7.5
s52.5 -14.167 74.5 -27.5s38.333 -32.166 49 -56.499s16 -54.833 16 -91.5c0 -95.333 -39.333 -249 -118 -461c-84 -228 -149 -383 -195 -465c-54 -97.333 -114.667 -163.333 -182 -198c-57.333 -30 -133.333 -45 -228 -45c-72.667 0 -126.167 14.167 -160.5 42.5
s-51.5 75.833 -51.5 142.5c0 101.333 44.333 272.333 133 513zM615.005 621.002l-47 -0.00195312c-24.667 0 -44.667 4.83301 -60 14.5s-23 28.5 -23 56.5c0 0.666992 0.166992 1.83398 0.5 3.50098s0.5 2.83398 0.5 3.50098c0.666992 40.667 21 61 61 61
c11.333 0 29 -1.83301 53 -5.5s41.333 -5.5 52 -5.5h8l28 1c39.333 0 59 -15.667 59 -47c0 -17.333 -5.66699 -39.333 -17 -66c-6.66699 -18.667 -21.667 -28 -45 -28c-10 0 -23.167 2 -39.5 6s-26.5 6 -30.5 6z" />
    <glyph glyph-name="Iota" unicode="&#x399;" horiz-adv-x="442" 
d="M617 1214l-397.002 -1069c-5.33301 -15.333 -10.333 -34.333 -15 -57s-10 -42.334 -16 -59.001c-4 -9.33301 -12.667 -16.333 -26 -21s-25.333 -7.33398 -36 -8.00098s-25.667 -1 -45 -1c-24 0 -36 12.667 -36 38c0 20.667 8.33301 51.334 25 92.001l187 503
c124.667 335.333 193.667 523.333 207 564c2 11.333 3.66699 22.166 5 32.499s2.83301 19.333 4.5 27s5.83398 18.167 12.501 31.5c7.33301 17.333 20.333 32 39 44s37.334 18 56.001 18c20.667 0 36 -7.33301 46 -22c6 -8.66699 9 -19 9 -31
c0 -10 -3.16699 -25.667 -9.5 -47s-9.83301 -33 -10.5 -35z" />
    <glyph glyph-name="Kappa" unicode="&#x39a;" horiz-adv-x="829" 
d="M591 729l40.999 -134.998c27.333 -90.667 54.833 -189.167 82.5 -295.5s41.834 -175.5 42.501 -207.5c0.666992 0 1 -6 1 -18c0 -24 -3.66699 -41.333 -11 -52c-12 -16.667 -31.333 -25 -58 -25c-31.333 4.66699 -53 26.334 -65 65.001l-74 262
c-50 174.667 -81.667 292 -95 352l-42 -9l-195 -520c-5.33301 -14.667 -10.5 -33.334 -15.5 -56.001s-10.833 -42.667 -17.5 -60c-3.33301 -9.33301 -11.666 -16.333 -24.999 -21s-25.333 -7.33398 -36 -8.00098s-25.667 -1 -45 -1c-24 0 -36 12.667 -36 38
c0 19.333 8.33301 50 25 92l412 1112c18.667 48.667 34 79.167 46 91.5s34.667 18.5 68 18.5c30.667 0 46 -15 46 -45c0 -18 -4.66699 -39.667 -14 -65l-157 -422c66 43.333 142.667 107.333 230 192s154.666 157.667 201.999 219l32 40
c8.66699 10.667 19.5 23.167 32.5 37.5s25.167 25.166 36.5 32.499s21 11 29 11c40 0 60 -15.667 60 -47c0 -16 -4.66699 -37 -14 -63c-4 -10 -13 -25 -27 -45l-21 -30c-37.333 -50.667 -103.5 -123.167 -198.5 -217.5s-174.833 -167.833 -239.5 -220.5z" />
    <glyph glyph-name="Lambda" unicode="&#x39b;" horiz-adv-x="1035" 
d="M769 95l92.002 1002l-647 -1019c-1.33301 -3.33301 -4.83301 -8.83301 -10.5 -16.5s-13.5 -16.334 -23.5 -26.001s-23 -18.167 -39 -25.5s-32.667 -11 -50 -11h-3c-31.333 0 -47 15 -47 45c0 2.66699 1.33301 11.334 4 26.001l793 1240
c9.33301 15.333 19 26.166 29 32.499s22 9.5 36 9.5h74c22.667 0 34 -12.667 34 -38v-11l-105 -1205c-0.666992 -10.667 -0.333984 -20.834 0.999023 -30.501s1.66602 -18.5 0.999023 -26.5c-2 -13.333 -9 -23.5 -21 -30.5s-25 -10.5 -39 -10.5
c-53.333 -0 -80 26.333 -80 79c0 6.66699 0.333008 12 1 16z" />
    <glyph glyph-name="Mu" unicode="&#x39c;" horiz-adv-x="1136" 
d="M569 1089l-350.004 -942.999c-5.33301 -14.667 -10.5 -33.334 -15.5 -56.001s-10.5 -42.667 -16.5 -60c-3.33301 -9.33301 -11.666 -16.333 -24.999 -21s-25.333 -7.33398 -36 -8.00098s-25.667 -1 -45 -1c-24 0 -36 12.667 -36 38c0 20.667 8.66699 51.334 26 92.001
l421 1145c10.667 28.667 25.167 49.834 43.5 63.501s37.166 20.5 56.499 20.5c12.667 0 23.834 -2.66699 33.501 -8s15.834 -12.333 18.501 -21l101 -538l503 535c28.667 22 58.334 33 89.001 33c28 0 42 -11 42 -33c0 -8.66699 -1.33301 -17 -4 -25l-425 -1156
c-4.66699 -14.667 -9.5 -33.334 -14.5 -56.001s-10.833 -42.667 -17.5 -60c-3.33301 -9.33301 -11.666 -16.333 -24.999 -21s-25.5 -7.33398 -36.5 -8.00098s-25.833 -1 -44.5 -1c-24 0 -36 12.667 -36 38c0 20.667 8.33301 51.334 25 92.001l328 894l-396 -415
c-11.333 -7.33301 -24.333 -11 -39 -11c-23.333 0 -37.333 6.66699 -42 20z" />
    <glyph glyph-name="Nu" unicode="&#x39d;" horiz-adv-x="864" 
d="M1067 1179l-418.999 -1133c-12.667 -17.333 -22.834 -29.166 -30.501 -35.499s-16.5 -9.5 -26.5 -9.5h-59c-12 0 -20.333 3.5 -25 10.5s-7.33398 19.167 -8.00098 36.5l27 925l-307 -827c-5.33301 -14.667 -10.5 -33.334 -15.5 -56.001s-10.5 -42.667 -16.5 -60
c-3.33301 -9.33301 -11.666 -16.333 -24.999 -21s-25.333 -7.33398 -36 -8.00098s-25.667 -1 -45 -1c-24 0 -36 12.667 -36 38c0 20.667 8.66699 51.334 26 92.001l421 1145c10.667 28.667 25.167 49.834 43.5 63.501s37.166 20.5 56.499 20.5
c12.667 0 23.834 -2.66699 33.501 -8s15.834 -12.333 18.501 -21l-12 -961l303 853l18 43c5.33301 13.333 11 25.333 17 36s12.5 19.834 19.5 27.501s15.667 13.5 26 17.5s22.166 6 35.499 6c26.667 0 46.167 -3.16699 58.5 -9.5s18.5 -16.5 18.5 -30.5
c0 -5.33301 -1.33301 -12.666 -4 -21.999c-7.33301 -23.333 -14 -40.833 -20 -52.5s-12.333 -21.834 -19 -30.501s-12.667 -18 -18 -28z" />
    <glyph glyph-name="Xi" unicode="&#x39e;" horiz-adv-x="916" 
d="M738 637l-300.999 -1.00098c-24.667 0 -44.5 5 -59.5 15s-22.5 29.333 -22.5 58v7c0.666992 22 7.66699 37.5 21 46.5s31.333 13.5 54 13.5c13.333 0 33.5 -1.83301 60.5 -5.5s45.833 -5.5 56.5 -5.5h8l243 2c44.667 0 67 -19.333 67 -58
c0 -17.333 -4.33301 -35.666 -13 -54.999c-6.66699 -18.667 -21.667 -28 -45 -28c-10 0 -23.333 1.83301 -40 5.5s-26.334 5.5 -29.001 5.5zM1047 1223l-476.998 -1.00195c-24.667 0 -44.667 4.83301 -60 14.5s-23 28.834 -23 57.501c0 2.66699 0.333008 5 1 7
c0.666992 22.667 7.5 38.334 20.5 47.001s30.833 13 53.5 13c13.333 0 33.666 -1.83301 60.999 -5.5s46.333 -5.5 57 -5.5h8l407 2c44.667 0 67 -19.333 67 -58c0 -16.667 -4.33301 -35.334 -13 -56.001c-6.66699 -18 -19.667 -27 -39 -27
c-8.66699 0 -20.334 1.83301 -35.001 5.5s-24 5.83398 -28 6.50098zM598.003 0.99707l-476.999 -1.00195c-24.667 0 -44.5 4.83301 -59.5 14.5s-22.5 28.834 -22.5 57.501v7c0.666992 22.667 7.5 38.334 20.5 47.001s30.833 13 53.5 13c13.333 0 33.666 -1.66699 60.999 -5
s46.333 -5 57 -5h7l420 1c44.667 0 67 -19.333 67 -58c0 -16.667 -4 -35 -12 -55c-6.66699 -18.667 -21.667 -28 -45 -28c-10 0 -23.5 2 -40.5 6s-26.833 6 -29.5 6z" />
    <glyph glyph-name="Omicron" unicode="&#x39f;" horiz-adv-x="840" 
d="M778 1222c-40.667 0 -78.4971 -16.6689 -113.497 -50.002s-71.167 -87.166 -108.5 -161.499s-80.333 -177.166 -129 -308.499c-46 -124 -80 -224.667 -102 -302s-33 -137.666 -33 -180.999c0 -59.333 22.667 -89 68 -89c25.333 0 49.666 5.83301 72.999 17.5
s46.166 30.167 68.499 55.5s43.333 53.5 63 84.5s40.667 70.5 63 118.5s43.166 95.667 62.499 143s41.333 104.333 66 171c70.667 187.333 106 319.666 106 396.999c0 70 -28 105 -84 105zM279.003 697.998c80.667 218.667 138.666 362.336 173.999 431.003
c46 89.333 96 149.666 150 180.999c49.333 28 119.333 42 210 42c34 0 62.833 -2.5 86.5 -7.5s45 -13.667 64 -26s33.167 -30 42.5 -53s14 -51.833 14 -86.5c0 -96.667 -40 -253.667 -120 -471l-58.5 -155.5l-52 -131c-18.333 -45 -34.666 -82.333 -48.999 -112
s-30 -59.834 -47 -90.501s-33 -55.334 -48 -74.001s-31.667 -37.167 -50 -55.5s-36.5 -32.333 -54.5 -42s-38.167 -18.5 -60.5 -26.5s-45.333 -13.5 -69 -16.5s-50.167 -4.5 -79.5 -4.5c-68 0 -117.667 12.667 -149 38s-47 68 -47 128c0 52 11.667 120.5 35 205.5
s59.333 193.833 108 326.5z" />
    <glyph glyph-name="Pi" unicode="&#x3a0;" horiz-adv-x="876" 
d="M944 1221l-327.001 -0.998047l-397 -1074c-5.33301 -14.667 -10.5 -33.334 -15.5 -56.001s-10.5 -42.667 -16.5 -60c-4 -9.33301 -12.667 -16.333 -26 -21s-25.333 -7.33398 -36 -8.00098s-25.334 -1 -44.001 -1c-24 0 -36 12.667 -36 38c0 19.333 8.33301 50 25 92
l436 1184c4.66699 12.667 11.834 22.167 21.501 28.5s23.834 9.5 42.501 9.5l484 -2c17.333 0 31.333 -4.66699 42 -14s16 -22.333 16 -39c0 -10 -1.33301 -19 -4 -27l-441 -1195c-14 -38 -25.5 -60.667 -34.5 -68s-28.167 -11 -57.5 -11h-16c-27.333 0 -41 14.333 -41 43
c0 10.667 1.66699 23 5 37z" />
    <glyph glyph-name="Rho" unicode="&#x3a1;" horiz-adv-x="834" 
d="M304 369l-86.001 -223.001c-5.33301 -14.667 -10.5 -33.334 -15.5 -56.001s-10.833 -42.667 -17.5 -60c-3.33301 -9.33301 -11.666 -16.333 -24.999 -21s-25.333 -7.33398 -36 -8.00098s-25.667 -1 -45 -1c-24 0 -36 12.667 -36 38c0 19.333 8.33301 50 25 92l424 1144
c11.333 30.667 26.666 51.334 45.999 62.001s43.666 16 72.999 16h207c73.333 0 127 -11.333 161 -34s51 -64 51 -124c0 -76.667 -31 -198.667 -93 -366l-49.5 -129c-15 -38 -29.833 -72.667 -44.5 -104s-28 -58.666 -40 -81.999s-24.833 -44.166 -38.5 -62.499
s-26 -33.666 -37 -45.999s-24 -22.833 -39 -31.5s-28.333 -15.334 -40 -20.001s-26.5 -8.16699 -44.5 -10.5s-34.167 -3.83301 -48.5 -4.5s-33.166 -1 -56.499 -1c-74 0 -120.667 1.5 -140 4.5s-37.666 12.167 -54.999 27.5zM467.999 814.999
c-30.667 -83.333 -52.332 -145 -64.999 -185s-19 -71.667 -19 -95c0 -26 8.83301 -43.833 26.5 -53.5s47.167 -14.5 88.5 -14.5c46.667 0 79.667 5 99 15c37.333 18.667 75.666 70 114.999 154c22.667 48.667 49 113.667 79 195c56.667 154 85 257.667 85 311
c0 10 -0.666992 18.833 -2 26.5s-4 14.167 -8 19.5l-10.5 13.5c-3 3.66699 -8.33301 6.83398 -16 9.50098s-14 4.66699 -19 6s-13 2.33301 -24 3s-19.5 1 -25.5 1s-16 0.333008 -30 1h-23c-38.667 0 -66 -6.33301 -82 -19c-21.333 -17.333 -47 -64 -77 -140
c-7.33301 -18.667 -38 -101.334 -92 -248.001z" />
    <glyph glyph-name="Sigma" unicode="&#x3a3;" horiz-adv-x="820" 
d="M264 130c0 1.33301 126.333 2.00098 379 2.00098c20 0 35.333 -5.83301 46 -17.5s16 -26.167 16 -43.5c0 -18.667 -6.16699 -35.167 -18.5 -49.5s-28.833 -21.5 -49.5 -21.5h-1h-538c-15.333 0 -27 5.33301 -35 16s-12 24 -12 40c0 15.333 2.66699 30.333 8 45l565 638
l-131 537c-1.33301 22.667 7.16699 41 25.5 55s36.833 21 55.5 21h459c45.333 0 68 -19.333 68 -58c0 -16.667 -4 -35.334 -12 -56.001c-7.33301 -18 -22.666 -27 -45.999 -27c-10 0 -23.333 1.83301 -40 5.5s-26.667 5.83398 -30 6.50098l-330 -1l48 -199
c31.333 -132.667 48.666 -208.334 51.999 -227.001c6.66699 -30.667 10 -52.667 10 -66c0 -16 -3.5 -29.833 -10.5 -41.5s-20.833 -29.5 -41.5 -53.5z" />
    <glyph glyph-name="Tau" unicode="&#x3a4;" horiz-adv-x="890" 
d="M1085 1223l-210.999 -0.998047l-402 -1092c-2.66699 -8.66699 -7.16699 -19.834 -13.5 -33.501s-10.833 -23.834 -13.5 -30.501c-4.66699 -13.333 -9.5 -24 -14.5 -32s-10 -14.5 -15 -19.5s-12.833 -8.5 -23.5 -10.5s-20.334 -3.16699 -29.001 -3.5
s-23.334 -0.5 -44.001 -0.5c-14 0 -24.667 4 -32 12s-11 17.667 -11 29c0 7.33301 2.33301 14.166 7 20.499l19.5 27c8.33301 11.667 15.833 25.5 22.5 41.5c9.33301 23.333 34.333 89.666 75 198.999l170 461.5l158 431.5h-323c-24 0 -43.667 4.83301 -59 14.5
s-23 28.834 -23 57.501v7c1.33301 22.667 8.5 38.334 21.5 47.001s30.833 13 53.5 13c13.333 0 33.5 -1.83301 60.5 -5.5s46.167 -5.5 57.5 -5.5h8l621 2c23.333 0 40.5 -5.16699 51.5 -15.5s16.5 -24.5 16.5 -42.5c0 -16.667 -4 -35.334 -12 -56.001
c-7.33301 -18 -22.666 -27 -45.999 -27c-10 0 -23.333 1.83301 -40 5.5s-26.667 5.83398 -30 6.50098z" />
    <glyph glyph-name="Upsilon" unicode="&#x3a5;" horiz-adv-x="777" 
d="M483 702l-106.999 564.999c-2.66699 8 -4 16.667 -4 26c0 20 7.33301 34.5 22 43.5s31.334 13.5 50.001 13.5c20 0 35.333 -4.16699 46 -12.5s21 -25.166 31 -50.499l76 -442l363 434l36 34c16 15.333 28.333 26 37 32s16.667 9 24 9c26.667 0 45.167 -2.66699 55.5 -8
s15.5 -13.333 15.5 -24c0 -6 -1.66699 -14.333 -5 -25c-3.33301 -8 -5.5 -15.167 -6.5 -21.5s-1.83301 -10.666 -2.5 -12.999s-3.33398 -6.83301 -8.00098 -13.5s-13 -16.667 -25 -30l-454 -524l-207 -549c-6 -15.333 -11.333 -34.333 -16 -57s-10 -42.334 -16 -59.001
c-3.33301 -9.33301 -11.833 -16.333 -25.5 -21s-25.834 -7.33398 -36.501 -8.00098s-25.667 -1 -45 -1c-24 0 -36 12.667 -36 38c0 20.667 8.66699 51.334 26 92.001l96 255c64 170 102.667 275.667 116 317z" />
    <glyph glyph-name="Phi" unicode="&#x3a6;" horiz-adv-x="1181" 
d="M1048 1308l-36.999 -101.002l151 1h1c98 0 147 -56.667 147 -170c0 -82.667 -27 -197.667 -81 -345c-68.667 -186 -116.667 -305 -144 -357c-34.667 -65.333 -73.334 -108.333 -116.001 -129c-36.667 -17.333 -95 -26 -175 -26h-17l-141 -3l-16 -48l-14 -31
c-6.66699 -14.667 -11.334 -25.667 -14.001 -33c-4 -12 -7.5 -21.333 -10.5 -28s-7 -12.667 -12 -18s-9.33301 -9.16602 -13 -11.499s-10.334 -4.33301 -20.001 -6s-18.167 -2.5 -25.5 -2.5h-37c-15.333 0 -27 3.16699 -35 9.5s-10.333 14.166 -7 23.499
c5.33301 14 11.333 28.667 18 44l22 53l13 30l-2 -6.5l-2 -6.5l13 31l-148 3c-56 0 -97.333 10 -124 30s-40 55.333 -40 106c0 77.333 33.333 206.333 100 387l42 113.5l37.5 94.5c13.667 33.333 25.334 60 35.001 80s20.667 41.167 33 63.5s23.5 39.833 33.5 52.5
s21.5 25.5 34.5 38.5s25.667 22.667 38 29s26.5 12.333 42.5 18s32.5 9.33398 49.5 11.001s36.167 2.83398 57.5 3.50098h181l30 82c8.66699 22.667 22.334 40.834 41.001 54.501s38.667 20.5 60 20.5h2c12 0 23.5 -4.66699 34.5 -14s16.5 -20 16.5 -32
c0 -4.66699 -0.666992 -8.33398 -2 -11.001zM965.001 1077l-281.999 -768.001l87 2h9c65.333 0 113.666 13.667 144.999 41c30 26.667 61.667 82.334 95 167.001c10 25.333 31 82 63 170c30 82 51.667 145.833 65 191.5s20 82.5 20 110.5c0 30 -8.33301 51.667 -25 65
s-43.667 20 -81 20c0 0.666992 -32 1 -96 1zM819.002 1076l-84.001 -2.00098h-9c-67.333 0 -119.666 -21.333 -156.999 -64c-31.333 -36 -67.666 -108 -108.999 -216l-35 -96c-32.667 -88 -56.334 -156.167 -71.001 -204.5s-22 -86.166 -22 -113.499
c0 -24 6.16699 -41.5 18.5 -52.5s31.5 -16.5 57.5 -16.5h5l124 -2z" />
    <glyph glyph-name="Chi" unicode="&#x3a7;" horiz-adv-x="971" 
d="M971 1282c17.333 22 34.833 40 52.5 54s32.5 21 44.5 21c27.333 0 46.166 -2.66699 56.499 -8s15.5 -13.333 15.5 -24c0 -6.66699 -2 -15.334 -6 -26.001c-5.33301 -16.667 -9 -27.167 -11 -31.5s-12.333 -19.5 -31 -45.5c-123.333 -175.333 -253.666 -350 -390.999 -524
l56 -602c0.666992 0 1 -6 1 -18c0 -24 -3.66699 -41.333 -11 -52c-12 -16.667 -31.333 -25 -58 -25c-18 2.66699 -33.167 10.334 -45.5 23.001s-18.833 26.667 -19.5 42l-48 473l-364 -461c-4.66699 -4.66699 -10.5 -11.834 -17.5 -21.501s-13 -17.167 -18 -22.5
s-11.5 -11.166 -19.5 -17.499s-17.167 -10.833 -27.5 -13.5s-22.5 -4 -36.5 -4h-5c-28.667 0 -43 15.333 -43 46c0 12 1.66699 23.333 5 34l505 660l-53 530c0 1.33301 -0.166992 3.5 -0.5 6.5s-0.5 5.5 -0.5 7.5c0 46 22.667 69 68 69c23.333 0 41.5 -4.16699 54.5 -12.5
s20.167 -24.833 21.5 -49.5l36 -387z" />
    <glyph glyph-name="Psi" unicode="&#x3a8;" horiz-adv-x="1181" 
d="M1387 1175l-4 -14.999c-2 -10 -14.333 -47.833 -37 -113.5l-94 -264.5c-24 -64 -46.167 -119 -66.5 -165s-41.333 -85.667 -63 -119s-42.5 -60.333 -62.5 -81s-42.667 -37 -68 -49s-50.833 -20.333 -76.5 -25s-56.167 -7.33398 -91.5 -8.00098l-141 -3l-76 -206
c-16.667 -40.667 -25.334 -62 -26.001 -64l-11 -28c-2.66699 -6.66699 -6.66699 -12.834 -12 -18.501s-9.66602 -9.66699 -12.999 -12s-10 -4.16602 -20 -5.49902s-18.667 -2 -26 -2h-37c-15.333 0 -27 3.16699 -35 9.5s-10.333 13.833 -7 22.5l19 44
c6.66699 15.333 14 33.333 22 54l81 206l-147 3c-100.667 2 -151 60 -151 174c0 72 20.333 166.667 61 284c32 93.333 58.5 167 79.5 221s34.833 86.667 41.5 98l20 35c6.66699 12 13 27.667 19 47c1.33301 7.33301 2 12 2 14c0 8 -3.83301 16.5 -11.5 25.5
s-11.5 18.167 -11.5 27.5c0 5.33301 1.66699 13.333 5 24c5.33301 17.333 20.5 32.166 45.5 44.499s50.5 18.5 76.5 18.5c27.333 0 46.333 -7.33301 57 -22c6 -8.66699 9 -19 9 -31c0 -8 -1 -16.5 -3 -25.5s-5 -19.5 -9 -31.5s-6.66699 -20.667 -8 -26
c-27.333 -74 -53.5 -139.333 -78.5 -196s-55.167 -133 -90.5 -229c-38.667 -103.333 -58 -181 -58 -233c0 -58 23.667 -87.667 71 -89l124 -2l270 740l30 83c8 22.667 21.333 40.834 40 54.501s38.667 20.5 60 20.5h1c12.667 0 24.5 -4.83301 35.5 -14.5
s16.5 -20.5 16.5 -32.5c0 -2 -0.333008 -5.33301 -1 -10l-38 -102l-267 -739l86 2c26.667 1.33301 48.834 3.5 66.501 6.5s35.167 8.83301 52.5 17.5s32.166 19.667 44.499 33s25.5 32.166 39.5 56.499s27.333 52 40 83s27 69.833 43 116.5l150 440
c8.66699 24.667 15.667 43.167 21 55.5s12.333 25.333 21 39s19 23.167 31 28.5s26.333 8 43 8c26.667 0 46.167 -3.16699 58.5 -9.5s18.5 -16.5 18.5 -30.5c0 -5.33301 -1.33301 -13 -4 -23c-9.33301 -29.333 -20 -52.166 -32 -68.499s-20 -30.5 -24 -42.5z" />
    <glyph glyph-name="Omega" unicode="&#x3a9;" horiz-adv-x="942" 
d="M120 0c-24 0 -42.502 6.00488 -55.502 18.0049s-19.5 26.667 -19.5 44c0 18 6.83301 34 20.5 48s32.167 21 55.5 21h44c15.333 0 27.666 0.166992 36.999 0.5s18 1.66602 26 3.99902l17 5c3.33301 1 7.33301 4.66699 12 11s7.83398 11.5 9.50098 15.5l9.5 23
c2.66699 7.33301 4 16.666 4 27.999c0 25.333 -6 44.666 -18 57.999c-26 28.667 -39 71.667 -39 129c0 92.667 33.667 230.667 101 414c22 58.667 41.833 108.834 59.5 150.501s36.667 82.334 57 122.001s40.5 72.5 60.5 98.5s42.167 50.167 66.5 72.5s50.5 39.5 78.5 51.5
s58.833 21.333 92.5 28s71.167 10 112.5 10c35.333 0 67.333 -4 96 -12s54.667 -20.833 78 -38.5s41.333 -42 54 -73s19 -67.833 19 -110.5c0 -78.667 -21.667 -175.334 -65 -290.001c-22 -58 -43.5 -110.833 -64.5 -158.5s-39.5 -87.5 -55.5 -119.5
s-33.167 -61.833 -51.5 -89.5s-33 -48.834 -44 -63.501s-25.167 -29.834 -42.5 -45.501s-29.5 -26.167 -36.5 -31.5l-35.5 -26c-12 -9.33301 -22.833 -22.166 -32.5 -38.499s-16.167 -30.5 -19.5 -42.5s-6.33301 -21.667 -9 -29c-4 -6.66699 -6 -13 -6 -19
c0 -12 7.16699 -20.667 21.5 -26s38.5 -8 72.5 -8h10c18.667 0 33.167 -6 43.5 -18s15.5 -26 15.5 -42c0 -19.333 -6.33301 -36 -19 -50s-30 -21 -52 -21c-115.333 0 -187 3.66699 -215 11c-34.667 9.33301 -52 29.333 -52 60c0 21.333 6.66699 51 20 89
c19.333 51.333 46.833 104 82.5 158s64.834 89.667 87.501 107c40 31.333 80.5 82.166 121.5 152.499s79.833 157.833 116.5 262.5c38.667 108.667 58 192 58 250c0 44 -10.667 77 -32 99s-54.333 33 -99 33c-71.333 0 -133 -29.667 -185 -89s-105.333 -163 -160 -311
c-69.333 -188 -104 -314.333 -104 -379c0 -20.667 3 -36.334 9 -47.001c2.66699 -5.33301 6.5 -13.833 11.5 -25.5s9.83301 -23.667 14.5 -36s8.83398 -27.333 12.501 -45s5.5 -34.834 5.5 -51.501c0 -26 -4.33301 -51.333 -13 -76
c-5.33301 -16.667 -10.166 -31 -14.499 -43s-9.5 -23.667 -15.5 -35l-15 -27.5c-4 -7 -10 -13.833 -18 -20.5s-14.5 -11.667 -19.5 -15s-13.333 -6.66602 -25 -9.99902s-21.334 -5.5 -29.001 -6.5s-20.167 -2 -37.5 -3s-32 -1.5 -44 -1.5h-53h-16z" />
    <glyph glyph-name="alpha" unicode="&#x3b1;" horiz-adv-x="955" 
d="M777 146c-0.666992 -8.66699 -1.00293 -19.6709 -1.00293 -33.0039v-13c0 -24.667 -4.33301 -48 -13 -70c-10.667 -12.667 -22.667 -20.667 -36 -24s-28.666 -5.33301 -45.999 -6c-33.333 0 -50 23 -50 69c0 18.667 2.66699 39 8 61l4 67
c1.33301 6.66699 2 15.834 2 27.501s0.666992 22.834 2 33.501c-21.333 -28.667 -46 -59.834 -74 -93.501s-54.667 -61.167 -80 -82.5l-25 -22c-10.667 -9.33301 -17.667 -15.333 -21 -18s-9.16602 -7 -17.499 -13s-14.166 -9.83301 -17.499 -11.5
s-9.16602 -4.16699 -17.499 -7.5s-15.5 -5.16602 -21.5 -5.49902s-14.667 -1.16602 -26 -2.49902s-22.666 -2 -33.999 -2h-42c-22 0 -40.833 1.83301 -56.5 5.5s-30.667 10.667 -45 21s-25.166 25.833 -32.499 46.5s-11 46.667 -11 78c0 132 29.667 278.667 89 440
c20.667 56 42.167 106.167 64.5 150.5s43.166 81 62.499 110s40 53.833 62 74.5s41.5 36.334 58.5 47.001s36 19 57 25s38.167 9.66699 51.5 11s29.333 2 48 2h14c16.667 0 31.667 -1.5 45 -4.5s23.666 -6.66699 30.999 -11s14 -10 20 -17s10.333 -13 13 -18
s5.5 -11.333 8.5 -19s5.16699 -12.834 6.5 -15.501c5.33301 -10.667 9.16602 -22.834 11.499 -36.501s4.5 -34.5 6.5 -62.5s4 -49.667 6 -65c6.66699 13.333 16.834 31 30.501 53s21.834 36.667 24.501 44c22 60.667 34.667 91 38 91c1.33301 0 1.66602 -2 0.999023 -6
l-1 -6c9.33301 22.667 23.166 40.834 41.499 54.501s37.833 20.5 58.5 20.5h2c12 0 23.5 -4.83301 34.5 -14.5s16.5 -20.167 16.5 -31.5c0 -5.33301 -0.666992 -9 -2 -11c-2.66699 -8 -6.66699 -16.667 -12 -26s-16.333 -36.666 -33 -81.999c-22 -58 -85 -174.333 -189 -349
c-0.666992 -18 -1 -56.667 -1 -116s-1 -106.333 -3 -141s-5.33301 -66.667 -10 -96zM664.997 529.996l-0.00390625 18c0 222 -22 333 -66 333c-17.333 0 -32.666 -1.83301 -45.999 -5.5s-28.166 -11.5 -44.499 -23.5s-32.166 -28.833 -47.499 -50.5s-32 -51.167 -50 -88.5
s-36.667 -82.333 -56 -135c-53.333 -146 -80 -274 -80 -384c0 -42.667 11.667 -64 35 -64c19.333 0 40.833 7.83301 64.5 23.5s46.834 35.5 69.501 59.5s47.5 54.5 74.5 91.5s51.5 72.667 73.5 107z" />
    <glyph glyph-name="beta" unicode="&#x3b2;" horiz-adv-x="863" 
d="M643 920c30.667 1.33301 60.6699 19.3408 90.0029 54.0078s51.333 73 66 115c7.33301 23.333 11 43.333 11 60c0 52 -33.333 78 -100 78c-23.333 0 -51 -19.5 -83 -58.5s-63.667 -99.833 -95 -182.5l-171 -460l-295 -793c-5.33301 -15.333 -10.5 -34.333 -15.5 -57
s-10.833 -42.334 -17.5 -59.001c-3.33301 -9.33301 -11.666 -16.333 -24.999 -21s-25.333 -7.33398 -36 -8.00098s-25.334 -1 -44.001 -1c-24 0 -36 12.333 -36 37c0 14 8 45 24 93l125 335c83.333 223.333 132 355.333 146 396l211 568
c0.666992 1.33301 1.33398 3.33301 2.00098 6l22 56c5.33301 14 14.333 34.333 27 61s24.667 48.334 36 65.001s26.166 35.667 44.499 57s37.166 38.166 56.499 50.499s42.333 23 69 32s54.667 13.5 84 13.5h1c71.333 0 126.166 -18.167 164.499 -54.5
s57.5 -80.166 57.5 -131.499c0 -23.333 -4.66699 -46 -14 -68c-30 -79.333 -61.667 -141 -95 -185s-57.666 -66.667 -72.999 -68c0.666992 -0.666992 4.5 -3.33398 11.5 -8.00098s12.167 -8.33398 15.5 -11.001s8.66602 -7.5 15.999 -14.5s13.166 -13.667 17.499 -20
s9.5 -14.833 15.5 -25.5s10.667 -21.834 14 -33.501s6.16602 -25.5 8.49902 -41.5s3.5 -33 3.5 -51c0 -72 -17.667 -159 -53 -261c-46 -134 -97.833 -230.667 -155.5 -290s-127.167 -89 -208.5 -89c-42 0 -88 7 -138 21c-17.333 5.33301 -30.166 14.166 -38.499 26.499
s-12.5 26.166 -12.5 41.499c0 18 5 33.5 15 46.5s22.667 19.5 38 19.5c6.66699 0 12.667 -1 18 -3c31.333 -12.667 61.333 -19 90 -19c24 0 46.5 4.33301 67.5 13s40.333 21.667 58 39s33.667 35.833 48 55.5s28.333 44 42 73s25.5 56 35.5 81l34 88.5
c14 40 21 80.667 21 122c0 51.333 -10.5 95.166 -31.5 131.499s-48.167 57.5 -81.5 63.5c-22 7.33301 -33 24.666 -33 51.999c0 14.667 4 28 12 40s19.333 19.667 34 23z" />
    <glyph glyph-name="gamma" unicode="&#x3b3;" horiz-adv-x="850" 
d="M426 120c-8 -13.333 -15.167 -26.502 -21.5 -39.502s-13.166 -28.167 -20.499 -45.5l-15 -35c-58 -122 -87 -204 -87 -246c0 -16.667 5.33301 -25 16 -25c16.667 0 34.167 23.5 52.5 70.5s33.5 102.5 45.5 166.5c1.33301 6.66699 6.16602 28.834 14.499 66.501
s13.5 66.834 15.5 87.501zM858 940.998c16.667 21.333 33.8281 39 51.4951 53s32.834 21 45.501 21c26.667 0 45.167 -2.5 55.5 -7.5s15.5 -12.833 15.5 -23.5c0 -7.33301 -1.66699 -16 -5 -26c-3.33301 -8 -5.66602 -14.833 -6.99902 -20.5s-2.5 -9.66699 -3.5 -12
s-3.66699 -6.83301 -8 -13.5s-12.5 -17 -24.5 -31c-168.667 -211.333 -301.334 -386 -398.001 -524c0 -110.667 -13 -246.334 -39 -407.001c-10 -62 -24.333 -116.333 -43 -163s-38 -82.5 -58 -107.5s-42 -45.167 -66 -60.5s-44.167 -25.166 -60.5 -29.499
s-32.166 -6.5 -47.499 -6.5c-11.333 0 -23.166 2.83301 -35.499 8.5s-24.666 14.334 -36.999 26.001s-22.5 28.667 -30.5 51s-12 48.166 -12 77.499c0 68.667 21.667 152 65 250c68 153.333 142.667 288 224 404v7c0 86.667 -3.33301 164.167 -10 232.5
s-15 113.166 -25 134.499c-18 36.667 -33.667 64 -47 82s-26.666 27 -39.999 27c-22.667 0 -39.667 5.33301 -51 16s-17 24.334 -17 41.001c0 18 6.83301 34.333 20.5 49s31.167 22 52.5 22h7c34 0 59.167 -3.5 75.5 -10.5s41.166 -26.833 74.499 -59.5
c23.333 -22.667 42.833 -66 58.5 -130s26.834 -141 33.501 -231z" />
    <glyph glyph-name="delta" unicode="&#x3b4;" horiz-adv-x="769" 
d="M626 881c-21.333 0 -41.333 -2.99609 -60 -8.99609s-35.667 -14 -51 -24s-30.333 -23.833 -45 -41.5s-27.834 -35.834 -39.501 -54.501s-24.167 -42.5 -37.5 -71.5s-25.166 -56.833 -35.499 -83.5l-37.5 -98c-52 -142 -78 -238 -78 -288c0 -54 25.333 -81 76 -81
c22 0 42.167 2.5 60.5 7.5s33.833 11.167 46.5 18.5s24.667 17.166 36 29.499s20.5 24.166 27.5 35.499s14.167 25.666 21.5 42.999s13 32.333 17 45l15.5 47l15.5 45l57.5 158.5c12.333 35.667 25.333 79.167 39 130.5s20.5 91.333 20.5 120c0 47.333 -16.333 71 -49 71z
M175 499.004c26.667 71.333 50.6641 131.833 71.9971 181.5s43 94.5 65 134.5s42.833 71.833 62.5 95.5s41.5 43.334 65.5 59.001s48.333 26.5 73 32.5s53.334 9 86.001 9c22 0 33 5.33301 33 16c0 6.66699 -4.66699 17.667 -14 33s-19.666 31 -30.999 47
s-21.833 35.833 -31.5 59.5s-14.5 46.167 -14.5 67.5c0 14 2 27.333 6 40c5.33301 17.333 10.5 31.5 15.5 42.5s13.667 23 26 36s27.166 22.833 44.499 29.5c40 14.667 80.667 22 122 22c55.333 0 102.333 -14.333 141 -43c38.667 -30 58 -60 58 -90
c0 -14 -5.33301 -25.5 -16 -34.5s-25.667 -13.5 -45 -13.5h-4c-7.33301 0 -27.666 8 -60.999 24s-59.333 24 -78 24c-22 0 -38 -9.66699 -48 -29c-4.66699 -7.33301 -7 -16 -7 -26c0 -12.667 4.33301 -28 13 -46s19.167 -37.833 31.5 -59.5s24.833 -45.334 37.5 -71.001
s23.334 -56.667 32.001 -93s13 -74.166 13 -113.499c0 -76 -17 -159 -51 -249l-104 -277c-28 -74.667 -57 -134.834 -87 -180.501s-66.167 -78.167 -108.5 -97.5s-98.833 -29 -169.5 -29c-132.667 0 -199 64.667 -199 194c0 78 24 179.667 72 305z" />
    <glyph glyph-name="epsilon" unicode="&#x3b5;" horiz-adv-x="731" 
d="M758 993c21.333 -4.66699 37.8359 -14.166 49.5029 -28.499s17.5 -29.833 17.5 -46.5c0 -16 -5.16699 -29.5 -15.5 -40.5s-24.833 -16.5 -43.5 -16.5c-7.33301 0 -13 0.666992 -17 2c-60 10.667 -126.333 16.667 -199 18c-22 0 -45.333 -11 -70 -33s-44 -52 -58 -90
c-6 -16 -9 -32 -9 -48c0 -26 7 -48.5 21 -67.5s28.667 -28.833 44 -29.5h37h36c15.333 0 27.166 -5.5 35.499 -16.5s12.5 -24.833 12.5 -41.5c0 -18.667 -5.5 -35.167 -16.5 -49.5s-25.833 -21.5 -44.5 -21.5h-35h-57c-34 -0.666992 -69.167 -18.334 -105.5 -53.001
s-64.5 -76 -84.5 -124c-16 -38 -24 -72 -24 -102c0 -50 21.667 -75 65 -75c26.667 0 50.834 1.66699 72.501 5s46.334 8.16602 74.001 14.499s48.5 10.833 62.5 13.5c8 1.33301 14.333 2 19 2c18.667 0 33 -4.83301 43 -14.5s15 -21.5 15 -35.5
c0 -18 -7.33301 -34.833 -22 -50.5s-35.334 -26.167 -62.001 -31.5c-16 -3.33301 -34.167 -7.66602 -54.5 -12.999s-36.166 -9 -47.499 -11s-30.5 -4 -57.5 -6s-61.167 -3 -102.5 -3c-49.333 0 -87.833 15.5 -115.5 46.5s-41.5 72.5 -41.5 124.5c0 43.333 9.33301 89 28 137
c12.667 32 25.834 60.5 39.501 85.5s26.167 45 37.5 60s24.166 28.5 38.499 40.5s26.166 20.833 35.499 26.5s20.666 12 33.999 19s23 12.5 29 16.5c-36 46 -54 93.333 -54 142c0 24.667 4.33301 49 13 73c59.333 160 163.666 240 312.999 240c40 0 68.667 -0.333008 86 -1
s28.166 -1.5 32.499 -2.5s10 -3 17 -6s16.5 -5.83301 28.5 -8.5z" />
    <glyph glyph-name="zeta" unicode="&#x3b6;" horiz-adv-x="752" 
d="M369 133c25.333 -0.666992 49.835 -5.16797 73.502 -13.501s46 -20 67 -35s37.833 -35 50.5 -60s19 -52.833 19 -83.5c0 -31.333 -7.33301 -66.666 -22 -105.999c-10.667 -27.333 -24.167 -51 -40.5 -71s-33.166 -35.667 -50.499 -47s-37.5 -20.166 -60.5 -26.499
s-44 -10.5 -63 -12.5s-40.5 -3 -64.5 -3h-157c-12.667 0 -22.834 5.5 -30.501 16.5s-11.5 23.833 -11.5 38.5c0 16.667 5 31.167 15 43.5s24 18.5 42 18.5h165c37.333 0 65 6.5 83 19.5s34.333 39.833 49 80.5c2.66699 10.667 4 19.334 4 26.001
c0 25.333 -12.5 45.333 -37.5 60s-51.5 23.334 -79.5 26.001h-60c-34.667 0 -64.834 10.333 -90.501 31s-44.334 46.834 -56.001 78.501s-17.5 65.834 -17.5 102.501c0 35.333 5.66699 68.333 17 99c19.333 52.667 45 102.667 77 150s65.167 87.666 99.5 120.999
s71.5 65.666 111.5 96.999s76.5 57.5 109.5 78.5l97.5 65c32 22.333 56 41.166 72 56.499h-210c-85.333 0 -128 40 -128 120c0 42.667 13.667 96.334 41 161.001c7.33301 20.667 18 36 32 46s28.667 15 44 15s28.5 -4.5 39.5 -13.5s16.5 -20.833 16.5 -35.5
c0 -8.66699 -1.66699 -16.334 -5 -23.001c-16.667 -46 -25 -79.667 -25 -101c0 -25.333 12.333 -38 37 -38h2c74.667 -2 175 -3 301 -3c19.333 0 33.5 -6.16699 42.5 -18.5s13.5 -27.833 13.5 -46.5c0 -28 -7.33301 -49.667 -22 -65c-36.667 -38.667 -81 -78.5 -133 -119.5
l-145 -110l-133 -100.5c-44 -34.667 -82.333 -71.334 -115 -110.001s-56.667 -78 -72 -118c-10.667 -28.667 -16 -57.667 -16 -87s5.5 -53.833 16.5 -73.5s23.833 -29.5 38.5 -29.5h1c22.667 2 35.334 3 38.001 3c2 0 5.16699 -0.333008 9.5 -1
s11.166 -1.33398 20.499 -2.00098z" />
    <glyph glyph-name="eta" unicode="&#x3b7;" horiz-adv-x="773" 
d="M412 662l-214.997 -583.001c-14.667 -38 -26.5 -60.667 -35.5 -68s-28.167 -11 -57.5 -11h-16c-29.333 0 -44 16 -44 48c0 8.66699 1.66699 19.334 5 32.001l274 734c6.66699 20 10 35.5 10 46.5s-3.33301 20.167 -10 27.5s-13.834 13 -21.501 17
s-14.834 10.667 -21.501 20s-10 21.666 -10 36.999c0 11.333 3.83301 20.666 11.5 27.999s18.5 12.333 32.5 15s25.833 4.33398 35.5 5.00098s21.5 1 35.5 1c9.33301 0 18.833 -3 28.5 -9s17 -11.333 22 -16s13.5 -14.334 25.5 -29.001l22 -27l15 13
c10.667 8 24 17.167 40 27.5s36 19.666 60 27.999s47.667 12.5 71 12.5c66 0 115.167 -13.333 147.5 -40s48.5 -64.334 48.5 -113.001c0 -37.333 -9.33301 -81.666 -28 -132.999l-369 -996c-5.33301 -15.333 -10.5 -34.166 -15.5 -56.499s-10.833 -42.166 -17.5 -59.499
c-3.33301 -9.33301 -11.666 -16.333 -24.999 -21s-25.5 -7.33398 -36.5 -8.00098s-25.833 -1 -44.5 -1c-23.333 0 -35 12.667 -35 38c0 18.667 8 49.334 24 92.001l377 1020c16.667 46.667 25 79 25 97c0 34 -24.333 51 -73 51c-17.333 0 -34 -2.16699 -50 -6.5
s-30.333 -10 -43 -17s-24.834 -15.167 -36.501 -24.5s-21.834 -19.166 -30.501 -29.499s-16.834 -21 -24.501 -32s-14.167 -21.833 -19.5 -32.5l-14.5 -30c-4.33301 -9.33301 -7.66602 -17.5 -9.99902 -24.5s-4 -12.5 -5 -16.5z" />
    <glyph glyph-name="theta" unicode="&#x3b8;" horiz-adv-x="908" 
d="M137 338l-2.00391 -0.00390625c-16 0 -30.5 8.5 -43.5 25.5s-19.5 35.167 -19.5 54.5c0 14.667 5 26.667 15 36s25.333 14.333 46 15h57c27.333 0 50.5 -8.33301 69.5 -25s32.833 -37.5 41.5 -62.5s16.667 -52 24 -81s13.166 -56 17.499 -81s11 -45.833 20 -62.5
s20.5 -25 34.5 -25h1h2c24 0 46.333 8.16699 67 24.5s40 39.5 58 69.5s36.167 66.5 54.5 109.5s36.833 91.333 55.5 145l61 175.5l28 79c-185.333 34 -278 114.333 -278 241c0 36 7 74.333 21 115c36 96.667 78.167 164.667 126.5 204s114.833 59 199.5 59
c123.333 0 185 -62 185 -186c0 -80 -25 -186.333 -75 -319c5.33301 0 12.5 -0.166992 21.5 -0.5s15.833 -0.5 20.5 -0.5h1c18.667 0 32.834 -5.5 42.501 -16.5s14.5 -24.167 14.5 -39.5c0 -19.333 -6 -36.5 -18 -51.5s-27.667 -22.5 -47 -22.5
c-33.333 0 -58.333 0.666992 -75 2l-18 -54l-53.5 -149.5l-47 -124.5c-17 -43.333 -31.667 -78.5 -44 -105.5s-26 -55.167 -41 -84.5s-28.5 -52.166 -40.5 -68.499s-25.667 -33.166 -41 -50.499s-30.166 -30.166 -44.499 -38.499s-30.666 -16.166 -48.999 -23.499
s-37 -12.333 -56 -15s-40.5 -4 -64.5 -4h-2c-30 0 -55.333 8.16699 -76 24.5s-35.5 37 -44.5 62s-17.167 52 -24.5 81s-13.166 56 -17.499 81s-11.666 46 -21.999 63s-23.5 25.5 -39.5 25.5zM767.996 858.996c44 127.333 66.002 218.667 66.002 274
c0 32.667 -7.33301 55.834 -22 69.501s-36.334 20.5 -65.001 20.5c-26 0 -52.5 -15.5 -79.5 -46.5s-46.5 -62.5 -58.5 -94.5c-12 -32.667 -18 -61.334 -18 -86.001c0 -40 15.167 -70.833 45.5 -92.5s74.166 -36.5 131.499 -44.5z" />
    <glyph glyph-name="iota" unicode="&#x3b9;" horiz-adv-x="448" 
d="M86 172l116.001 312.001c77.333 208.667 122.666 333.334 135.999 374.001c5.33301 24.667 8 38.667 8 42c0 4 -0.666992 13.333 -2 28s-2 22.667 -2 24c0 17.333 10.5 31.666 31.5 42.999s43.833 17 68.5 17c28.667 0 48.667 -7.66699 60 -23c6 -8.66699 9 -19 9 -31
c0 -8 -1.16699 -16.5 -3.5 -25.5s-5.5 -19.5 -9.5 -31.5s-6.66699 -20.667 -8 -26l-235 -642c-13.333 -34.667 -20 -59 -20 -73c0 -16 7.16699 -27.167 21.5 -33.5s39.166 -9.5 74.499 -9.5h2c10.667 0 19.334 -5.16699 26.001 -15.5s10 -22.833 10 -37.5
c0 -17.333 -5.66699 -32.333 -17 -45s-28.333 -19 -51 -19h-115c-32 0 -58.5 10.667 -79.5 32s-31.5 48.666 -31.5 81.999c0 20.667 3.66699 40 11 58z" />
    <glyph glyph-name="kappa" unicode="&#x3ba;" horiz-adv-x="803" 
d="M903 958c-0.666992 -6.66699 -1.16699 -12.167 -1.5 -16.5s-2.83301 -10.666 -7.5 -18.999s-14 -22.166 -28 -41.499c-30.667 -44 -86.167 -107.833 -166.5 -191.5s-148.5 -144.834 -204.5 -183.501l199 -411c0.666992 0 1 -6 1 -18c0 -24.667 -4 -42 -12 -52
c-12 -16.667 -30.667 -25 -56 -25c-32 4.66699 -54 26 -66 64l-188 381l-38 -8l-131 -360c-14.667 -37.333 -26.667 -59.833 -36 -67.5s-29.333 -11.5 -60 -11.5h-15c-32.667 0 -49 11 -49 33c0 6.66699 4.33301 22.334 13 47.001l134 360
c89.333 239.333 140.666 379.666 153.999 420.999c0.666992 4.66699 1 7.66699 1 9c0 7.33301 -2.83301 13.333 -8.5 18s-12 8.33398 -19 11.001s-13.333 8.5 -19 17.5s-8.5 20.5 -8.5 34.5c0 21.333 12 37.833 36 49.5s51.667 17.5 83 17.5
c42.667 0 70.334 -8.66699 83.001 -26c9.33301 -13.333 14 -30 14 -50c0 -18 -3.33301 -39.333 -10 -64l-99 -270c56 39.333 121.5 96.166 196.5 170.499s127.5 133.166 157.5 176.499c16 22 29.333 37.833 40 47.5s21.667 14.5 33 14.5h5c20.667 -2 38.167 -7.5 52.5 -16.5
s21.5 -19.167 21.5 -30.5c0 -2 -0.333008 -5.33301 -1 -10z" />
    <glyph glyph-name="lambda" unicode="&#x3bb;" horiz-adv-x="914" 
d="M477 1055c-3.33301 26 -13.502 60.833 -30.502 104.5s-33.5 79.167 -49.5 106.5c-8.66699 12 -13 24.667 -13 38c0 20.667 9.66699 38.334 29 53.001s36.333 22 51 22c20.667 0 36.667 -3.5 48 -10.5s25.333 -24.5 42 -52.5c8.66699 -14.667 17.5 -35.834 26.5 -63.501
s16.333 -53.5 22 -77.5s10.834 -47 15.501 -69l7 -33v0l78 -569c8.66699 -65.333 22.5 -130 41.5 -194s35.667 -114.667 50 -152s21.5 -59 21.5 -65c-0.666992 -4 -1 -9 -1 -15v-16c0 -15.333 -3 -27.333 -9 -36c-12 -16.667 -32.667 -25 -62 -25
c-17.333 2.66699 -31.166 9.5 -41.499 20.5s-19.5 25.833 -27.5 44.5c-0.666992 2 -4 9.33301 -10 22s-11.333 24.667 -16 36s-11 28.833 -19 52.5s-15.333 48.167 -22 73.5s-13.667 57.5 -21 96.5s-13.666 80.167 -18.999 123.5l-36 279l-350 -671
c-4 -4.66699 -10.667 -13.5 -20 -26.5s-16.833 -22.167 -22.5 -27.5s-14.834 -10.833 -27.501 -16.5s-27.667 -8.5 -45 -8.5h-4c-29.333 0 -44 15.333 -44 46c0 2 2 13.333 6 34l470 888z" />
    <glyph glyph-name="mu" unicode="&#x3bc;" horiz-adv-x="866" 
d="M902 837l-140 -370c-21.333 -75.333 -32 -142 -32 -200c0 -75.333 18.667 -127.666 56 -156.999l16 -13c4 -3.33301 7.83301 -8.5 11.5 -15.5s5.5 -14.5 5.5 -22.5c0 -16.667 -5.5 -30.667 -16.5 -42s-27.833 -17 -50.5 -17c-78.667 0 -122 49.333 -130 148
c-74.667 -98.667 -171.334 -148 -290.001 -148c-32 0 -58.833 12.5 -80.5 37.5s-32.167 55.833 -31.5 92.5l-142 -383c-15.333 -40.667 -23.666 -63.334 -24.999 -68.001c-7.33301 -19.333 -13.333 -33.833 -18 -43.5s-12 -19.667 -22 -30s-23 -17.333 -39 -21
s-36.333 -5.5 -61 -5.5c-12 0 -20.5 5.33301 -25.5 16s-7.5 22.667 -7.5 36c0 1.33301 0.166992 3.16602 0.5 5.49902s0.5 4.16602 0.5 5.49902c3.33301 21.333 11.5 40 24.5 56s23.167 32.333 30.5 49c14 36 82.833 225 206.5 567s189.5 524.667 197.5 548
c3.33301 14 5.5 23.833 6.5 29.5s2.16699 13.334 3.5 23.001s3.33301 22.5 6 38.5c3.33301 18 14.5 33 33.5 45s39.167 18 60.5 18c24.667 0 42.334 -7.66699 53.001 -23c6.66699 -8.66699 10 -19.667 10 -33c0 -10.667 -2.5 -24 -7.5 -40s-9.5 -29.333 -13.5 -40l-113 -304
l-26.5 -73.5l-26.5 -76.5c-8 -24 -14.833 -47 -20.5 -69s-9.16699 -38.667 -10.5 -50c0 -2.66699 -0.166992 -6.33398 -0.5 -11.001s-0.5 -8.33398 -0.5 -11.001c0 -24 2.33301 -47 7 -69s13.167 -41.833 25.5 -59.5s27.833 -26.5 46.5 -26.5
c24.667 0 50.167 11.333 76.5 34s50.833 52.334 73.5 89.001s43 74.667 61 114s33.667 79 47 119c16.667 50.667 63 182.334 139 395.001l17 43c5.33301 13.333 11 25.333 17 36s12.5 19.834 19.5 27.501s15.667 13.5 26 17.5s22.166 6 35.499 6c52 0 78 -13.333 78 -40
c0 -6 -1.66699 -13.667 -5 -23c-9.33301 -29.333 -20 -52.333 -32 -69s-20 -30.667 -24 -42z" />
    <glyph glyph-name="nu" unicode="&#x3bd;" horiz-adv-x="800" 
d="M338 0c-27.333 0 -41.0029 12.6689 -41.0029 38.002l-34 890c0 32 6 53.833 18 65.5s28.667 17.5 50 17.5c23.333 0 41.833 -4.33301 55.5 -13s20.5 -25.334 20.5 -50.001l18 -758c178 217.333 312.667 467.666 404 750.999c12.667 22 26.834 39.833 42.501 53.5
s29.834 20.5 42.501 20.5h3c22 -2 39 -6 51 -12s18 -15.333 18 -28c0 -6 -1 -11.667 -3 -17c-4 -10 -8 -20.833 -12 -32.5l-9.5 -27.5c-2.33301 -6.66699 -5.16602 -12.334 -8.49902 -17.001c-114 -332 -281 -615.667 -501 -851c-7.33301 -10 -15 -17.167 -23 -21.5
s-14.333 -6.66602 -19 -6.99902s-13 -0.5 -25 -0.5z" />
    <glyph glyph-name="xi" unicode="&#x3be;" horiz-adv-x="739" 
d="M777 1228l65.998 -0.00585938c18.667 0 33 -5.5 43 -16.5s15 -24.5 15 -40.5c0 -17.333 -6 -33 -18 -47s-27.667 -21 -47 -21c-13.333 0 -39.333 -0.666992 -78 -2c-89.333 -2.66699 -142.666 -37 -159.999 -103c-3.33301 -11.333 -5 -21 -5 -29
c0 -20.667 5.83301 -39.334 17.5 -56.001s26.334 -30.167 44.001 -40.5s35.167 -18.5 52.5 -24.5s33.666 -9.66699 48.999 -11c16 -0.666992 28.667 -7.33398 38 -20.001s14 -27.667 14 -45s-5.16699 -32.333 -15.5 -45s-25.166 -19 -44.499 -19
c-20.667 -1.33301 -48 -8.33301 -82 -21s-71.167 -31 -111.5 -55s-79.5 -51.167 -117.5 -81.5s-73 -65.666 -105 -105.999s-55.667 -80.833 -71 -121.5c-11.333 -30.667 -17 -59.667 -17 -87c0 -32 7.5 -57.167 22.5 -75.5s31.167 -27.5 48.5 -27.5h3h51
c24.667 -0.666992 49.167 -5 73.5 -13s46.833 -19.667 67.5 -35s37.334 -35.5 50.001 -60.5s19 -52.833 19 -83.5c0 -31.333 -7.33301 -66.666 -22 -105.999c-10.667 -27.333 -24.167 -51 -40.5 -71s-33.166 -35.667 -50.499 -47s-37.5 -20.166 -60.5 -26.499
s-44 -10.5 -63 -12.5s-40.5 -3 -64.5 -3h-157c-12.667 0 -22.834 5.5 -30.501 16.5s-11.5 23.833 -11.5 38.5c0 16.667 5 31.167 15 43.5s24 18.5 42 18.5h165c37.333 0 65 6.5 83 19.5s34.333 39.833 49 80.5c2.66699 10.667 4 19.334 4 26.001
c0 25.333 -12.5 45.333 -37.5 60s-51.5 23.334 -79.5 26.001h-60c-28.667 0 -54.167 5.33301 -76.5 16s-39.833 25.334 -52.5 44.001s-22.167 39.334 -28.5 62.001s-9.5 47 -9.5 73c0 40.667 6.66699 79.334 20 116.001c13.333 35.333 29.5 69.833 48.5 103.5
s38.333 63.5 58 89.5s41.834 51.833 66.501 77.5s47 47 67 64s41.833 34.333 65.5 52s42.334 30.834 56.001 39.501l45 28.5c16.333 10.333 25.5 15.833 27.5 16.5c-22.667 17.333 -43.334 44.333 -62.001 81s-28 78 -28 124c0 14.667 1.66699 32 5 52
c8 41.333 28.667 77.333 62 108c-34 30.667 -51 69.667 -51 117c0 18 3.33301 35.667 10 53c8 20.667 19.167 36 33.5 46s29.166 15 44.499 15s28.333 -4.5 39 -13.5s16 -20.833 16 -35.5c0 -6.66699 -1.33301 -14.334 -4 -23.001c-6.66699 -18.667 -10 -34 -10 -46
c0 -25.333 14.333 -38 43 -38h4h2c4 0 22.667 0.333008 56 1s56.666 1 69.999 1z" />
    <glyph glyph-name="omicron" unicode="&#x3bf;" horiz-adv-x="758" 
d="M344 554c-37.333 -102.667 -64.167 -180.333 -80.5 -233s-24.5 -93.667 -24.5 -123c0 -23.333 5.66699 -40.5 17 -51.5s29 -16.5 53 -16.5c62.667 0 114 27.667 154 83c32 42.667 72.333 128.667 121 258l27 73c24.667 68 43 122 55 162s18 73.333 18 100
c0 48 -24.667 72 -74 72h-4c-58.667 -1.33301 -102.667 -17 -132 -47c-26.667 -27.333 -57.667 -86.333 -93 -177zM200.999 554.001c25.333 67.333 47.001 122.499 65.001 165.499s37.333 83.167 58 120.5s40.167 65.833 58.5 85.5s40.166 36.5 65.499 50.5s52 23.333 80 28
s61.667 7 101 7c70 0 120.833 -10.5 152.5 -31.5s47.5 -60.167 47.5 -117.5c0 -69.333 -24.667 -176.333 -74 -321c-27.333 -80 -51.166 -146.167 -71.499 -198.5s-42 -100.166 -65 -143.499s-44.833 -76.666 -65.5 -99.999s-45.334 -43 -74.001 -59
s-58.334 -26.667 -89.001 -32s-68 -8 -112 -8c-67.333 0 -116 10.167 -146 30.5s-45 56.166 -45 107.499c0 40 9.33301 92.667 28 158s47.334 151.333 86.001 258z" />
    <glyph glyph-name="pi" unicode="&#x3c0;" horiz-adv-x="870" 
d="M509 218c30 94.667 109 315.665 237 662.998h-209l-236 -628c-40 -104 -83 -176 -129 -216c-10 -8 -17.167 -14.5 -21.5 -19.5s-10.333 -8.83301 -18 -11.5s-16.667 -4.33398 -27 -5.00098s-26.833 -1 -49.5 -1c-12 0 -21.5 4.5 -28.5 13.5s-10.5 19.833 -10.5 32.5
c0 5.33301 0.666992 10.666 2 15.999c4 14 11.667 28.333 23 43s23.333 27.667 36 39s26.334 26.833 41.001 46.5s26 40.5 34 62.5l238 628h-37c-24.667 0 -44.667 4.83301 -60 14.5s-23 28.834 -23 57.501v6c2 40.667 27 61 75 61c13.333 0 33.666 -1.83301 60.999 -5.5
s46.333 -5.5 57 -5.5h8l387 2c24.667 0 47.167 2.83301 67.5 8.5s36.166 8.5 47.499 8.5c8 0 18.333 -1 31 -3c22.667 -3.33301 34 -17 34 -41c0 -22.667 -8.66699 -44.334 -26 -65.001c-14 -16 -27.167 -26.333 -39.5 -31s-25.833 -7 -40.5 -7h-7h-35l-233 -648
c-10.667 -28 -16 -51.333 -16 -70c0 -30.667 15.667 -46 47 -46h1c11.333 0.666992 20.5 -4.33301 27.5 -15s10.5 -23.667 10.5 -39c0 -17.333 -5.66699 -32.166 -17 -44.499s-28.666 -18.5 -51.999 -18.5h-50c-12.667 0 -25.167 2.33301 -37.5 7s-24.5 11.834 -36.5 21.501
s-21.833 23.334 -29.5 41.001s-11.5 37.834 -11.5 60.501c0 26.667 5 56 15 88z" />
    <glyph glyph-name="rho" unicode="&#x3c1;" horiz-adv-x="756" 
d="M44 -287c-3.33301 -8.66699 -9.33008 -20 -17.9971 -34s-14 -24.333 -16 -31c-5.33301 -13.333 -10.5 -23.833 -15.5 -31.5s-9.83301 -14 -14.5 -19s-12.334 -8.5 -23.001 -10.5s-20.334 -3.16699 -29.001 -3.5s-23.334 -0.5 -44.001 -0.5c-12.667 0 -23.167 4 -31.5 12
s-12.5 16.333 -12.5 25v8c5.33301 12.667 13 24.5 23 35.5s19 27.5 27 49.5c33.333 68 67.166 145.833 101.499 233.5s61.5 160.167 81.5 217.5l86 254.5l75 225.5c20 52.667 38.833 98.167 56.5 136.5s36.167 71.166 55.5 98.499s38.5 49.5 57.5 66.5s40.5 30.333 64.5 40
s48.333 16.334 73 20.001s53.667 5.5 87 5.5c25.333 0 48.166 -3 68.499 -9s39.5 -16 57.5 -30s32.167 -34.667 42.5 -62s15.5 -60 15.5 -98c0 -79.333 -23.333 -182.666 -70 -309.999l-49.5 -132.5c-14.333 -37.667 -28.833 -73.167 -43.5 -106.5l-38 -84.5
c-10.667 -23 -22.667 -44.167 -36 -63.5s-24.666 -35 -33.999 -47s-21.166 -22.667 -35.499 -32s-26.666 -16 -36.999 -20s-24.5 -7.5 -42.5 -10.5s-33.833 -4.66699 -47.5 -5s-32.167 -0.5 -55.5 -0.5c-32.667 0 -59.834 5.16699 -81.501 15.5s-42.5 27.166 -62.5 50.499z
M329.003 506c-51.333 -156 -76.9961 -256.669 -76.9961 -302.002c0 -28 7.33301 -47.333 22 -58s38.667 -16 72 -16h5c29.333 0.666992 54.5 8.33398 75.5 23.001s39.667 37 56 67s33.166 67.667 50.499 113l59 160c45.333 122.667 68 218.334 68 287.001
c0 67.333 -22.333 101 -67 101c-18.667 0 -35.834 -2.5 -51.501 -7.5s-29.834 -11.5 -42.501 -19.5s-25 -20 -37 -36s-23 -32.667 -33 -50s-20.833 -40.5 -32.5 -69.5s-22.334 -57.5 -32.001 -85.5z" />
    <glyph glyph-name="sigma" unicode="&#x3c3;" horiz-adv-x="770" 
d="M344 554c-62.667 -169.333 -94.002 -285.332 -94.002 -347.999c0 -49.333 19.667 -74.666 59 -75.999h7c60 0 110 28.333 150 85c30.667 43.333 70.334 130 119.001 260l26 69c28.667 77.333 43 145.666 43 204.999c0 41.333 -7 73.166 -21 95.499s-32.667 33.5 -56 33.5
h-1c-27.333 -0.666992 -52.166 -10.167 -74.499 -28.5s-46.5 -51.333 -72.5 -99s-54.333 -113.167 -85 -196.5zM628.998 1011l145 0.00195312c25.333 0 52.5 5.66699 81.5 17s52.167 17 69.5 17h20c22.667 -3.33301 34 -17.333 34 -42
c0 -22.667 -8.66699 -44.334 -26 -65.001c-17.333 -19.333 -47.333 -34.666 -90 -45.999s-78.667 -17 -108 -17h-6c21.333 -45.333 32 -104 32 -176c0 -59.333 -8.66699 -112 -26 -158l-58 -153c-16 -40.667 -33.167 -81 -51.5 -121s-34.5 -71.833 -48.5 -95.5
s-30.167 -46.834 -48.5 -69.501s-36 -39.5 -53 -50.5s-37 -21 -60 -30s-46.833 -14.833 -71.5 -17.5s-53.334 -4 -86.001 -4c-108 0 -162 62.667 -162 188c0 90 28.333 212 85 366c24.667 67.333 46.167 122.666 64.5 165.999s37.833 83.333 58.5 120s40.334 65 59.001 85
s40.667 37 66 51s51.833 23.333 79.5 28s61.167 7 100.5 7z" />
    <glyph glyph-name="tau" unicode="&#x3c4;" horiz-adv-x="858" 
d="M312 212l249.999 668.999h-201c-25.333 0 -45.5 4.83301 -60.5 14.5s-22.5 28.834 -22.5 57.501v6c1.33301 40.667 26.333 61 75 61c13.333 0 33.666 -1.83301 60.999 -5.5s46.333 -5.5 57 -5.5h7l337 2c26 0 53.333 5.66699 82 17s51.334 17 68.001 17h21
c22.667 -3.33301 34 -17.333 34 -42c0 -22.667 -9 -44.334 -27 -65.001c-32 -38 -87.333 -57 -166 -57h-8h-111l-240 -648c-8 -21.333 -12 -40.333 -12 -57c0 -20.667 5.83301 -35.667 17.5 -45s26.5 -14 44.5 -14h2c10.667 0.666992 19.667 -4.5 27 -15.5
s11 -23.833 11 -38.5c0 -17.333 -5.66699 -32.166 -17 -44.499s-28.666 -18.5 -51.999 -18.5h-77c-26.667 0 -52.5 12.5 -77.5 37.5s-37.5 57.833 -37.5 98.5c0 24 5 49.333 15 76z" />
    <glyph glyph-name="upsilon" unicode="&#x3c5;" horiz-adv-x="736" 
d="M670 361c-16.667 -46.667 -39.1631 -91.165 -67.4961 -133.498s-60.833 -80.666 -97.5 -114.999s-78.167 -61.666 -124.5 -81.999s-93.833 -30.5 -142.5 -30.5c-52.667 0 -91.334 10.667 -116.001 32s-37 55.666 -37 102.999c0 68.667 28.667 181 86 337l62 165
c40.667 109.333 68 184.333 82 225c1.33301 8.66699 2 15.667 2 21s-3.16699 15 -9.5 29s-9.5 28.667 -9.5 44c0 17.333 12.167 31.666 36.5 42.999s50.5 17 78.5 17c32 0 53.667 -7.66699 65 -23c6 -8.66699 9 -18.667 9 -30c0 -8 -1.16699 -16.667 -3.5 -26
s-5.5 -19.833 -9.5 -31.5s-6.66699 -20.167 -8 -25.5l-155 -423l-45.5 -126c-9 -25.333 -17.667 -53.333 -26 -84s-12.5 -54.334 -12.5 -71.001c0 -30.667 13.333 -46 40 -46h1c38.667 0.666992 78 18.334 118 53.001s75.167 76.667 105.5 126s56.166 102 77.499 158
c33.333 91.333 58.333 172.166 75 242.499s25 139.833 25 208.5v8c0 22 6.66699 41.167 20 57.5s29.333 24.5 48 24.5c22.667 0 40.667 -4.16699 54 -12.5s20.666 -24.833 21.999 -49.5c-0.666992 -78 -5.83398 -144.333 -15.501 -199s-25.167 -109.834 -46.5 -165.501z" />
    <glyph glyph-name="phi" unicode="&#x3c6;" horiz-adv-x="1135" 
d="M585 135c30.667 4 59.165 10.501 85.498 19.501s54.333 23 84 42s57.167 42.333 82.5 70s50.666 63.167 75.999 106.5s48.333 93 69 149c44 118.667 66 207.334 66 266.001c0 62 -23.667 93 -71 93c-12.667 0 -23.667 -0.333008 -33 -1s-18.833 -2.83398 -28.5 -6.50098
s-17.667 -6.83398 -24 -9.50098s-13.666 -8.5 -21.999 -17.5s-15 -16.667 -20 -23s-11.667 -17.833 -20 -34.5s-15.166 -31 -20.499 -43s-13.166 -31 -23.499 -57l-26.5 -68l-31 -84zM535.998 1.00098c-38.667 -104 -76.666 -199.997 -113.999 -287.997
c-3.33301 -9.33301 -8.16602 -21 -14.499 -35s-10.5 -24 -12.5 -30c-4.66699 -12.667 -10 -23.167 -16 -31.5s-11.833 -14.833 -17.5 -19.5s-14.667 -8 -27 -10s-23.166 -3.16699 -32.499 -3.5s-24.333 -0.5 -45 -0.5c-14.667 0 -24.334 3 -29.001 9s-5 14 -1 24
c4.66699 13.333 12 27.666 22 42.999s19 33.333 27 54l113 292c-78.667 9.33301 -141.5 37.833 -188.5 85.5s-70.5 110.834 -70.5 189.501c0 54.667 11.333 113 34 175c54 145.333 98.5 251.166 133.5 317.499s79.5 126.166 133.5 179.499c51.333 50 87.666 75 108.999 75
c27.333 0 46.333 -2.66699 57 -8s16 -13.333 16 -24c0 -7.33301 -2 -15.666 -6 -24.999c-4.66699 -12.667 -10 -23.5 -16 -32.5s-12 -16.5 -18 -22.5s-13 -13.667 -21 -23l-57.5 -62c-9.66699 -10 -22.834 -25.833 -39.501 -47.5s-27.167 -36.334 -31.5 -44.001
s-12.666 -24.334 -24.999 -50.001s-22 -48.167 -29 -67.5l-35.5 -94c-35.333 -93.333 -53 -170 -53 -230c0 -104 51.333 -159 154 -165l151 415c58.667 156 98.667 255 120 297c34.667 67.333 74.667 112.333 120 135c42 21.333 103.667 32 185 32c57.333 0 101 -17 131 -51
s45 -84.667 45 -152c0 -83.333 -23.333 -188.333 -70 -315c-22.667 -61.333 -46.5 -116.166 -71.5 -164.499s-49.833 -89.333 -74.5 -123s-51.334 -62.834 -80.001 -87.501s-56 -44.167 -82 -58.5s-55.167 -25.833 -87.5 -34.5s-62.333 -14.667 -90 -18
s-59.5 -5.33301 -95.5 -6z" />
    <glyph glyph-name="chi" unicode="&#x3c7;" horiz-adv-x="892" 
d="M863 941c16.667 21.333 33.834 39.0049 51.501 53.0049s32.5 21 44.5 21c27.333 0 46.166 -2.5 56.499 -7.5s15.5 -12.833 15.5 -23.5c0 -7.33301 -1.66699 -16 -5 -26c-5.33301 -16 -9.16602 -26.5 -11.499 -31.5s-12.5 -20.167 -30.5 -45.5
c-100 -141.333 -252.333 -345.333 -457 -612l21 -532c1.33301 -20.667 5.33301 -44.834 12 -72.501s10 -44.5 10 -50.5c0 -5.33301 -1.33301 -9.33301 -4 -12c-20.667 -30 -41.667 -45 -63 -45c-15.333 1.33301 -28.833 6.5 -40.5 15.5s-20.334 20 -26.001 33
s-9.83398 25 -12.501 36s-4 20.833 -4 29.5l-24 428l-348 -458c-2.66699 -2.66699 -7.16699 -8.83398 -13.5 -18.501s-11 -16.334 -14 -20.001s-8 -8.83398 -15 -15.501s-13.667 -11.334 -20 -14.001s-14.5 -5.33398 -24.5 -8.00098s-20.667 -4 -32 -4h-5
c-28.667 0.666992 -43 16.334 -43 47.001c0 10.667 2 22 6 34l495 663l-14 324c-1.33301 25.333 -7.33301 67.833 -18 127.5s-19.667 103.834 -27 132.501c-3.33301 15.333 -5 29.333 -5 42c0 23.333 5.33301 42 16 56s22 21 34 21h9c11.333 0 20.5 -0.5 27.5 -1.5
s14.833 -3.33301 23.5 -7s16.334 -10 23.001 -19s12 -20.5 16 -34.5c12 -38.667 22.5 -86.834 31.5 -144.501s13.833 -110.167 14.5 -157.5l3 -163z" />
    <glyph glyph-name="psi" unicode="&#x3c8;" horiz-adv-x="1166" 
d="M1260 849l-31.0029 -103.996c-21.333 -69.333 -50 -152.666 -86 -249.999c-28.667 -78.667 -57.667 -146.5 -87 -203.5s-58 -103.833 -86 -140.5s-58 -66 -90 -88s-63.333 -37.333 -94 -46s-65 -13.334 -103 -14.001l-122 -3l-102 -287
c-17.333 -41.333 -26.333 -63 -27 -65c-4 -11.333 -7.5 -20.333 -10.5 -27s-7.16699 -12.834 -12.5 -18.501s-9.66602 -9.5 -12.999 -11.5s-9.83301 -3.83301 -19.5 -5.5s-18.167 -2.5 -25.5 -2.5h-37c-15.333 0 -27.166 3.16699 -35.499 9.5s-10.833 14.166 -7.5 23.499
l19 44l22 53c11.333 27.333 29.666 75.666 54.999 144.999s43 116.666 53 141.999l-129 3c-42.667 0.666992 -78.667 21.334 -108 62.001s-44 97.334 -44 170.001c0 80 19.333 170.667 58 272c28 75.333 52.833 136.5 74.5 183.5s38.334 82.167 50.001 105.5
s21.834 47.333 30.501 72c0.666992 7.33301 1 12 1 14c0 8 -3 15.167 -9 21.5s-12.167 14 -18.5 23s-9.5 20.833 -9.5 35.5c0 17.333 13.5 31.666 40.5 42.999s56.167 17 87.5 17c36 0 59.667 -7.33301 71 -22c6 -8.66699 9 -19 9 -31c0 -8 -1.16699 -16.5 -3.5 -25.5
s-5.5 -19.5 -9.5 -31.5s-6.66699 -20.667 -8 -26c-29.333 -80 -58.333 -148.667 -87 -206s-54.334 -117 -77.001 -179c-37.333 -106 -56 -191 -56 -255c0 -74.667 24.667 -112.334 74 -113.001l105 -3l368 1006l29 82c8.66699 22.667 22.334 41 41.001 55s38.667 21 60 21h2
c12 -0.666992 23.667 -5.66699 35 -15s17 -20 17 -32c0 -2 -0.666992 -5.33301 -2 -10l-38 -103l-365 -1004l67 3c64 2 122.333 32 175 90s101.334 148 146.001 270c31.333 85.333 61 173.333 89 264l41 135c16 47.333 31.5 80.833 46.5 100.5s38.167 29.5 69.5 29.5
c26.667 0 46.167 -3 58.5 -9s18.5 -16 18.5 -30c0 -5.33301 -1.33301 -13 -4 -23c-9.33301 -28.667 -19.833 -51.167 -31.5 -67.5s-19.834 -30.833 -24.501 -43.5z" />
    <glyph glyph-name="omega" unicode="&#x3c9;" horiz-adv-x="1138" 
d="M1142 948l0.000976562 -20.001c0 -13.333 0.166992 -32.166 0.5 -56.499s0.5 -42.166 0.5 -53.499c0 -85.333 -5.33301 -163.333 -16 -234s-33.667 -156 -69 -256c-22 -56 -45.167 -104 -69.5 -144s-48.333 -71.833 -72 -95.5s-49.834 -42.167 -78.501 -55.5
s-55.667 -22.166 -81 -26.499s-55 -6.5 -89 -6.5c-22 0 -42.333 3.83301 -61 11.5s-33.667 16.834 -45 27.501s-21.166 21.5 -29.499 32.5s-14.166 20 -17.499 27s-5 10.833 -5 11.5l-5.5 -11.5c-3.66699 -7.66699 -11.667 -16.834 -24 -27.501
s-27.833 -21.334 -46.5 -32.001s-45.334 -19.834 -80.001 -27.501s-73.334 -11.5 -116.001 -11.5c-52 -0 -90.333 17.333 -115 52s-37 79 -37 133c0 51.333 9.66699 102 29 152c40.667 112 85 212.333 133 301s108.667 189.667 182 303c17.333 21.333 34.833 39 52.5 53
s32.5 21 44.5 21c27.333 0 46.166 -2.5 56.499 -7.5s15.5 -12.833 15.5 -23.5c0 -6.66699 -1.66699 -15.334 -5 -26.001c-7.33301 -17.333 -14.333 -31.666 -21 -42.999s-14 -22.666 -22 -33.999l-93.5 -148l-74.5 -121c-21.333 -36 -40.333 -71 -57 -105
s-30.667 -66.667 -42 -98c-29.333 -86 -44 -152 -44 -198c0 -54 18.667 -81 56 -81c34.667 0 71.5 17 110.5 51s63.833 65.667 74.5 95c53.333 144 80 219 80 225v5c9.33301 23.333 19 38.5 29 45.5s26.333 11.167 49 12.5h4c18 0 32.667 -4.83301 44 -14.5
s17 -23.834 17 -42.501c0 -11.333 -2.66699 -24.666 -8 -39.999c-34.667 -94 -52 -143 -52 -147l4 4c1.33301 3.33301 2.16602 5 2.49902 5s-1.16699 -4.66699 -4.5 -14c-8.66699 -24 -13 -51.333 -13 -82c0 -29.333 5 -53.833 15 -73.5s25.667 -29.5 47 -29.5
c25.333 0 51.833 10.667 79.5 32s53.334 48.833 77.001 82.5s44.667 67.834 63 102.501s34.5 69 48.5 103c27.333 77.333 41 171 41 281c0 29.333 -0.833008 67.166 -2.5 113.499s-2.5 74.5 -2.5 84.5c0 21.333 6.66699 40.333 20 57s29.333 25 48 25
c22 0 39.833 -4.33301 53.5 -13s20.834 -25.334 21.501 -50.001z" />
    <glyph glyph-name="afii10023" unicode="&#x401;" horiz-adv-x="820" 
d="M215 130c0 1.33301 142.666 2.00098 427.999 2.00098c20 0 35.333 -5.83301 46 -17.5s16 -26.167 16 -43.5c0 -18.667 -6.16699 -35.167 -18.5 -49.5s-28.833 -21.5 -49.5 -21.5h-1h-538c-38 0 -57 13.333 -57 40c0 9.33301 2.33301 19.333 7 30l458 1242
c10 26.667 32.667 40 68 40h459c45.333 0 68 -19.333 68 -58c0 -16.667 -4 -35.334 -12 -56.001c-7.33301 -18 -22.666 -27 -45.999 -27c-10 0 -23.333 1.83301 -40 5.5s-26.667 5.83398 -30 6.50098l-355 -1l-163 -444h281h1c20 0 35.333 -5.83301 46 -17.5
s16 -25.834 16 -42.501c0 -18 -6.16699 -34.333 -18.5 -49s-28.833 -22 -49.5 -22h-2h-324zM712.999 1631l1 0.00292969c21.333 0 44 -12.167 68 -36.5s36 -46.5 36 -66.5c0 -26.667 -11.333 -51.334 -34 -74.001s-53.667 -34 -93 -34c-33.333 0 -57.333 9.66699 -72 29
s-22 42.666 -22 69.999c0 36.667 10.667 64.167 32 82.5s49.333 28.166 84 29.499zM1035 1631l2.99902 -0.00195312c18.667 0 34.667 -3.5 48 -10.5s23.5 -16 30.5 -27s12.167 -22.167 15.5 -33.5s5 -22.666 5 -33.999v-8c-6 -73.333 -47 -110 -123 -110
c-34 0 -59.5 10.667 -76.5 32s-25.5 45.333 -25.5 72c0 37.333 11.833 66.333 35.5 87s52.834 31.334 87.501 32.001z" />
    <glyph glyph-name="afii10017" unicode="&#x410;" horiz-adv-x="1040" 
d="M461 467l-250 -389.001c-2 -4 -5.5 -9.5 -10.5 -16.5s-12.333 -15.667 -22 -26s-22.334 -19 -38.001 -26s-32.167 -10.5 -49.5 -10.5h-3c-31.333 0 -47 15 -47 45c0 2.66699 1.33301 11.334 4 26.001l793 1240c9.33301 15.333 19 26.166 29 32.499s22 9.5 36 9.5h79
c22.667 0 34 -12.667 34 -38c0 -5.33301 -0.333008 -9 -1 -11l-104 -1205c-0.666992 -9.33301 -0.166992 -19.666 1.5 -30.999s1.5 -20 -0.5 -26c-1.33301 -12.667 -8.66602 -22.667 -21.999 -30s-27.333 -11 -42 -11c-56 -0 -84 28.333 -84 85c0 4.66699 0.333008 8 1 10
l30 373zM857 1097l-326 -519l271 1z" />
    <glyph glyph-name="afii10018" unicode="&#x411;" horiz-adv-x="838" 
d="M314 385l-99.999 -255.997l183 1c29.333 0.666992 55 5.66699 77 15s42.167 25.166 60.5 47.499s34.666 48.166 48.999 77.499s30.833 67.666 49.5 114.999c20 52 34.667 93.333 44 124s14 56.667 14 78c0 25.333 -7.5 44.166 -22.5 56.499s-39.833 18.5 -74.5 18.5
c-70 0 -115.667 -4 -137 -12c-27.333 -10.667 -51.333 -36.667 -72 -78c-13.333 -27.333 -37 -89.666 -71 -186.999zM607.001 1351l326.001 1.00098c44.667 0 67 -19.333 67 -58c0 -16.667 -4.33301 -35.334 -13 -56.001c-6.66699 -18 -21.667 -27 -45 -27
c-10 0 -23.333 1.83301 -40 5.5s-26.334 5.83398 -29.001 6.50098h-254l-159 -430c26 0 53.5 -0.166992 82.5 -0.5s56.5 -0.5 82.5 -0.5h99h1c44 0 76 -7.83301 96 -23.5s30 -42.5 30 -80.5c0 -54 -25.667 -155 -77 -303c-20.667 -58.667 -39 -107.167 -55 -145.5
s-33.5 -72.833 -52.5 -103.5s-37.333 -54 -55 -70s-39.834 -29.5 -66.501 -40.5s-54.167 -18 -82.5 -21s-64.166 -4.5 -107.499 -4.5h-274c-8.66699 0 -16 5.83301 -22 17.5s-9 25.167 -9 40.5c0 12 2 23 6 33l435 1182c10 27.333 24.833 46.666 44.5 57.999
s43.5 18 71.5 20z" />
    <glyph glyph-name="afii10019" unicode="&#x412;" horiz-adv-x="830" 
d="M502 907c9.33301 0 21.001 -0.166992 35.001 -0.5s30.667 -0.5 50 -0.5c54.667 0 97.667 13.833 129 41.5s56.666 67.167 75.999 118.5c9.33301 24.667 14 47.667 14 69c0 58 -38 87 -114 87c-47.333 0 -71 0.333008 -71 1h-2zM294.001 337
c-33.333 -92.667 -49.999 -149.998 -49.999 -171.998c0 -14.667 4.5 -24.334 13.5 -29.001s23.833 -7 44.5 -7c6 0 16.5 0.166992 31.5 0.5s27.167 0.5 36.5 0.5c21.333 0 39.833 1.66699 55.5 5s34.167 11.166 55.5 23.499s41.166 29.666 59.499 51.999
s38.5 53.833 60.5 94.5s43.667 89.667 65 147c26.667 74 40 135.333 40 184c0 24 -3.33301 44.833 -10 62.5s-15.167 31.5 -25.5 41.5s-22.833 17.833 -37.5 23.5s-28.5 9.33398 -41.5 11.001s-27.167 2.5 -42.5 2.5h-95zM150.002 0.00195312
c-29.333 0 -52.666 5.5 -69.999 16.5s-26 27.5 -26 49.5c0 12 2.66699 26 8 42l437 1185c14.667 39.333 52.667 59 114 59h125c45.333 0 84.333 -10.333 117 -31s56.5 -46.5 71.5 -77.5s22.5 -65.167 22.5 -102.5c0 -24.667 -4 -49.667 -12 -75
c-49.333 -144.667 -115 -223.667 -197 -237c12 -5.33301 24.667 -12.833 38 -22.5s25.5 -19.834 36.5 -30.501s20 -26.167 27 -46.5s10.5 -44.166 10.5 -71.499c0 -60.667 -18.333 -142 -55 -244c-17.333 -48 -34 -90.5 -50 -127.5s-32.333 -69.833 -49 -98.5
s-32.5 -53.167 -47.5 -73.5s-31.833 -37.5 -50.5 -51.5s-36.334 -25 -53.001 -33s-36.667 -14.333 -60 -19s-45.333 -7.66699 -66 -9s-46 -2 -76 -2h-195z" />
    <glyph glyph-name="afii10020" unicode="&#x413;" horiz-adv-x="752" 
d="M619 1223l-401 -1077c-5.33301 -14.667 -10.5 -33.334 -15.5 -56.001s-10.833 -42.667 -17.5 -60c-3.33301 -9.33301 -11.666 -16.333 -24.999 -21s-25.333 -7.33398 -36 -8.00098s-25.667 -1 -45 -1c-24 0 -36 12.667 -36 38c0 19.333 8.33301 50 25 92l435 1178
c9.33301 27.333 36.333 42 81 44h476c44 0 66 -19.333 66 -58c0 -16.667 -4 -35.334 -12 -56.001c-6.66699 -18 -21.667 -27 -45 -27c-10 0 -23.333 1.83301 -40 5.5s-26.334 5.83398 -29.001 6.50098h-381z" />
    <glyph glyph-name="afii10021" unicode="&#x414;" horiz-adv-x="824" 
d="M675 224c-4 -13.333 -6.00195 -25.666 -6.00195 -36.999c0 -16 4.5 -29.5 13.5 -40.5s18.833 -18.667 29.5 -23s20.5 -10 29.5 -17s13.5 -14.833 13.5 -23.5c0 -16.667 -7.16699 -42.334 -21.5 -77.001s-33.5 -67.334 -57.5 -98.001s-46.333 -46 -67 -46
c-12 0 -21 4.83301 -27 14.5s-10.167 21.167 -12.5 34.5s-5.16602 26.833 -8.49902 40.5s-10 25.167 -20 34.5s-23.667 14 -41 14h-407c-19.333 0 -32.166 -5.33301 -38.499 -16s-9.5 -26 -9.5 -46v-24c0 -9.33301 -0.333008 -17 -1 -23s-2.83398 -11.833 -6.50098 -17.5
s-9.16699 -9.5 -16.5 -11.5h-12c-16 0 -30.667 8.66699 -44 26s-23.666 38 -30.999 62s-13 46.667 -17 68s-6 38.333 -6 51c0 17.333 7 31.833 21 43.5s28 17.5 42 17.5h94l291 610c135.333 282.667 242.333 462.667 321 540c43.333 42.667 91.333 66.334 144 71.001
c12 0.666992 30.667 1 56 1h113c14.667 0 30.667 -5.66699 48 -17s26 -25.666 26 -42.999c0 -6 -1 -11.667 -3 -17l-188 -506c-126 -336.667 -193 -518.334 -201 -545.001zM497.998 130l398.999 1092h-52c-8.66699 0 -15.167 -0.166992 -19.5 -0.5
s-10.5 -1.66602 -18.5 -3.99902s-14.667 -5.66602 -20 -9.99902s-12.666 -10.666 -21.999 -18.999s-18.333 -19 -27 -32l-31.5 -47c-12.333 -18.333 -25.5 -40.166 -39.5 -65.499l-48 -88l-59 -113l-70 -140l-273 -572z" />
    <glyph glyph-name="afii10022" unicode="&#x415;" horiz-adv-x="820" 
d="M215 130c0 1.33301 142.666 2.00098 427.999 2.00098c20 0 35.333 -5.83301 46 -17.5s16 -26.167 16 -43.5c0 -18.667 -6.16699 -35.167 -18.5 -49.5s-28.833 -21.5 -49.5 -21.5h-1h-538c-38 0 -57 13.333 -57 40c0 9.33301 2.33301 19.333 7 30l458 1242
c10 26.667 32.667 40 68 40h459c45.333 0 68 -19.333 68 -58c0 -16.667 -4 -35.334 -12 -56.001c-7.33301 -18 -22.666 -27 -45.999 -27c-10 0 -23.333 1.83301 -40 5.5s-26.667 5.83398 -30 6.50098l-355 -1l-163 -444h281h1c20 0 35.333 -5.83301 46 -17.5
s16 -25.834 16 -42.501c0 -18 -6.16699 -34.333 -18.5 -49s-28.833 -22 -49.5 -22h-2h-324z" />
    <glyph glyph-name="afii10024" unicode="&#x416;" horiz-adv-x="1181" 
d="M1330 1138l-76.002 -109.5l-84 -120l-69 -93.5c-24.667 -32 -43.667 -54 -57 -66c-0.666992 0 -1.83398 -53.667 -3.50098 -161s-5.83398 -204.666 -12.501 -291.999c-10.667 -126 -20 -198.333 -28 -217c-8.66699 -21.333 -15.167 -36.5 -19.5 -45.5
s-10.5 -16.5 -18.5 -22.5s-15.667 -9.33301 -23 -10s-20 -1 -38 -1h-11c-26.667 0 -40 16 -40 48c0 12 1.66699 22.667 5 32c14.667 86 25.667 157 33 213c16.667 133.333 25 241.666 25 324.999c0 4.66699 -0.166992 11.5 -0.5 20.5s-0.5 15.5 -0.5 19.5l-126 -68
l-187 -511c-7.33301 -18.667 -14.166 -33.5 -20.499 -44.5s-13.666 -19 -21.999 -24s-16.166 -8 -23.499 -9s-18 -1.5 -32 -1.5h-13c-30.667 0 -46 11.667 -46 35c0 8.66699 3.66699 23.667 11 45l191 529l-36 42c-15.333 -11.333 -31.5 -25.666 -48.5 -42.999
s-35.333 -38.833 -55 -64.5l-48.5 -63.5c-12.667 -16.667 -30.834 -42 -54.501 -76s-39.5 -56.333 -47.5 -67c-47.333 -66 -99.333 -152 -156 -258c-10.667 -19.333 -18.667 -32.833 -24 -40.5s-13 -15.167 -23 -22.5s-21.333 -11.833 -34 -13.5s-30.667 -2.5 -54 -2.5
c-14.667 0 -22 10.667 -22 32c0 12.667 3.66699 29 11 49c6.66699 17.333 22.667 48.666 48 93.999s54 91.666 86 138.999c39.333 58 89.5 125.833 150.5 203.5l152.5 190l61 73.5l-4 11c-3.33301 7.33301 -8.5 44.166 -15.5 110.499s-14.833 158.833 -23.5 277.5
c-3.33301 54.667 -5 83 -5 85c0 22.667 2.33301 41 7 55c5.33301 14.667 12.5 24.167 21.5 28.5s21.833 6.5 38.5 6.5h16c21.333 0 37.833 -4.33301 49.5 -13s20.5 -25.334 26.5 -50.001l-6 -89c1.33301 -48 2.16602 -100.667 2.49902 -158s3.83301 -116.166 10.5 -176.499
s16.334 -102.166 29.001 -125.499l166 456c1.33301 6.66699 3 13 5 19s3.33301 10.333 4 13s1.16699 5.66699 1.5 9s0.5 7.33301 0.5 12c0 6.66699 -0.333008 15 -1 25s-1 15.333 -1 16c0 17.333 10.167 31.666 30.5 42.999s42.833 17 67.5 17
c27.333 0 46.666 -7.66699 57.999 -23c6 -8 9 -18.333 9 -31c0 -8 -1.16699 -16.5 -3.5 -25.5s-5.5 -19.333 -9.5 -31s-6.66699 -20.5 -8 -26.5l-172 -473c90 73.333 222.333 232.333 397 477l18 26.5c9.33301 13.667 16.5 23.834 21.5 30.501s12.5 15.667 22.5 27
s19 19.833 27 25.5s17.667 10.834 29 15.501s23 7 35 7h4c4 0 7.83301 -0.166992 11.5 -0.5l10.5 -1c3.33301 -0.333008 6.5 -1 9.5 -2s5.83301 -2.16699 8.5 -3.5s4.83398 -3.16602 6.50098 -5.49902s3 -5 4 -8s1.5 -6.83301 1.5 -11.5
c0 -8.66699 -3.33301 -22.334 -10 -41.001c-3.33301 -14 -19.666 -37 -48.999 -69s-49.666 -56 -60.999 -72z" />
    <glyph glyph-name="afii10025" unicode="&#x417;" horiz-adv-x="849" 
d="M296 337c-15.333 -38.667 -22.9971 -72.3301 -22.9971 -100.997c0 -36 10.667 -63 32 -81s47 -27 77 -27c28.667 0 55.667 6 81 18s46.833 26.667 64.5 44s34.834 40.333 51.501 69s30 54.667 40 78s21.333 51.666 34 84.999c32.667 87.333 49 158.666 49 213.999
c0 14 -1.16699 27 -3.5 39s-5.5 22.333 -9.5 31s-8.66699 16.667 -14 24s-11.333 13.333 -18 18s-13.667 9.16699 -21 13.5s-14.833 7.66602 -22.5 9.99902s-15.334 5 -23.001 8s-14.834 5.16699 -21.501 6.5c-16 7.33301 -24 19 -24 35c0 9.33301 3.83301 17.833 11.5 25.5
s19.167 12.834 34.5 15.501c1.33301 0 3 0.333008 5 1c17.333 2.66699 30 4.83398 38 6.50098s19 4.33398 33 8.00098s24.667 7.16699 32 10.5s16.666 8 27.999 14s20.5 12.833 27.5 20.5l24.5 28c9.33301 11 17.666 23.333 24.999 37s15 29.5 23 47.5s16 38 24 60
c5.33301 10.667 8 23 8 37c0 26 -10 47.5 -30 64.5s-49.667 25.5 -89 25.5c-11.333 0 -20.833 -0.333008 -28.5 -1s-18.667 -2.5 -33 -5.5s-26.5 -7.33301 -36.5 -13s-20.333 -14.5 -31 -26.5s-19.334 -26.333 -26.001 -43c-13.333 -36 -24.666 -58.333 -33.999 -67
s-26.666 -13 -51.999 -13h-25c-28 0.666992 -42 15 -42 43c0 10 2.33301 22.667 7 38c16 41.333 31.5 74.666 46.5 99.999s34 47.5 57 66.5s50.167 32.333 81.5 40s70 11.5 116 11.5c84 0 150.167 -17.5 198.5 -52.5s72.5 -79.833 72.5 -134.5
c0 -20.667 -4 -42.334 -12 -65.001c-14.667 -41.333 -30.667 -78.833 -48 -112.5s-33.5 -60.334 -48.5 -80.001s-30.833 -36.667 -47.5 -51s-30.167 -24.5 -40.5 -30.5s-20.5 -10.667 -30.5 -14c37.333 -46.667 56 -105.334 56 -176.001
c0 -63.333 -14.667 -136.333 -44 -219c-40.667 -114 -76.334 -195.333 -107.001 -244c-63.333 -102 -151.333 -159.333 -264 -172c-18.667 -2.66699 -38 -4 -58 -4c-73.333 0 -131.833 19.333 -175.5 58s-65.5 93.334 -65.5 164.001c0 48 10.667 100.333 32 157
c6 18.667 15 32.834 27 42.501s28.333 15.167 49 16.5h5c18 0 33.333 -5.33301 46 -16s19 -25.334 19 -44.001c0 -11.333 -2.66699 -24 -8 -38z" />
    <glyph glyph-name="afii10026" unicode="&#x418;" horiz-adv-x="900" 
d="M1145 1290l-420 -1144c-5.33301 -14.667 -10.5 -33.334 -15.5 -56.001s-10.833 -42.667 -17.5 -60c-3.33301 -9.33301 -11.666 -16.333 -24.999 -21s-25.333 -7.33398 -36 -8.00098s-25.667 -1 -45 -1c-24 0 -36 12.667 -36 38c0 18 8.33301 48.667 25 92l328 866
l-718 -966c-5.33301 -7.33301 -9.66602 -12.666 -12.999 -15.999s-8.66602 -6.5 -15.999 -9.5s-16 -4.5 -26 -4.5h-76c-14.667 0 -22 6 -22 18c0 6 1.66699 13.667 5 23l428 1158l16 91c3.33301 17.333 14.666 32.166 33.999 44.499s39.666 18.5 60.999 18.5
c23.333 0 40.666 -7.66699 51.999 -23c5.33301 -8 8 -18.333 8 -31c0 -8 -1 -16.5 -3 -25.5s-5 -19.333 -9 -31s-6.66699 -20.5 -8 -26.5l-290 -786l675 897c11.333 16.667 27.333 25 48 25h70c20.667 0 31 -11.667 31 -35c0 -7.33301 -1.66699 -16.333 -5 -27z" />
    <glyph glyph-name="afii10027" unicode="&#x419;" horiz-adv-x="898" 
d="M718 1536c13.333 0 26.666 -1.66797 39.999 -5.00098c11.333 -2.66699 20.166 -7.66699 26.499 -15s10.5 -14.333 12.5 -21s7.33301 -12.667 16 -18s21 -8 37 -8h2c18.667 0 33.834 2.83301 45.501 8.5s20.334 12.334 26.001 20.001l17 23
c5.66699 7.66699 14.167 14.167 25.5 19.5s26 8 44 8c0.666992 0 2.16699 -0.166992 4.5 -0.5s3.83301 -0.5 4.5 -0.5c40 -1.33301 60 -13.666 60 -36.999c0 -9.33301 -2.33301 -20 -7 -32c-7.33301 -20.667 -33.833 -40.834 -79.5 -60.501s-101.834 -29.5 -168.501 -29.5
c-33.333 0 -62.166 2.83301 -86.499 8.5s-42.333 13.167 -54 22.5s-20 18.666 -25 27.999s-7.5 19 -7.5 29c0 16.667 5.16699 30.834 15.5 42.501s27.5 17.5 51.5 17.5zM1145 1290l-420 -1144c-5.33301 -14.667 -10.5 -33.334 -15.5 -56.001s-10.833 -42.667 -17.5 -60
c-3.33301 -9.33301 -11.666 -16.333 -24.999 -21s-25.333 -7.33398 -36 -8.00098s-25.667 -1 -45 -1c-24 0 -36 12.667 -36 38c0 18 8.33301 48.667 25 92l328 866l-718 -966c-5.33301 -7.33301 -9.66602 -12.666 -12.999 -15.999s-8.66602 -6.5 -15.999 -9.5
s-16 -4.5 -26 -4.5h-76c-14.667 0 -22 6 -22 18c0 6 1.66699 13.667 5 23l428 1158l16 91c3.33301 17.333 14.666 32.166 33.999 44.499s39.666 18.5 60.999 18.5c23.333 0 40.666 -7.66699 51.999 -23c5.33301 -8 8 -18.333 8 -31c0 -8 -1 -16.5 -3 -25.5
s-5 -19.333 -9 -31s-6.66699 -20.5 -8 -26.5l-290 -786l675 897c11.333 16.667 27.333 25 48 25h70c20.667 0 31 -11.667 31 -35c0 -7.33301 -1.66699 -16.333 -5 -27z" />
    <glyph glyph-name="afii10028" unicode="&#x41a;" horiz-adv-x="803" 
d="M605 367c-5.33301 47.333 -11.665 91.8369 -18.998 133.504s-13.5 74.334 -18.5 98.001l-28.5 130.5l-124 -56l-197 -527c-5.33301 -14.667 -10.5 -33.334 -15.5 -56.001s-10.833 -42.667 -17.5 -60c-3.33301 -9.33301 -11.666 -16.333 -24.999 -21
s-25.333 -7.33398 -36 -8.00098s-25.667 -1 -45 -1c-24 0 -36 12.667 -36 38c0 19.333 8.33301 50 25 92l412 1112c18.667 48.667 34 79.167 46 91.5s34.667 18.5 68 18.5c30.667 0 46 -15 46 -45c0 -18 -4.66699 -39.667 -14 -65l-152 -411
c87.333 43.333 168.666 100.666 243.999 171.999s140.666 151 195.999 239l26.5 40.5c5.66699 8.33301 14 19.166 25 32.499s21.5 22.833 31.5 28.5s20.667 8.5 32 8.5c40 0 60 -15.667 60 -47c0 -16 -5 -37 -15 -63c-4 -10 -11.333 -23 -22 -39l-16 -24
c-34 -51.333 -90.333 -119 -169 -203s-144.334 -144.333 -197.001 -181l14 -69c9.33301 -46 20 -104.333 32 -175s20.333 -131.334 25 -182.001c5.33301 -52.667 9 -92.834 11 -120.501s3.16699 -52.167 3.5 -73.5s0.833008 -49.333 1.5 -84c0.666992 0 1 -6 1 -18
c0 -24 -3.66699 -41.333 -11 -52c-12 -16.667 -31.333 -25 -58 -25c-31.333 4.66699 -53 26.334 -65 65.001l-4 106c-3.33301 71.333 -8.33301 138 -15 200z" />
    <glyph glyph-name="afii10029" unicode="&#x41b;" horiz-adv-x="872" 
d="M346 740c73.333 200.667 157.668 352.835 253.001 456.502s205.666 155.5 330.999 155.5h130c13.333 0 26.5 -5.16699 39.5 -15.5s19.5 -23.5 19.5 -39.5c0 -8 -1.66699 -15.333 -5 -22l-416 -1129c-5.33301 -14.667 -10.5 -33.334 -15.5 -56.001
s-10.5 -42.667 -16.5 -60c-4 -9.33301 -12.667 -16.333 -26 -21s-25.333 -7.33398 -36 -8.00098s-25.334 -1 -44.001 -1c-24 0 -36 12.667 -36 38c0 19.333 8 50 24 92l400 1092h-52c-35.333 0 -73.833 -16 -115.5 -48s-81.334 -73.333 -119.001 -124
s-72.667 -106.334 -105 -167.001s-58.833 -120.667 -79.5 -180l-56 -157c-16 -44 -34.833 -92 -56.5 -144s-41.667 -96.167 -60 -132.5s-39 -72.666 -62 -108.999s-45.667 -65.333 -68 -87s-46.666 -39.334 -72.999 -53.001s-53.166 -20.5 -80.499 -20.5
c-31.333 0 -55.333 4.16699 -72 12.5s-25 19.5 -25 33.5c0 10 2.83301 19.167 8.5 27.5s12.167 15.166 19.5 20.499s17.333 10.5 30 15.5s23.167 8.83301 31.5 11.5s19.833 5.66699 34.5 9c21.333 6.66699 51.5 44.834 90.5 114.501s77 149.834 114 240.501
s68.167 175.667 93.5 255z" />
    <glyph glyph-name="afii10030" unicode="&#x41c;" horiz-adv-x="1136" 
d="M569 1089l-350.004 -942.999c-5.33301 -14.667 -10.5 -33.334 -15.5 -56.001s-10.5 -42.667 -16.5 -60c-3.33301 -9.33301 -11.666 -16.333 -24.999 -21s-25.333 -7.33398 -36 -8.00098s-25.667 -1 -45 -1c-24 0 -36 12.667 -36 38c0 20.667 8.66699 51.334 26 92.001
l421 1145c10.667 28.667 25.167 49.834 43.5 63.501s37.166 20.5 56.499 20.5c12.667 0 23.834 -2.66699 33.501 -8s15.834 -12.333 18.501 -21l101 -538l503 535c28.667 22 58.334 33 89.001 33c28 0 42 -11 42 -33c0 -8.66699 -1.33301 -17 -4 -25l-425 -1156
c-4.66699 -14.667 -9.5 -33.334 -14.5 -56.001s-10.833 -42.667 -17.5 -60c-3.33301 -9.33301 -11.666 -16.333 -24.999 -21s-25.5 -7.33398 -36.5 -8.00098s-25.833 -1 -44.5 -1c-24 0 -36 12.667 -36 38c0 20.667 8.33301 51.334 25 92.001l328 894l-396 -415
c-11.333 -7.33301 -24.333 -11 -39 -11c-23.333 0 -37.333 6.66699 -42 20z" />
    <glyph glyph-name="afii10031" unicode="&#x41d;" horiz-adv-x="887" 
d="M1108 1240l-406 -1111l-28 -65c-4.66699 -12.667 -10 -23.167 -16 -31.5s-11.833 -14.833 -17.5 -19.5s-14.667 -8 -27 -10s-23 -3.16699 -32 -3.5s-24.167 -0.5 -45.5 -0.5c-28 0 -38 11 -30 33c5.33301 13.333 12.833 27.666 22.5 42.999s18.5 33.333 26.5 54
c13.333 32.667 48.166 127 104.499 283s84.5 234.333 84.5 235h-338l-209 -568c-14.667 -37.333 -26.667 -59.833 -36 -67.5s-29.333 -11.5 -60 -11.5h-15c-32.667 0 -49 10.333 -49 31c0 4.66699 0.666992 9.66699 2 15s3.33301 12 6 20s4.33398 12.667 5.00098 14l206 552
c136.667 367.333 211.667 571.333 225 612c18 48.667 33 79.167 45 91.5s35 18.5 69 18.5c30.667 0 46 -15 46 -45c0 -15.333 -4.66699 -37 -14 -65l-174 -466h339l54.5 151l59 162.5l57.5 148.5c8 20 14.833 38.167 20.5 54.5s15 29.666 28 39.999s30.167 15.5 51.5 15.5
c39.333 0 59 -15.667 59 -47c0 -18 -4.66699 -39 -14 -63z" />
    <glyph glyph-name="afii10032" unicode="&#x41e;" horiz-adv-x="840" 
d="M778 1222c-40.667 0 -78.4971 -16.6689 -113.497 -50.002s-71.167 -87.166 -108.5 -161.499s-80.333 -177.166 -129 -308.499c-46 -124 -80 -224.667 -102 -302s-33 -137.666 -33 -180.999c0 -59.333 22.667 -89 68 -89c25.333 0 49.666 5.83301 72.999 17.5
s46.166 30.167 68.499 55.5s43.333 53.5 63 84.5s40.667 70.5 63 118.5s43.166 95.667 62.499 143s41.333 104.333 66 171c70.667 187.333 106 319.666 106 396.999c0 70 -28 105 -84 105zM279.003 697.998c80.667 218.667 138.666 362.336 173.999 431.003
c46 89.333 96 149.666 150 180.999c49.333 28 119.333 42 210 42c34 0 62.833 -2.5 86.5 -7.5s45 -13.667 64 -26s33.167 -30 42.5 -53s14 -51.833 14 -86.5c0 -96.667 -40 -253.667 -120 -471l-58.5 -155.5l-52 -131c-18.333 -45 -34.666 -82.333 -48.999 -112
s-30 -59.834 -47 -90.501s-33 -55.334 -48 -74.001s-31.667 -37.167 -50 -55.5s-36.5 -32.333 -54.5 -42s-38.167 -18.5 -60.5 -26.5s-45.333 -13.5 -69 -16.5s-50.167 -4.5 -79.5 -4.5c-68 0 -117.667 12.667 -149 38s-47 68 -47 128c0 52 11.667 120.5 35 205.5
s59.333 193.833 108 326.5z" />
    <glyph glyph-name="afii10033" unicode="&#x41f;" horiz-adv-x="876" 
d="M944 1221l-327.001 -0.998047l-397 -1074c-5.33301 -14.667 -10.5 -33.334 -15.5 -56.001s-10.5 -42.667 -16.5 -60c-4 -9.33301 -12.667 -16.333 -26 -21s-25.333 -7.33398 -36 -8.00098s-25.334 -1 -44.001 -1c-24 0 -36 12.667 -36 38c0 19.333 8.33301 50 25 92
l436 1184c4.66699 12.667 11.834 22.167 21.501 28.5s23.834 9.5 42.501 9.5l484 -2c17.333 0 31.333 -4.66699 42 -14s16 -22.333 16 -39c0 -10 -1.33301 -19 -4 -27l-441 -1195c-14 -38 -25.5 -60.667 -34.5 -68s-28.167 -11 -57.5 -11h-16c-27.333 0 -41 14.333 -41 43
c0 10.667 1.66699 23 5 37z" />
    <glyph glyph-name="afii10034" unicode="&#x420;" horiz-adv-x="834" 
d="M304 369l-86.001 -223.001c-5.33301 -14.667 -10.5 -33.334 -15.5 -56.001s-10.833 -42.667 -17.5 -60c-3.33301 -9.33301 -11.666 -16.333 -24.999 -21s-25.333 -7.33398 -36 -8.00098s-25.667 -1 -45 -1c-24 0 -36 12.667 -36 38c0 19.333 8.33301 50 25 92l424 1144
c11.333 30.667 26.666 51.334 45.999 62.001s43.666 16 72.999 16h207c73.333 0 127 -11.333 161 -34s51 -64 51 -124c0 -76.667 -31 -198.667 -93 -366l-49.5 -129c-15 -38 -29.833 -72.667 -44.5 -104s-28 -58.666 -40 -81.999s-24.833 -44.166 -38.5 -62.499
s-26 -33.666 -37 -45.999s-24 -22.833 -39 -31.5s-28.333 -15.334 -40 -20.001s-26.5 -8.16699 -44.5 -10.5s-34.167 -3.83301 -48.5 -4.5s-33.166 -1 -56.499 -1c-74 0 -120.667 1.5 -140 4.5s-37.666 12.167 -54.999 27.5zM467.999 814.999
c-30.667 -83.333 -52.332 -145 -64.999 -185s-19 -71.667 -19 -95c0 -26 8.83301 -43.833 26.5 -53.5s47.167 -14.5 88.5 -14.5c46.667 0 79.667 5 99 15c37.333 18.667 75.666 70 114.999 154c22.667 48.667 49 113.667 79 195c56.667 154 85 257.667 85 311
c0 10 -0.666992 18.833 -2 26.5s-4 14.167 -8 19.5l-10.5 13.5c-3 3.66699 -8.33301 6.83398 -16 9.50098s-14 4.66699 -19 6s-13 2.33301 -24 3s-19.5 1 -25.5 1s-16 0.333008 -30 1h-23c-38.667 0 -66 -6.33301 -82 -19c-21.333 -17.333 -47 -64 -77 -140
c-7.33301 -18.667 -38 -101.334 -92 -248.001z" />
    <glyph glyph-name="afii10035" unicode="&#x421;" horiz-adv-x="834" 
d="M882 1119c5.33301 14.667 8.00781 26.9961 8.00781 36.9961c0 44 -33.333 66 -100 66h-30c-14.667 0 -26.834 -0.833008 -36.501 -2.5s-21.334 -6.16699 -35.001 -13.5s-26.334 -17.666 -38.001 -30.999s-25.5 -32 -41.5 -56s-32.333 -53.667 -49 -89
s-35.5 -78.666 -56.5 -129.999s-43.833 -110.333 -68.5 -177c-56.667 -152.667 -96.834 -267.334 -120.501 -344.001s-35.5 -134.667 -35.5 -174c0 -26 5.5 -45 16.5 -57s28.167 -18 51.5 -18h18h18c21.333 0 39.166 1 53.499 3s30.166 6.33301 47.499 13
s32.5 17.834 45.5 33.501s23.833 35.834 32.5 60.501c16 41.333 24.167 62 24.5 62s-0.666992 -3.66699 -3 -11s-3.16602 -11 -2.49902 -11s1 0.666992 1 2c4.66699 10 7.16699 19.333 7.5 28s1.16602 15.667 2.49902 21c8.66699 22.667 18.167 37.667 28.5 45
s26.833 11.666 49.5 12.999h4c18 0 33.333 -5.33301 46 -16s19 -25.334 19 -44.001c0 -10.667 -2.66699 -23 -8 -37l-2 -6l1 7l1 6c-2 0 -11 -22.667 -27 -68c-10 -28 -20.667 -52 -32 -72s-26.833 -40.667 -46.5 -62s-42.334 -38.666 -68.001 -51.999
s-58.167 -24.166 -97.5 -32.499s-84.333 -12.5 -135 -12.5c-64.667 0 -112 13.5 -142 40.5s-45 69.833 -45 128.5c0 55.333 12.5 127.5 37.5 216.5s63.5 203.5 115.5 343.5l54.5 145.5l48 120.5c17 41.333 31.667 74.833 44 100.5s26.333 52 42 79s30 48.167 43 63.5
s27.833 30.5 44.5 45.5s33 26.167 49 33.5s34.667 14.166 56 20.499s43 10.333 65 12s47 2.5 75 2.5c84 0 143.833 -13.667 179.5 -41s53.5 -63.333 53.5 -108c0 -25.333 -5.33301 -53.666 -16 -84.999c-10.667 -28.667 -23.334 -49.167 -38.001 -61.5s-39 -18.5 -73 -18.5
c-26 0 -39 16.333 -39 49c0 12.667 1 23.334 3 32.001z" />
    <glyph glyph-name="afii10036" unicode="&#x422;" horiz-adv-x="890" 
d="M1085 1223l-210.999 -0.998047l-402 -1092c-2.66699 -8.66699 -7.16699 -19.834 -13.5 -33.501s-10.833 -23.834 -13.5 -30.501c-4.66699 -13.333 -9.5 -24 -14.5 -32s-10 -14.5 -15 -19.5s-12.833 -8.5 -23.5 -10.5s-20.334 -3.16699 -29.001 -3.5
s-23.334 -0.5 -44.001 -0.5c-14 0 -24.667 4 -32 12s-11 17.667 -11 29c0 7.33301 2.33301 14.166 7 20.499l19.5 27c8.33301 11.667 15.833 25.5 22.5 41.5c9.33301 23.333 34.333 89.666 75 198.999l170 461.5l158 431.5h-323c-24 0 -43.667 4.83301 -59 14.5
s-23 28.834 -23 57.501v7c1.33301 22.667 8.5 38.334 21.5 47.001s30.833 13 53.5 13c13.333 0 33.5 -1.83301 60.5 -5.5s46.167 -5.5 57.5 -5.5h8l621 2c23.333 0 40.5 -5.16699 51.5 -15.5s16.5 -24.5 16.5 -42.5c0 -16.667 -4 -35.334 -12 -56.001
c-7.33301 -18 -22.666 -27 -45.999 -27c-10 0 -23.333 1.83301 -40 5.5s-26.667 5.83398 -30 6.50098z" />
    <glyph glyph-name="afii10037" unicode="&#x423;" horiz-adv-x="864" 
d="M604 323c-20 4 -39.998 10.168 -59.998 18.501s-42.667 19 -68 32s-44 22.167 -56 27.5c-17.333 8 -33.666 18 -48.999 30s-30.333 26.833 -45 44.5s-26.167 39.334 -34.5 65.001s-12.5 53.834 -12.5 84.501c0 46 10 96.667 30 152l163 447l17 44
c5.33301 13.333 11 25.333 17 36s12.5 19.834 19.5 27.501s15.5 13.5 25.5 17.5s21.667 6 35 6c52 0 78 -13.333 78 -40c0 -8 -1.33301 -15.667 -4 -23c-10 -30 -21 -54.167 -33 -72.5s-19.667 -31.5 -23 -39.5l-154 -412c-18.667 -50.667 -28 -91.334 -28 -122.001
c0 -28 7 -51.333 21 -70s37 -41 69 -67c20.667 -12 37.167 -20.333 49.5 -25s25.833 -9.16699 40.5 -13.5s30 -9.5 46 -15.5l287 761l18 44c5.33301 13.333 11 25.333 17 36s12.5 19.834 19.5 27.501s15.667 13.5 26 17.5s22.166 6 35.499 6
c26.667 0 46.167 -3.16699 58.5 -9.5s18.5 -16.5 18.5 -30.5c0 -5.33301 -1.33301 -13 -4 -23c-7.33301 -22.667 -14 -39.834 -20 -51.501s-12.333 -21.834 -19 -30.501s-12.667 -18.334 -18 -29.001l-339 -910c0 -0.666992 -0.333008 -1.33398 -1 -2.00098l-15.5 -42.5
c-3.66699 -9.66699 -9.5 -23.167 -17.5 -40.5s-15.167 -30.833 -21.5 -40.5s-15 -21.5 -26 -35.5s-22 -25 -33 -33s-24.667 -16.667 -41 -26s-33.5 -16.5 -51.5 -21.5s-38.667 -9.16699 -62 -12.5s-48.666 -5 -75.999 -5c-42.667 0 -82.334 6.66699 -119.001 20
s-66.334 30.333 -89.001 51s-40.5 42.167 -53.5 64.5s-19.5 43.166 -19.5 62.499c0 8.66699 1.33301 16.334 4 23.001c2.66699 8 5.66699 16 9 24s7 15.167 11 21.5s9.66699 11.666 17 15.999s15.666 6.5 24.999 6.5h2c14 -0.666992 25.667 -5.5 35 -14.5
s14 -21.167 14 -36.5c0 -40.667 15.833 -68.667 47.5 -84s79.167 -23 142.5 -23c26.667 0 49.167 3.33301 67.5 10s35 18.5 50 35.5s27.833 35.833 38.5 56.5s23.667 49.334 39 86.001z" />
    <glyph glyph-name="afii10038" unicode="&#x424;" horiz-adv-x="1181" 
d="M1048 1308l-37.002 -101.002l151 1h2c24.667 0 46.334 -2.16699 65.001 -6.5s35.834 -11.833 51.501 -22.5s27.5 -26.167 35.5 -46.5s12 -44.833 12 -73.5c0 -66.667 -21.667 -157.667 -65 -273c-66.667 -176 -111 -285.333 -133 -328
c-28 -53.333 -59 -87.666 -93 -102.999c-25.333 -11.333 -67.333 -17 -126 -17c-7.33301 0 -19.166 0.166992 -35.499 0.5s-29.166 0.5 -38.499 0.5l-142 -2l-75 -207l-14 -31c-6.66699 -14.667 -11.334 -25.667 -14.001 -33c-4 -12 -7.5 -21.333 -10.5 -28
s-7 -12.667 -12 -18s-9.33301 -9.16602 -13 -11.499s-10.334 -4.33301 -20.001 -6s-18.167 -2.5 -25.5 -2.5h-37c-15.333 0 -27 3.16699 -35 9.5s-10.333 14.166 -7 23.499c5.33301 14 11.333 28.667 18 44l22 53l82 207l-148 2c-24.667 0.666992 -44.5 1.66699 -59.5 3
s-30.833 4.33301 -47.5 9s-29.5 11.167 -38.5 19.5s-16.5 20 -22.5 35s-9 33.167 -9 54.5c0 67.333 29 180 87 338c61.333 164.667 105.666 269.334 132.999 314.001c27.333 45.333 60.333 73.666 99 84.999c24 6.66699 69.667 10.334 137 11.001h181l30 82
c8.66699 22.667 22.334 40.834 41.001 54.501s38.667 20.5 60 20.5h2c12 0 23.5 -4.66699 34.5 -14s16.5 -20 16.5 -32c0 -4.66699 -0.666992 -8.33398 -2 -11.001zM964.998 1077l-221.999 -609.998l87 3c5.33301 0 12.333 -0.166992 21 -0.5s15 -0.5 19 -0.5
c15.333 0 28 0.333008 38 1s20.167 2 30.5 4s18.833 4.66699 25.5 8s14 8 22 14s14.5 13.167 19.5 21.5l18.5 29.5c7.33301 11.333 13.666 24.666 18.999 39.999s12.333 32.666 21 51.999s16.667 40.833 24 64.5s17 50.167 29 79.5c40 109.333 60 184.333 60 225
c0 29.333 -8.83301 48 -26.5 56s-47.5 12 -89.5 12c0 0.666992 -32 1 -96 1zM818.999 1076l-83.999 -2.00195c-4.66699 0 -11.334 0.166992 -20.001 0.5s-15 0.5 -19 0.5c-52.667 0 -89.667 -8.33301 -111 -25c-24 -18 -50 -61.667 -78 -131l-48 -127
c-28.667 -78.667 -49 -137.667 -61 -177s-18 -69.666 -18 -90.999s6.33301 -35.666 19 -42.999s33.667 -11 63 -11h10l125 -3z" />
    <glyph glyph-name="afii10039" unicode="&#x425;" horiz-adv-x="971" 
d="M971 1282c17.333 22 34.833 40 52.5 54s32.5 21 44.5 21c27.333 0 46.166 -2.66699 56.499 -8s15.5 -13.333 15.5 -24c0 -6.66699 -2 -15.334 -6 -26.001c-5.33301 -16.667 -9 -27.167 -11 -31.5s-12.333 -19.5 -31 -45.5c-123.333 -175.333 -253.666 -350 -390.999 -524
l56 -602c0.666992 0 1 -6 1 -18c0 -24 -3.66699 -41.333 -11 -52c-12 -16.667 -31.333 -25 -58 -25c-18 2.66699 -33.167 10.334 -45.5 23.001s-18.833 26.667 -19.5 42l-48 473l-364 -461c-4.66699 -4.66699 -10.5 -11.834 -17.5 -21.501s-13 -17.167 -18 -22.5
s-11.5 -11.166 -19.5 -17.499s-17.167 -10.833 -27.5 -13.5s-22.5 -4 -36.5 -4h-5c-28.667 0 -43 15.333 -43 46c0 12 1.66699 23.333 5 34l505 660l-53 530c0 1.33301 -0.166992 3.5 -0.5 6.5s-0.5 5.5 -0.5 7.5c0 46 22.667 69 68 69c23.333 0 41.5 -4.16699 54.5 -12.5
s20.167 -24.833 21.5 -49.5l36 -387z" />
    <glyph glyph-name="afii10040" unicode="&#x426;" horiz-adv-x="888" 
d="M1089 1240l-369 -1000c0 -1.33301 -1.16699 -5.5 -3.5 -12.5s-4.16602 -14.5 -5.49902 -22.5s-2 -15.667 -2 -23c0 -23.333 8.33301 -40.666 25 -51.999c8.66699 0 18 -1.33301 28 -4s21 -7.16699 33 -13.5s22 -16.666 30 -30.999s12 -31.166 12 -50.499
c0 -20.667 -4.66699 -44.667 -14 -72c-29.333 -78 -63 -117 -101 -117c-4.66699 0 -9.5 0.666992 -14.5 2s-7.83301 2 -8.5 2c-11.333 0 -20.5 6.83301 -27.5 20.5s-10.5 27.5 -10.5 41.5c0 6.66699 1 11.334 3 14.001l16 38c10.667 25.333 16.667 43.666 18 54.999
c-21.333 0 -38.833 3.33301 -52.5 10s-24.667 15.5 -33 26.5l-30.5 39.5c-18 -12.667 -34 -23 -48 -31s-32.833 -17.333 -56.5 -28s-50.334 -18.667 -80.001 -24s-61.834 -8 -96.501 -8c-66.667 0 -115 11.167 -145 33.5s-45 58.833 -45 109.5c0 65.333 28.667 175 86 329
l132 356c88 236.667 138.667 375.334 152 416.001c18 48.667 33 79.167 45 91.5s35 18.5 69 18.5c30.667 0 46 -15 46 -45c0 -15.333 -4.66699 -37 -14 -65l-291 -787l-40.5 -112c-8.33301 -24 -16.333 -50.5 -24 -79.5s-11.5 -51.833 -11.5 -68.5
c0 -22 5.66699 -38.5 17 -49.5s29.333 -16.833 54 -17.5c32.667 0 62 4.16699 88 12.5s52.5 22.833 79.5 43.5s52.667 51.334 77 92.001s47.833 91.334 70.5 152.001l70.5 196.5l112.5 311.5l114 302c8.66699 20 15.834 38.167 21.501 54.5s15 29.666 28 39.999
s30.167 15.5 51.5 15.5c39.333 0 59 -15.667 59 -47c0 -18 -4.66699 -39 -14 -63z" />
    <glyph glyph-name="afii10041" unicode="&#x427;" horiz-adv-x="865" 
d="M1067 1179l-405.999 -1101c-13.333 -35.333 -24.5 -57.5 -33.5 -66.5s-25.5 -13.5 -49.5 -13.5c-11.333 0 -20.666 0.333008 -27.999 1c-28.667 0 -43 13.333 -43 40c0 11.333 2.66699 24.666 8 39.999l127 342c-43.333 -16 -81 -27.667 -113 -35s-72.333 -11 -121 -11
c-106 0 -159 52.333 -159 157c0 58 16.667 133.333 50 226l173 466l17 44c5.33301 13.333 11 25.333 17 36s12.5 19.834 19.5 27.501s15.5 13.5 25.5 17.5s21.667 6 35 6c52 0 78 -13.333 78 -40c0 -8 -1.33301 -15.667 -4 -23c-10 -30 -21 -54.167 -33 -72.5
s-19.667 -31.5 -23 -39.5l-160 -429c-24 -66.667 -36 -120 -36 -160c0 -57.333 25.333 -86 76 -86c23.333 0 42.666 1.16699 57.999 3.5s33.5 8 54.5 17s39.833 22.333 56.5 40s35 42.5 55 74.5s40 71.333 60 118c21.333 50.667 40.5 99.834 57.5 147.501l56.5 162.5l53 154
l18 43c5.33301 13.333 11 25.333 17 36s12.5 19.834 19.5 27.501s15.667 13.5 26 17.5s22.166 6 35.499 6c26.667 0 46.167 -3.16699 58.5 -9.5s18.5 -16.5 18.5 -30.5c0 -5.33301 -1.33301 -12.666 -4 -21.999c-7.33301 -23.333 -14 -40.833 -20 -52.5
s-12.333 -21.834 -19 -30.501s-12.667 -18 -18 -28z" />
    <glyph glyph-name="afii10042" unicode="&#x428;" horiz-adv-x="1241" 
d="M1432 1244l-381.999 -1029c-3.33301 -8.66699 -5 -18 -5 -28c0 -25.333 7 -48.166 21 -68.499s34.667 -30.5 62 -30.5h2c8.66699 0 15.5 -3 20.5 -9s7.5 -13.667 7.5 -23c0 -14 -5.5 -26.833 -16.5 -38.5s-26.167 -17.5 -45.5 -17.5c-92.667 0 -151.334 36 -176.001 108
l-36 -31.5c-11.333 -9.66699 -22.166 -18.5 -32.499 -26.5s-21.333 -15.167 -33 -21.5s-24 -11.5 -37 -15.5s-27.667 -7.16699 -44 -9.5s-34.5 -3.5 -54.5 -3.5c-30 0 -56.333 2.33301 -79 7s-39.334 10 -50.001 16s-19.334 12.667 -26.001 20s-10.5 12.666 -11.5 15.999
s-1.5 5.66602 -1.5 6.99902l-13.5 -10.5c-9 -7 -22.5 -14.5 -40.5 -22.5s-45.667 -15.5 -83 -22.5s-79 -10.5 -125 -10.5c-29.333 0 -54.833 4.66699 -76.5 14s-38.334 21.833 -50.001 37.5s-20.167 32 -25.5 49s-8 34.5 -8 52.5c0 22.667 3 42 9 58
c12.667 30.667 74.167 197.334 184.5 500.001s173.5 478.334 189.5 527.001c17.333 48.667 32.166 79.167 44.499 91.5s35.5 18.5 69.5 18.5c30.667 0 46 -15 46 -45c0 -16.667 -5 -38.334 -15 -65.001l-350 -955c-0.666992 -3.33301 -4 -12.333 -10 -27
s-10.667 -27.834 -14 -39.501s-5 -22.5 -5 -32.5c0 -36 27 -54 81 -54c30.667 0 57.667 3.66699 81 11s42 17.5 56 30.5s24.833 25.5 32.5 37.5s14.167 25.333 19.5 40l384 1041c8 22.667 17.167 37.667 27.5 45s26.833 11.666 49.5 12.999
c0.666992 0.666992 2.33398 1 5.00098 1c16.667 0 30.5 -5 41.5 -15s16.5 -24.333 16.5 -43c0 -10.667 -2.66699 -24 -8 -40l-354 -963c-17.333 -48 -26 -82.333 -26 -103c0 -36.667 20.667 -55 62 -55c25.333 0 52.333 9 81 27s54.334 39.833 77.001 65.5
s42.334 51.167 59.001 76.5s28.334 47 35.001 65l324 880c8 20 14.833 38.167 20.5 54.5s15.167 29.666 28.5 39.999s30.666 15.5 51.999 15.5c39.333 0 59 -16 59 -48c0 -16 -4.66699 -36.667 -14 -62z" />
    <glyph glyph-name="afii10043" unicode="&#x429;" horiz-adv-x="1229" 
d="M1432 1239l-360.995 -973.999c-1.33301 -5.33301 -4 -14.166 -8 -26.499s-7.33301 -23.833 -10 -34.5s-4 -20.334 -4 -29.001c0 -20.667 7.33301 -35.667 22 -45c8 0 17.167 -1.33301 27.5 -4s21.5 -7.16699 33.5 -13.5s22 -16.666 30 -30.999s12 -31.166 12 -50.499
c0 -20.667 -5 -44.667 -15 -72c-28.667 -78 -62.334 -117 -101.001 -117c-4.66699 0 -9.5 0.666992 -14.5 2l-7.5 2c-12 0 -21.5 6.83301 -28.5 20.5s-10.5 27.5 -10.5 41.5c0 6.66699 1 11.334 3 14.001l16 38c11.333 25.333 17.666 43.666 18.999 54.999
c-21.333 0 -39 3.33301 -53 10s-25 15.5 -33 26.5s-18.333 24.167 -31 39.5c-32.667 -30.667 -66 -53.5 -100 -68.5s-79 -22.5 -135 -22.5c-30 0 -56.333 2.33301 -79 7s-39.334 10 -50.001 16s-19.334 12.667 -26.001 20s-10.5 12.666 -11.5 15.999
s-1.5 5.66602 -1.5 6.99902l-13.5 -10.5c-9 -7 -22.5 -14.5 -40.5 -22.5s-45.667 -15.5 -83 -22.5s-79 -10.5 -125 -10.5c-29.333 0 -54.833 4.66699 -76.5 14s-38.334 21.833 -50.001 37.5s-20.167 32 -25.5 49s-8 34.5 -8 52.5c0 22.667 3 42 9 58
c12.667 30.667 75 198.5 187 503.5s176 481.5 192 529.5c18 48.667 33 79.167 45 91.5s35 18.5 69 18.5c30.667 0 46 -15 46 -45c0 -15.333 -4.66699 -37 -14 -65l-356 -961c-0.666992 -3.33301 -4 -12.333 -10 -27s-10.667 -27.834 -14 -39.501s-5 -22.5 -5 -32.5
c0 -36 27 -54 81 -54c30.667 0 57.667 3.66699 81 11s41.833 17.5 55.5 30.5s24.5 25.5 32.5 37.5s14.667 25.333 20 40l389 1045c8.66699 23.333 18 38.5 28 45.5s26.333 11.167 49 12.5c1.33301 0.666992 3 1 5 1c16.667 0 30.667 -5 42 -15s17 -24 17 -42
c0 -12 -3 -25.667 -9 -41l-359 -967c-17.333 -48 -26 -82.333 -26 -103c0 -36.667 20.667 -55 62 -55c25.333 0 52.333 9 81 27s54.167 39.833 76.5 65.5s42 51.167 59 76.5s28.833 47 35.5 65l105 288l109.5 301l109.5 286c8.66699 20 15.667 38.167 21 54.5
s14.5 29.833 27.5 40.5s30.167 16 51.5 16c40 0 60 -16 60 -48c0 -15.333 -4.66699 -36.333 -14 -63z" />
    <glyph glyph-name="afii10044" unicode="&#x42a;" horiz-adv-x="870" 
d="M352 385l-99.999 -255.997l183 1c29.333 0.666992 55 5.66699 77 15s42.167 25.166 60.5 47.499s34.666 48.166 48.999 77.499s30.833 67.666 49.5 114.999c20 52 34.667 93.333 44 124s14 56.667 14 78c0 25.333 -7.5 44.166 -22.5 56.499s-39.833 18.5 -74.5 18.5
c-70 0 -115.667 -4 -137 -12c-27.333 -10.667 -51.333 -36.667 -72 -78c-13.333 -27.333 -37 -89.666 -71 -186.999zM655.001 1219l-157 -425.999h22h88c41.333 0 87 -0.333008 137 -1c41.333 0 73 -10.5 95 -31.5s33 -55.833 33 -104.5c0 -64.667 -20.333 -155 -61 -271
c-20.667 -58.667 -39 -107.167 -55 -145.5s-33.5 -72.833 -52.5 -103.5s-37.333 -54 -55 -70s-39.834 -29.5 -66.501 -40.5s-54.167 -18 -82.5 -21s-64.166 -4.5 -107.499 -4.5h-273c-9.33301 0 -17 5.83301 -23 17.5s-9 25.167 -9 40.5c0 12 1.66699 23 5 33
c3.33301 7.33301 39.166 103 107.499 287l200 538.5c65 175 102.167 277.167 111.5 306.5h-232h-3c-6 0 -11.167 0.5 -15.5 1.5s-9.66602 3.16699 -15.999 6.5s-11.333 9.66602 -15 18.999s-5.5 21 -5.5 35c0 43.333 17.667 65 53 65h281h30c24.667 0 42.667 -1 54 -3
s19 -6.66699 23 -14c4.66699 -8.66699 7 -19 7 -31c0 -8 -0.833008 -16.333 -2.5 -25s-4.5 -19.5 -8.5 -32.5s-6.33301 -21.5 -7 -25.5z" />
    <glyph glyph-name="afii10045" unicode="&#x42b;" horiz-adv-x="1206" 
d="M314 385l-99.999 -255.997l183 1c29.333 0.666992 55 5.66699 77 15s42.167 25.166 60.5 47.499s34.666 48.166 48.999 77.499s30.833 67.666 49.5 114.999c20 52 34.667 93.333 44 124s14 56.667 14 78c0 25.333 -7.5 44.166 -22.5 56.499s-39.833 18.5 -74.5 18.5
c-70 0 -115.667 -4 -137 -12c-27.333 -10.667 -51.333 -36.667 -72 -78c-13.333 -27.333 -37 -89.666 -71 -186.999zM56.001 91.0029l407.999 1107c2 11.333 3.66699 22.166 5 32.499s3 19.333 5 27s6 18.167 12 31.5c7.33301 17.333 20.333 31.833 39 43.5
s37.334 17.5 56.001 17.5c20.667 0 36 -7 46 -21c6 -8.66699 9 -19 9 -31c0 -10.667 -3.16699 -26.5 -9.5 -47.5s-9.83301 -32.5 -10.5 -34.5l-156 -423h22h88c41.333 0 87 -0.333008 137 -1c41.333 0 73 -10.5 95 -31.5s33 -55.833 33 -104.5
c0 -64.667 -20.333 -155 -61 -271c-20.667 -58.667 -39 -107.167 -55 -145.5s-33.5 -72.833 -52.5 -103.5s-37.333 -54 -55 -70s-39.834 -29.5 -66.501 -40.5s-54.167 -18 -82.5 -21s-64.166 -4.5 -107.499 -4.5h-274c-16 0 -24.333 30.333 -25 91zM1383 1214
l-397.002 -1069c-5.33301 -15.333 -10.333 -34.333 -15 -57s-10 -42.334 -16 -59.001c-4 -9.33301 -12.667 -16.333 -26 -21s-25.333 -7.33398 -36 -8.00098s-25.667 -1 -45 -1c-24 0 -36 12.667 -36 38c0 20.667 8.33301 51.334 25 92.001l187 503
c124.667 335.333 193.667 523.333 207 564c2 11.333 3.66699 22.166 5 32.499s2.83301 19.333 4.5 27s5.83398 18.167 12.501 31.5c7.33301 17.333 20.333 32 39 44s37.334 18 56.001 18c20.667 0 36 -7.33301 46 -22c6 -8.66699 9 -19 9 -31
c0 -10 -3.16699 -25.667 -9.5 -47s-9.83301 -33 -10.5 -35z" />
    <glyph glyph-name="afii10046" unicode="&#x42c;" horiz-adv-x="832" 
d="M314 385l-99.999 -255.997l183 1c29.333 0.666992 55 5.66699 77 15s42.167 25.166 60.5 47.499s34.666 48.166 48.999 77.499s30.833 67.666 49.5 114.999c20 52 34.667 93.333 44 124s14 56.667 14 78c0 25.333 -7.5 44.166 -22.5 56.499s-39.833 18.5 -74.5 18.5
c-70 0 -115.667 -4 -137 -12c-27.333 -10.667 -51.333 -36.667 -72 -78c-13.333 -27.333 -37 -89.666 -71 -186.999zM56.001 91.0029l407.999 1107c2 11.333 3.66699 22.166 5 32.499s3 19.333 5 27s6 18.167 12 31.5c7.33301 17.333 20.333 31.833 39 43.5
s37.334 17.5 56.001 17.5c20.667 0 36 -7 46 -21c6 -8.66699 9 -19 9 -31c0 -10.667 -3.16699 -26.5 -9.5 -47.5s-9.83301 -32.5 -10.5 -34.5l-156 -423h22h88c41.333 0 87 -0.333008 137 -1c41.333 0 73 -10.5 95 -31.5s33 -55.833 33 -104.5
c0 -64.667 -20.333 -155 -61 -271c-20.667 -58.667 -39 -107.167 -55 -145.5s-33.5 -72.833 -52.5 -103.5s-37.333 -54 -55 -70s-39.834 -29.5 -66.501 -40.5s-54.167 -18 -82.5 -21s-64.166 -4.5 -107.499 -4.5h-274c-16 0 -24.333 30.333 -25 91z" />
    </font>
</defs>
</svg>
